<svg width="1320" height="660" viewBox="0 0 1320 660" fill="none" xmlns="http://www.w3.org/2000/svg">
<path d="M0.5 330.5H164.5V494.5H0.5V330.5ZM164.5 329.5H0.5V165.5H164.5V329.5ZM165.5 494.5V330.5H329.5V494.5H165.5ZM329.5 329.5H165.5V165.5H329.5V329.5ZM330.5 494.5V330.5H494.5V494.5H330.5ZM494.5 329.5H330.5V165.5H494.5V329.5ZM495.5 494.5V330.5H659.5V494.5H495.5ZM659.5 329.5H495.5V165.5H659.5V329.5ZM660.5 494.5V330.5H824.5V494.5H660.5ZM824.5 329.5H660.5V165.5H824.5V329.5ZM825.5 494.5V330.5H989.5V494.5H825.5ZM989.5 329.5H825.5V165.5H989.5V329.5ZM990.5 494.5V330.5H1154.5V494.5H990.5ZM1154.5 329.5H990.5V165.5H1154.5V329.5ZM1155.5 494.5V330.5H1319.5V494.5H1155.5ZM1319.5 329.5H1155.5V165.5H1319.5V329.5ZM1155.5 495.5H1319.5V644C1319.5 652.56 1312.56 659.5 1304 659.5H1155.5V495.5ZM1154.5 495.5V659.5H990.5V495.5H1154.5ZM989.5 495.5V659.5H825.5V495.5H989.5ZM824.5 495.5V659.5H660.5V495.5H824.5ZM659.5 495.5V659.5H495.5V495.5H659.5ZM494.5 495.5V659.5H330.5V495.5H494.5ZM329.5 495.5V659.5H165.5V495.5H329.5ZM164.5 495.5V659.5H16C7.43959 659.5 0.5 652.56 0.5 644V495.5H164.5ZM0.5 164.5V16C0.5 7.43959 7.43959 0.5 16 0.5H164.5V164.5H0.5ZM329.5 164.5H165.5V0.5H329.5V164.5ZM330.5 164.5V0.5H494.5V164.5H330.5ZM495.5 164.5V0.5H659.5V164.5H495.5ZM660.5 164.5V0.5H824.5V164.5H660.5ZM825.5 164.5V0.5H989.5V164.5H825.5ZM990.5 164.5V0.5H1154.5V164.5H990.5ZM1155.5 164.5V0.5H1304C1312.56 0.5 1319.5 7.43959 1319.5 16V164.5H1155.5Z" stroke="url(#paint0_linear_1262_12521)"/>
<defs>
<linearGradient id="paint0_linear_1262_12521" x1="660" y1="0" x2="660" y2="660" gradientUnits="userSpaceOnUse">
<stop offset="0.437387" stop-color="#DED6FF" stop-opacity="0.75"/>
<stop offset="1" stop-color="#E3DCFF" stop-opacity="0"/>
</linearGradient>
</defs>
</svg>
