<svg width="247" height="232" viewBox="0 0 247 232" fill="none" xmlns="http://www.w3.org/2000/svg">
<path d="M86.1371 44.9139C95.5154 40.5432 104.847 36.0399 114.297 31.8275C130.947 24.405 153.519 17.7653 170.743 20.5701C178.757 21.8751 186.799 23.1735 192.183 28.3462C196.415 32.412 199.433 38.7035 201.032 44.1883C203.111 51.3222 197.792 61.9503 194.645 69.1052C191.624 75.973 186.69 82.1888 182.099 88.4736C174.807 98.4566 167.187 108.167 159.218 117.8C145.838 133.974 129.803 147.409 110.709 158.175C93.9685 167.615 76.3609 174.579 57.7172 172.815C51.2242 172.2 36.6379 168.703 36.8684 161.001C37.0122 156.193 39.9187 152.223 42.7099 147.885C51.3204 134.504 50.9177 135.198 61.5425 126.481C77.1927 113.641 97.1118 102.962 116.621 96.5652C132.819 91.2542 154.065 89.731 168.696 95.0927C175.175 97.4667 180.066 100.818 183.148 106.349C188.671 116.261 182.025 128.397 174.89 138.061C159.635 158.721 140.153 179.195 119.583 196.281C112.352 202.288 103.707 208.374 94.966 212.448" stroke="url(#paint0_linear_402_3199)" stroke-width="3.79597" stroke-linecap="round"/>
<path d="M87.6116 202.052L81.2771 222.047L107.872 222.939" stroke="#E6FE51" stroke-width="3.79597" stroke-linecap="round"/>
<defs>
<linearGradient id="paint0_linear_402_3199" x1="97.7614" y1="211.196" x2="33.2153" y2="77.3143" gradientUnits="userSpaceOnUse">
<stop stop-color="#E6FE51"/>
<stop offset="1" stop-color="#E6FE51" stop-opacity="0"/>
</linearGradient>
</defs>
</svg>
