<svg width="70" height="70" viewBox="0 0 70 70" fill="none" xmlns="http://www.w3.org/2000/svg">
<path d="M34.9802 70C33.4228 70 31.984 68.7039 30.5848 67.4523C29.4279 66.4134 28.2264 65.335 26.9459 64.9788C26.5196 64.869 26.0808 64.8158 25.6406 64.8205C24.5534 64.8659 23.4735 65.02 22.417 65.2806C21.4053 65.5268 20.372 65.6743 19.3318 65.7209C18.6905 65.7489 18.0535 65.6037 17.4876 65.3004C16.1824 64.5435 15.5841 62.723 15.0155 60.9618C14.5211 59.4777 14.0267 57.8996 13.0379 56.935C12.049 55.9703 10.5163 55.4509 9.01328 54.9562C7.25314 54.3823 5.43368 53.7837 4.67721 52.4827C3.92075 51.1816 4.3064 49.4304 4.67721 47.5357C5.00353 45.9724 5.33974 44.3498 4.97881 43.0042C4.61788 41.6587 3.56477 40.5307 2.50671 39.3633C1.29538 37.9979 0 36.5583 0 35C0 33.4417 1.29538 32.0021 2.54626 30.6021C3.58949 29.4445 4.66238 28.2424 5.01836 26.9611C5.37435 25.6799 5.04309 23.9929 4.71677 22.4297C4.32618 20.5498 3.9603 18.7739 4.71677 17.4827C5.47323 16.1915 7.2927 15.5781 9.05283 15.0092C10.5361 14.5145 12.1133 14.0198 13.0774 13.0304C14.0415 12.041 14.5607 10.5074 15.0551 9.00353C15.6286 7.2424 16.2269 5.42191 17.5272 4.66502C18.0926 4.36 18.7296 4.21303 19.3714 4.23958C20.4118 4.28756 21.445 4.43668 22.4566 4.68481C23.5131 4.94533 24.593 5.09946 25.6802 5.14488C26.1062 5.15261 26.5316 5.10606 26.9459 5.00636C28.2264 4.66502 29.418 3.59152 30.5848 2.53286C31.984 1.29611 33.4228 0 34.9802 0C36.5376 0 37.9764 1.29611 39.3756 2.5477C40.5326 3.59152 41.734 4.66502 43.0145 5.0212C43.4408 5.13096 43.8797 5.18418 44.3198 5.17951C45.4077 5.1276 46.4876 4.96685 47.5434 4.69965C48.5551 4.45306 49.5884 4.30561 50.6286 4.25936C51.2697 4.23372 51.9061 4.37883 52.4728 4.67986C53.7781 5.43675 54.3763 7.25724 54.9449 9.01837C55.4393 10.5025 55.9337 12.0806 56.9226 13.0452C57.9114 14.0099 59.4441 14.5293 60.9472 15.024C62.7073 15.5979 64.5268 16.1965 65.2832 17.4975C66.0397 18.7986 65.654 20.5498 65.2832 22.4445C64.9569 24.0078 64.6207 25.6304 64.9816 26.976C65.3426 28.3216 66.3957 29.4495 67.4537 30.617C68.7046 32.017 70 33.4565 70 35.0148C70 36.5731 68.7046 38.0127 67.4537 39.4127C66.4105 40.5703 65.3376 41.7724 64.9816 43.0537C64.6256 44.335 64.9816 46.0219 65.2832 47.5852C65.6738 49.465 66.0397 51.241 65.2832 52.5322C64.5268 53.8233 62.7073 54.4368 60.9472 55.0057C59.4639 55.5004 57.8867 55.9951 56.9226 56.9845C55.9585 57.9739 55.4393 59.5074 54.9449 61.0113C54.3714 62.7724 53.7731 64.5929 52.4728 65.3498C51.907 65.6531 51.2699 65.7984 50.6286 65.7703C49.5884 65.7241 48.5551 65.5766 47.5434 65.33C46.4869 65.0695 45.407 64.9154 44.3198 64.87C43.8797 64.8653 43.4408 64.9185 43.0145 65.0283C41.734 65.3696 40.5424 66.4481 39.3756 67.5018C37.9764 68.7039 36.5376 70 34.9802 70Z" fill="url(#paint0_linear_970_2142)"/>
<path d="M30.8318 25.788C30.4558 26.02 30.0118 26.224 29.4998 26.4C28.9958 26.568 28.4558 26.688 27.8798 26.76V25.296C28.5038 25.2 29.0838 25.048 29.6198 24.84C30.1558 24.632 30.6158 24.38 30.9998 24.084H32.5718V33H30.8318V25.788ZM41.2383 33H39.3423V31.488H34.0023V30.396L37.5183 24.084H39.5103L36.1263 30.048H39.3423V27.588H41.2383V30.048H42.7743V31.488H41.2383V33ZM18.2634 45V36.084H23.0154C24.6314 36.084 25.8434 36.476 26.6514 37.26C27.4674 38.036 27.8754 39.116 27.8754 40.5V40.56C27.8754 41.936 27.4754 43.02 26.6754 43.812C25.8834 44.604 24.6674 45 23.0274 45H18.2634ZM22.7034 43.5C24.8394 43.5 25.9074 42.54 25.9074 40.62V40.44C25.9074 39.464 25.6354 38.744 25.0914 38.28C24.5554 37.816 23.7594 37.584 22.7034 37.584H20.1954V43.5H22.7034ZM32.7768 37.728C33.7928 37.728 34.5848 37.876 35.1528 38.172C35.7208 38.46 36.1088 38.848 36.3168 39.336C36.5328 39.816 36.6408 40.392 36.6408 41.064V45H34.8888V44.076L34.9608 43.332H34.9368C34.6728 43.916 34.2648 44.372 33.7128 44.7C33.1608 45.028 32.5208 45.192 31.7928 45.192C30.6888 45.192 29.9088 44.96 29.4528 44.496C29.0048 44.032 28.7808 43.476 28.7808 42.828C28.7808 42.148 29.0328 41.596 29.5368 41.172C30.0488 40.74 30.8928 40.524 32.0688 40.524C32.6128 40.524 33.1408 40.568 33.6528 40.656C34.1648 40.744 34.5768 40.844 34.8888 40.956V40.68C34.8728 39.512 34.1528 38.928 32.7288 38.928C32.0808 38.928 31.6008 39.052 31.2888 39.3C30.9768 39.54 30.8008 39.848 30.7608 40.224H29.0448C29.1328 39.528 29.4528 38.94 30.0048 38.46C30.5568 37.972 31.4808 37.728 32.7768 37.728ZM32.2608 43.884C32.9888 43.884 33.5688 43.704 34.0008 43.344C34.4328 42.976 34.7088 42.548 34.8288 42.06C34.5328 41.932 34.1648 41.832 33.7248 41.76C33.2848 41.68 32.8688 41.64 32.4768 41.64C31.7568 41.64 31.2488 41.748 30.9528 41.964C30.6648 42.172 30.5208 42.44 30.5208 42.768C30.5208 43.088 30.6568 43.356 30.9288 43.572C31.2008 43.78 31.6448 43.884 32.2608 43.884ZM38.9582 46.2C39.4382 46.088 39.8342 45.932 40.1462 45.732C40.4662 45.54 40.7062 45.28 40.8662 44.952L40.9742 44.712H40.3022L37.2182 37.92H39.1262L41.3102 43.212L41.4062 43.512H41.4302L41.5142 43.212L43.7102 37.92H45.6182L42.4142 45.036C42.1102 45.708 41.6982 46.228 41.1782 46.596C40.6662 46.972 40.0342 47.212 39.2822 47.316L38.9582 46.2ZM49.7494 45.192C48.4854 45.192 47.5414 44.96 46.9174 44.496C46.3014 44.032 45.9934 43.424 45.9934 42.672H47.6734C47.7054 43.096 47.9054 43.412 48.2734 43.62C48.6494 43.82 49.1574 43.92 49.7974 43.92C50.4294 43.92 50.8814 43.848 51.1534 43.704C51.4334 43.552 51.5734 43.34 51.5734 43.068C51.5734 42.852 51.5014 42.684 51.3574 42.564C51.2214 42.436 51.0054 42.332 50.7094 42.252C50.4134 42.172 49.9974 42.096 49.4614 42.024C48.6854 41.92 48.0574 41.784 47.5774 41.616C47.1054 41.44 46.7534 41.212 46.5214 40.932C46.2894 40.652 46.1734 40.292 46.1734 39.852C46.1734 39.22 46.4294 38.708 46.9414 38.316C47.4614 37.924 48.3134 37.728 49.4974 37.728C50.3294 37.728 51.0214 37.84 51.5734 38.064C52.1334 38.28 52.5454 38.564 52.8094 38.916C53.0734 39.268 53.2094 39.644 53.2174 40.044H51.4654C51.4254 39.732 51.2334 39.48 50.8894 39.288C50.5534 39.096 50.0694 39 49.4374 39C48.4454 39 47.9494 39.264 47.9494 39.792C47.9494 40.008 48.0134 40.18 48.1414 40.308C48.2774 40.428 48.4814 40.524 48.7534 40.596C49.0254 40.668 49.4054 40.732 49.8934 40.788C51.1254 40.916 52.0094 41.152 52.5454 41.496C53.0814 41.832 53.3494 42.324 53.3494 42.972C53.3494 43.684 53.0454 44.232 52.4374 44.616C51.8374 45 50.9414 45.192 49.7494 45.192Z" fill="#1A1A1A"/>
<defs>
<linearGradient id="paint0_linear_970_2142" x1="3.01075" y1="12.4194" x2="62.1229" y2="60.5593" gradientUnits="userSpaceOnUse">
<stop offset="0.0106768" stop-color="#E4FF40"/>
<stop offset="0.505208" stop-color="#F2FF9E"/>
<stop offset="0.609375" stop-color="#E4FF40"/>
</linearGradient>
</defs>
</svg>
