<svg width="226" height="101" viewBox="0 0 226 101" fill="none" xmlns="http://www.w3.org/2000/svg">
<circle cx="53.583" cy="12.9423" r="10.9052" fill="#E2FF00"/>
<rect x="31.5098" y="19.8984" width="76.8818" height="16.3578" transform="rotate(-15 31.5098 19.8984)" fill="#1A1A1A"/>
<circle cx="170.073" cy="12.9423" r="10.9052" fill="#E2FF00"/>
<rect x="132.06" y="3.27246" width="76.8818" height="16.3578" transform="rotate(15 132.06 3.27246)" fill="#1A1A1A"/>
<path d="M222.736 63.1048C224.697 59.7979 225.678 55.7604 225.678 50.9923L225.678 50.1849C225.678 45.4168 224.678 41.3985 222.678 38.1301C220.679 34.8617 217.795 32.4008 214.027 30.7473C210.22 29.0554 205.625 28.2095 200.242 28.2095C177.242 30.1179 155.641 55.4725 111.539 55.4726C68.3771 55.4726 51.5598 29.1323 25.6599 28.2096C20.3189 28.2198 15.7567 29.0657 11.9731 30.7473C8.16631 32.4008 5.28236 34.8617 3.32131 38.1301C1.32181 41.3986 0.322038 45.4168 0.322039 50.1849L0.322039 50.9924C0.322039 55.7604 1.32181 59.7979 3.32131 63.1048C21.7836 93.8752 81.0181 100.288 111.539 100.288C140.64 100.288 204.95 92.1785 222.736 63.1048ZM111.539 90.5406C85.3562 90.5406 30.1677 85.6517 15.03 57.7984C14.0302 55.9911 13.5304 53.8186 13.5304 51.2808L13.5304 49.9542C13.5304 47.4163 14.0302 45.263 15.03 43.4942C15.9913 41.687 17.3948 40.3219 19.2405 39.3991C21.062 38.4504 23.2018 37.9698 25.6599 37.9574C44.744 38.6492 68.377 65.2203 111.539 65.2202C155.641 65.2202 177.788 38.8421 200.242 37.9571C202.78 37.9571 204.971 38.4185 206.817 39.3414C208.624 40.2642 210.028 41.6293 211.027 43.4365C211.989 45.2053 212.469 47.3779 212.469 49.9541L212.469 51.2807C212.469 53.857 211.989 56.0488 211.027 57.8561C196.261 83.9805 136.978 91.3466 111.539 90.5406Z" fill="#E2FF00"/>
</svg>
