<svg width="222" height="348" viewBox="0 0 222 348" fill="none" xmlns="http://www.w3.org/2000/svg">
<rect opacity="0.6" x="0.5" y="155.092" width="102" height="101.39" rx="16.5" fill="#272727" stroke="#E6FE51"/>
<ellipse cx="51.5009" cy="205.787" rx="37.0439" ry="36.8244" fill="#E6FE51"/>
<rect opacity="0.6" x="0.5" y="36.5" width="102" height="101.39" rx="16.5" fill="#272727" stroke="#E6FE51"/>
<path d="M92.1576 86.7461C92.1576 96.3378 79.0356 101.253 72.6429 107.53C66.2501 113.808 61.2436 126.714 51.4997 126.714C41.7558 126.714 36.7425 113.798 30.3565 107.53C23.9705 101.263 10.8418 96.3246 10.8418 86.7461C10.8418 77.1675 23.9638 72.2393 30.3565 65.9616C36.7493 59.684 41.7558 46.7781 51.4997 46.7781C61.2436 46.7781 66.2568 59.6774 72.6429 65.9616C79.0289 72.2459 92.1576 77.1675 92.1576 86.7461Z" fill="#E6FE51"/>
<rect opacity="0.6" x="119.502" y="92.5" width="101.998" height="101.449" rx="16.5" fill="#272727" stroke="#E6FE51"/>
<path d="M209.353 143.227C209.353 147.029 202.159 149.654 201.036 153.083C199.876 156.642 204.099 162.961 201.931 165.92C199.762 168.88 192.374 166.855 189.365 169.031C186.357 171.207 186.087 178.791 182.509 179.931C179.057 181.042 174.327 175.102 170.5 175.102C166.673 175.102 161.948 181.042 158.492 179.931C154.914 178.774 154.614 171.169 151.636 169.031C148.657 166.893 141.26 168.905 139.07 165.916C136.88 162.927 141.125 156.642 139.965 153.083C138.842 149.654 131.652 147.029 131.652 143.227C131.652 139.424 138.825 136.796 139.965 133.366C141.125 129.811 136.901 123.493 139.07 120.533C141.239 117.573 148.627 119.594 151.636 117.418C154.644 115.242 154.914 107.658 158.492 106.518C161.948 105.403 166.673 111.344 170.5 111.344C174.327 111.344 179.057 105.403 182.509 106.518C186.087 107.671 186.386 115.276 189.365 117.418C192.344 119.561 199.741 117.544 201.931 120.533C204.121 123.523 199.876 129.811 201.036 133.366C202.159 136.796 209.353 139.424 209.353 143.227Z" fill="#E6FE51"/>
<rect opacity="0.6" x="119.5" y="211.051" width="101.998" height="101.449" rx="16.5" fill="#272727" stroke="#E6FE51"/>
<rect x="133.457" y="224.93" width="74.0862" height="73.6911" rx="17" fill="#E6FE51"/>
</svg>
