<svg width="61" height="25" viewBox="0 0 61 25" fill="none" xmlns="http://www.w3.org/2000/svg">
<path fill-rule="evenodd" clip-rule="evenodd" d="M60.0795 12.9172C60.0795 8.64484 58.0101 5.27368 54.0548 5.27368C50.0829 5.27368 47.6797 8.64484 47.6797 12.8838C47.6797 17.9072 50.5168 20.4439 54.5889 20.4439C56.5749 20.4439 58.0769 19.9933 59.2117 19.3591V16.0213C58.0769 16.5888 56.7751 16.9392 55.1229 16.9392C53.5041 16.9392 52.0689 16.3718 51.8853 14.4025H60.0462C60.0462 14.1856 60.0795 13.3177 60.0795 12.9172ZM51.8352 11.3318C51.8352 9.44591 52.9868 8.66153 54.0382 8.66153C55.0562 8.66153 56.141 9.44591 56.141 11.3318H51.8352Z" fill="white"/>
<path fill-rule="evenodd" clip-rule="evenodd" d="M41.2386 5.27368C39.6031 5.27368 38.5517 6.04137 37.9676 6.57542L37.7507 5.5407H34.0791V25L38.2513 24.1155L38.268 19.3925C38.8688 19.8264 39.7533 20.4439 41.222 20.4439C44.2093 20.4439 46.9296 18.0407 46.9296 12.7503C46.9129 7.91053 44.1592 5.27368 41.2386 5.27368ZM40.2373 16.7723C39.2527 16.7723 38.6685 16.4219 38.268 15.988L38.2513 9.79638C38.6852 9.3124 39.286 8.97862 40.2373 8.97862C41.756 8.97862 42.8074 10.6809 42.8074 12.8671C42.8074 15.1035 41.7727 16.7723 40.2373 16.7723Z" fill="white"/>
<path fill-rule="evenodd" clip-rule="evenodd" d="M28.3379 4.28905L32.5268 3.38785V0L28.3379 0.884512V4.28905Z" fill="white"/>
<path d="M32.5268 5.55762H28.3379V20.1604H32.5268V5.55762Z" fill="white"/>
<path fill-rule="evenodd" clip-rule="evenodd" d="M23.8484 6.79249L23.5814 5.55752H19.9766V20.1603H24.1488V10.2638C25.1334 8.97874 26.8023 9.21239 27.3197 9.39597V5.55752C26.7856 5.35725 24.833 4.99009 23.8484 6.79249Z" fill="white"/>
<path fill-rule="evenodd" clip-rule="evenodd" d="M15.5048 1.93604L11.4327 2.80386L11.416 16.1717C11.416 18.6416 13.2685 20.4607 15.7384 20.4607C17.1069 20.4607 18.1083 20.2104 18.659 19.91V16.5221C18.125 16.7391 15.4881 17.5068 15.4881 15.0368V9.11227H18.659V5.55753H15.4881L15.5048 1.93604Z" fill="white"/>
<path fill-rule="evenodd" clip-rule="evenodd" d="M4.2223 9.79638C4.2223 9.14551 4.75634 8.89518 5.64085 8.89518C6.90921 8.89518 8.51134 9.27902 9.7797 9.96327V6.04137C8.39452 5.49064 7.02603 5.27368 5.64085 5.27368C2.253 5.27368 0 7.04271 0 9.99664C0 14.6028 6.34179 13.8685 6.34179 15.8545C6.34179 16.6221 5.67423 16.8725 4.73965 16.8725C3.35447 16.8725 1.58545 16.3051 0.183578 15.5374V19.5093C1.73565 20.1769 3.3044 20.4606 4.73965 20.4606C8.21094 20.4606 10.5975 18.7416 10.5975 15.7543C10.5808 10.781 4.2223 11.6655 4.2223 9.79638Z" fill="white"/>
</svg>
