<svg width="24" height="24" viewBox="0 0 24 24" fill="none" xmlns="http://www.w3.org/2000/svg">
<g clip-path="url(#clip0_402_2879)">
<path d="M17.1426 6.03387H15.4284V7.73833H17.1426V6.03387Z" fill="#E6FE51"/>
<path d="M15.4281 4.32935H13.7139V6.03388H15.4281V4.32935Z" fill="#E6FE51"/>
<path d="M15.4281 9.44281H13.7139V11.1473H15.4281V9.44281Z" fill="#E6FE51"/>
<path d="M15.4281 11.1473H13.7139V12.8518H15.4281V11.1473Z" fill="#E6FE51"/>
<path d="M15.4281 12.8517H13.7139V14.5562H15.4281V12.8517Z" fill="#E6FE51"/>
<path d="M17.1426 12.8517H15.4284V14.5562H17.1426V12.8517Z" fill="#E6FE51"/>
<path d="M18.8564 12.8517H17.1422V14.5562H18.8564V12.8517Z" fill="#E6FE51"/>
<path d="M13.7143 2.62488H12.0001V4.32934H13.7143V2.62488Z" fill="#E6FE51"/>
<path d="M15.4288 2.62488H13.7146V4.32934H15.4288V2.62488Z" fill="#E6FE51"/>
<path d="M17.1426 2.62488H15.4284V4.32934H17.1426V2.62488Z" fill="#E6FE51"/>
<path d="M18.8564 6.03387H17.1422V7.73833H18.8564V6.03387Z" fill="#E6FE51"/>
<path d="M22.2855 6.03387H20.5713V7.73833H22.2855V6.03387Z" fill="#E6FE51"/>
<path d="M22.2855 4.32935H20.5713V6.03388H22.2855V4.32935Z" fill="#E6FE51"/>
<path d="M24 6.03387H22.2858V7.73833H24V6.03387Z" fill="#E6FE51"/>
<path d="M15.4281 6.03387H13.7139V7.73833H15.4281V6.03387Z" fill="#E6FE51"/>
<path d="M13.7143 6.03387H12.0001V7.73833H13.7143V6.03387Z" fill="#E6FE51"/>
<path d="M17.1426 19.6697H15.4284V21.3741H17.1426V19.6697Z" fill="#E6FE51"/>
<path d="M18.8564 19.6697H17.1422V21.3741H18.8564V19.6697Z" fill="#E6FE51"/>
<path d="M15.4281 19.6697H13.7139V21.3741H15.4281V19.6697Z" fill="#E6FE51"/>
<path d="M13.7143 19.6697H12.0001V21.3741H13.7143V19.6697Z" fill="#E6FE51"/>
<path d="M12.0005 19.6697H10.2863V21.3741H12.0005V19.6697Z" fill="#E6FE51"/>
<path d="M12.0005 6.03387H10.2863V7.73833H12.0005V6.03387Z" fill="#E6FE51"/>
<path d="M10.286 17.9651H8.57175V19.6697H10.286V17.9651Z" fill="#E6FE51"/>
<path d="M20.571 7.73834H18.8567V9.4428H20.571V7.73834Z" fill="#E6FE51"/>
<path d="M10.286 7.73834H8.57175V9.4428H10.286V7.73834Z" fill="#E6FE51"/>
<path d="M20.571 17.9651H18.8567V19.6697H20.571V17.9651Z" fill="#E6FE51"/>
<path d="M22.2855 9.44281H20.5713V11.1473H22.2855V9.44281Z" fill="#E6FE51"/>
<path d="M8.57149 9.44281H6.85721V11.1473H8.57149V9.44281Z" fill="#E6FE51"/>
<path d="M5.14317 9.44281H0.000549316V11.1473H5.14317V9.44281Z" fill="#E6FE51"/>
<path d="M5.14284 12.8517H1.71435V14.5562H5.14284V12.8517Z" fill="#E6FE51"/>
<path d="M5.14309 16.2607H3.42888V17.9652H5.14309V16.2607Z" fill="#E6FE51"/>
<path d="M8.57149 11.1473H6.85721V12.8518H8.57149V11.1473Z" fill="#E6FE51"/>
<path d="M8.57149 12.8517H6.85721V14.5562H8.57149V12.8517Z" fill="#E6FE51"/>
<path d="M8.57149 16.2607H6.85721V17.9652H8.57149V16.2607Z" fill="#E6FE51"/>
<path d="M8.57149 14.5562H6.85721V16.2607H8.57149V14.5562Z" fill="#E6FE51"/>
<path d="M22.2855 11.1473H20.5713V12.8518H22.2855V11.1473Z" fill="#E6FE51"/>
<path d="M22.2855 12.8517H20.5713V14.5562H22.2855V12.8517Z" fill="#E6FE51"/>
<path d="M22.2855 16.2607H20.5713V17.9652H22.2855V16.2607Z" fill="#E6FE51"/>
<path d="M22.2855 14.5562H20.5713V16.2607H22.2855V14.5562Z" fill="#E6FE51"/>
</g>
<defs>
<clipPath id="clip0_402_2879">
<rect width="23.9995" height="23.9991" fill="white" transform="translate(0.000549316)"/>
</clipPath>
</defs>
</svg>
