<svg width="41" height="40" viewBox="0 0 41 40" fill="none" xmlns="http://www.w3.org/2000/svg">
<path d="M22.1884 4.83078V1.45996H18.8608V4.83078H22.1884Z" fill="#1A1A1A"/>
<path d="M18.8612 8.20138V4.83057H15.5334V8.20138H18.8612Z" fill="#1A1A1A"/>
<path d="M15.5339 11.5715V8.20068H12.2063V11.5715H15.5339Z" fill="#1A1A1A"/>
<path d="M12.2053 14.9445V11.5737H8.87769V14.9445H12.2053Z" fill="#1A1A1A"/>
<path d="M25.5168 8.20138V4.83057H22.1892V8.20138H25.5168Z" fill="#1A1A1A"/>
<path d="M28.8444 11.5715V8.20068H25.5166V11.5715H28.8444Z" fill="#1A1A1A"/>
<path d="M32.1714 14.9445V11.5737H28.8438V14.9445H32.1714Z" fill="#1A1A1A"/>
<path d="M12.2053 18.3152V14.9443H8.87769V18.3152H12.2053Z" fill="#1A1A1A"/>
<path d="M8.87804 18.3152V14.9443H5.55029V18.3152H8.87804Z" fill="#1A1A1A"/>
<path d="M32.1714 18.3152V14.9443H28.8438V18.3152H32.1714Z" fill="#1A1A1A"/>
<path d="M35.5 18.3152V14.9443H32.1724V18.3152H35.5Z" fill="#1A1A1A"/>
<path d="M15.5339 21.6853V18.3145H12.2063V21.6853H15.5339Z" fill="#1A1A1A"/>
<path d="M28.8444 21.6853V18.3145H25.5166V21.6853H28.8444Z" fill="#1A1A1A"/>
<path d="M15.5339 25.056V21.6851H12.2063V25.056H15.5339Z" fill="#1A1A1A"/>
<path d="M28.8444 25.056V21.6851H25.5166V25.056H28.8444Z" fill="#1A1A1A"/>
<path d="M15.5339 28.4261V25.0552H12.2063V28.4261H15.5339Z" fill="#1A1A1A"/>
<path d="M28.8444 28.4261V25.0552H25.5166V28.4261H28.8444Z" fill="#1A1A1A"/>
<path d="M15.5339 31.7966V28.4258H12.2063V31.7966H15.5339Z" fill="#1A1A1A"/>
<path d="M28.8444 31.7966V28.4258H25.5166V31.7966H28.8444Z" fill="#1A1A1A"/>
<path d="M15.5339 35.1698V31.7988H12.2063V35.1698H15.5339Z" fill="#1A1A1A"/>
<path d="M28.8444 35.1698V31.7988H25.5166V35.1698H28.8444Z" fill="#1A1A1A"/>
<path d="M28.8444 38.5399V35.1689H25.5166V38.5399H28.8444Z" fill="#1A1A1A"/>
<path d="M15.5339 38.5399V35.1689H12.2063V38.5399H15.5339Z" fill="#1A1A1A"/>
<path d="M25.5168 38.5399V35.1689H22.1892V38.5399H25.5168Z" fill="#1A1A1A"/>
<path d="M22.1884 38.5399V35.1689H18.8608V38.5399H22.1884Z" fill="#1A1A1A"/>
<path d="M18.8612 38.5399V35.1689H15.5334V38.5399H18.8612Z" fill="#1A1A1A"/>
</svg>
