<svg width="40" height="40" viewBox="0 0 40 40" fill="none" xmlns="http://www.w3.org/2000/svg">
<rect width="40" height="40" rx="16" fill="white"/>
<g clip-path="url(#clip0_603_2524)">
<path d="M23.4137 20.4737V17.928C23.4137 15.0779 23.4137 13.6529 22.5808 13.0544C22.4452 12.9569 22.2979 12.8768 22.1423 12.8159C21.1872 12.4423 19.9911 13.2171 17.5991 14.7666L17.2582 14.9874C16.7241 15.3334 16.457 15.5064 16.1693 15.6179C15.846 15.7432 15.5034 15.8116 15.1568 15.8199C14.8483 15.8272 14.5353 15.7699 13.9093 15.6553V15.6553C12.7383 15.441 12.1528 15.3338 11.6893 15.4741C11.1709 15.6311 10.7383 15.9917 10.4905 16.4734C10.269 16.904 10.269 17.4993 10.269 18.6897V20.4737" stroke="black" stroke-width="1.5" stroke-linecap="round"/>
<path d="M23.4137 19.5263V22.072C23.4137 24.9221 23.4137 26.3471 22.5808 26.9456C22.4452 27.0431 22.2979 27.1232 22.1423 27.1841C21.1872 27.5577 19.9911 26.7829 17.5991 25.2334L17.2582 25.0126C16.7241 24.6666 16.457 24.4936 16.1693 24.3821C15.846 24.2568 15.5034 24.1884 15.1568 24.1801C14.8483 24.1728 14.5353 24.2301 13.9093 24.3447V24.3447C12.7383 24.559 12.1528 24.6662 11.6893 24.5259C11.1709 24.3689 10.7383 24.0083 10.4905 23.5266C10.269 23.096 10.269 22.5007 10.269 21.3103V19.5263" stroke="black" stroke-width="1.5" stroke-linecap="round"/>
<path d="M29.2588 14.9136C29.8883 18.1155 29.8883 21.8843 29.2588 25.0862" stroke="black" stroke-width="1.5" stroke-linecap="round"/>
<path d="M26.7866 16.1851C27.4161 18.5865 27.4161 21.4131 26.7866 23.8146" stroke="black" stroke-width="1.5" stroke-linecap="round"/>
<path d="M26.8681 12.6411L12.15 27.3593" stroke="#101010" stroke-width="1.5" stroke-linecap="round" stroke-linejoin="round"/>
</g>
<defs>
<clipPath id="clip0_603_2524">
<rect width="24" height="24" fill="white" transform="translate(8 8)"/>
</clipPath>
</defs>
</svg>
