<svg width="40" height="40" viewBox="0 0 40 40" fill="none" xmlns="http://www.w3.org/2000/svg">
<rect width="40" height="40" rx="16" fill="white"/>
<g clip-path="url(#clip0_603_2513)">
<path d="M23.905 20.4737V17.928C23.905 15.0779 23.905 13.6529 23.0721 13.0544C22.9365 12.9569 22.7891 12.8768 22.6336 12.8159C21.6784 12.4423 20.4824 13.2171 18.0903 14.7666L17.7495 14.9874C17.2154 15.3334 16.9483 15.5064 16.6606 15.6179C16.3373 15.7432 15.9947 15.8116 15.648 15.8199C15.3396 15.8272 15.0266 15.7699 14.4006 15.6553V15.6553C13.2296 15.441 12.6441 15.3338 12.1806 15.4741C11.6621 15.6311 11.2296 15.9917 10.9818 16.4734C10.7603 16.904 10.7603 17.4993 10.7603 18.6897V20.4737" stroke="black" stroke-width="1.5" stroke-linecap="round"/>
<path d="M23.905 19.5263V22.072C23.905 24.9221 23.905 26.3471 23.0721 26.9456C22.9365 27.0431 22.7891 27.1232 22.6336 27.1841C21.6784 27.5577 20.4824 26.7829 18.0903 25.2334L17.7495 25.0126C17.2154 24.6666 16.9483 24.4936 16.6606 24.3821C16.3373 24.2568 15.9947 24.1884 15.648 24.1801C15.3396 24.1728 15.0266 24.2301 14.4006 24.3447V24.3447C13.2296 24.559 12.6441 24.6662 12.1806 24.5259C11.6621 24.3689 11.2296 24.0083 10.9818 23.5266C10.7603 23.096 10.7603 22.5007 10.7603 21.3103V19.5263" stroke="black" stroke-width="1.5" stroke-linecap="round"/>
<path d="M29.75 14.9136C30.3795 18.1155 30.3795 21.8843 29.75 25.0862" stroke="black" stroke-width="1.5" stroke-linecap="round"/>
<path d="M27.2779 16.1851C27.9074 18.5865 27.9074 21.4131 27.2779 23.8146" stroke="black" stroke-width="1.5" stroke-linecap="round"/>
</g>
<defs>
<clipPath id="clip0_603_2513">
<rect width="24" height="24" fill="white" transform="translate(8 8)"/>
</clipPath>
</defs>
</svg>
