<svg width="24" height="24" viewBox="0 0 24 24" fill="none" xmlns="http://www.w3.org/2000/svg">
<g clip-path="url(#clip0_402_12984)">
<path d="M7.28906 5.79883L11.8727 1.99961L16.4563 5.79883" stroke="#D8D8D8" stroke-width="1.5" stroke-linecap="round" stroke-linejoin="round"/>
<path d="M11.873 2.3818L11.873 18" stroke="#D8D8D8" stroke-width="1.5" stroke-linecap="round"/>
<path d="M8.0177 9.625L6.97786 9.7978C5.43262 10.0546 4.65999 10.183 4.05394 10.5205C3.20691 10.9921 2.56002 11.7554 2.23357 12.6683C2 13.3215 2 14.1047 2 15.6711V15.6711C2 17.4916 2 18.4018 2.29077 19.1222C2.69726 20.1293 3.49575 20.9277 4.5028 21.3342C5.22316 21.625 6.1334 21.625 7.95387 21.625H16.0461C17.8666 21.625 18.7768 21.625 19.4972 21.3342C20.5043 20.9277 21.3027 20.1293 21.7092 19.1222C22 18.4018 22 17.4916 22 15.6711V15.6711C22 14.1047 22 13.3215 21.7664 12.6683C21.44 11.7554 20.7931 10.9921 19.9461 10.5205C19.34 10.183 18.5674 10.0546 17.0221 9.7978L15.9823 9.625" stroke="#D8D8D8" stroke-width="1.5" stroke-linecap="round"/>
</g>
<defs>
<clipPath id="clip0_402_12984">
<rect width="24" height="24" fill="white"/>
</clipPath>
</defs>
</svg>
