<svg width="72" height="24" viewBox="0 0 72 24" fill="none" xmlns="http://www.w3.org/2000/svg">
<g clip-path="url(#clip0_956_1668)">
<path d="M8.6246 0.00292969H9.24733C11.4093 0.0499284 13.536 0.919404 15.0634 2.45861C14.4994 3.03434 13.9237 3.58658 13.3715 4.16231C12.5137 3.38683 11.4798 2.7876 10.3518 2.57611C8.68334 2.22362 6.88565 2.54086 5.48744 3.49258C3.95998 4.4913 2.92601 6.18325 2.70277 7.9927C2.45602 9.77865 2.96126 11.6586 4.12447 13.0451C5.24069 14.3963 6.94439 15.2422 8.70684 15.301C10.3518 15.395 12.0672 14.8898 13.2657 13.7383C14.2057 12.9276 14.6404 11.6938 14.7814 10.4954C12.831 10.4954 10.8805 10.5071 8.93009 10.4954V8.07495H17.1431C17.5661 10.6716 16.9551 13.5973 14.9812 15.4537C13.6652 16.7697 11.844 17.5452 9.98756 17.6979C8.18986 17.8742 6.33341 17.5334 4.73546 16.664C2.82026 15.6417 1.29281 13.9145 0.540827 11.8818C-0.164153 10.0136 -0.175903 7.89871 0.482078 6.01876C1.08131 4.30331 2.23278 2.7876 3.71324 1.73013C5.13495 0.68441 6.86215 0.108677 8.6246 0.00292969Z" fill="white"/>
<path d="M55.7415 0.614502H58.2559V17.393C57.4217 17.393 56.5757 17.4048 55.7415 17.3813C55.7532 11.8002 55.7415 6.20734 55.7415 0.614502Z" fill="white"/>
<path d="M22.7375 6.4304C24.2884 6.13666 25.9686 6.46565 27.2493 7.39387C28.4125 8.21635 29.2233 9.50881 29.47 10.9188C29.7873 12.552 29.3878 14.3379 28.3303 15.6304C27.1906 17.0756 25.3224 17.8511 23.5012 17.7336C21.8327 17.6396 20.2113 16.8054 19.2243 15.4424C18.1081 13.9384 17.8379 11.8705 18.4488 10.108C19.0598 8.21635 20.787 6.77114 22.7375 6.4304ZM23.09 8.66284C22.4555 8.82733 21.868 9.19157 21.445 9.70856C20.3053 11.0715 20.3758 13.2922 21.633 14.5612C22.3497 15.2896 23.4307 15.6304 24.4294 15.4306C25.3576 15.2661 26.1684 14.6434 26.6149 13.8209C27.3903 12.4227 27.1671 10.4958 25.9804 9.40307C25.2166 8.69809 24.1004 8.40434 23.09 8.66284Z" fill="white"/>
<path d="M35.1893 6.42907C36.9635 6.08833 38.9022 6.58181 40.2299 7.82728C42.3919 9.76597 42.6269 13.3966 40.7822 15.6291C39.666 17.039 37.8565 17.8145 36.0706 17.7322C34.3669 17.6852 32.6867 16.8393 31.6762 15.4411C30.5365 13.9019 30.2897 11.7869 30.936 9.98922C31.5822 8.15627 33.2741 6.75806 35.1893 6.42907ZM35.5418 8.6615C34.9073 8.826 34.3199 9.19024 33.8969 9.69547C32.7689 11.0349 32.8159 13.2204 34.0261 14.5011C34.7428 15.2648 35.8591 15.6408 36.893 15.4293C37.8095 15.2531 38.632 14.6421 39.0785 13.8196C39.8422 12.4096 39.619 10.4827 38.4205 9.38998C37.6568 8.685 36.5405 8.40301 35.5418 8.6615Z" fill="white"/>
<path d="M45.754 7.11091C47.1052 6.26494 48.9029 6.02994 50.3598 6.75842C50.8181 6.95817 51.1941 7.29891 51.5583 7.63965C51.5701 7.32241 51.5583 6.99342 51.5701 6.66443C52.3573 6.67618 53.1445 6.66443 53.9435 6.67618V17.0394C53.9317 18.6021 53.5323 20.2588 52.4043 21.3985C51.1706 22.6557 49.2789 23.0435 47.5752 22.785C45.754 22.5147 44.1678 21.187 43.4628 19.5068C44.1678 19.1661 44.908 18.8958 45.6365 18.5786C46.0477 19.5421 46.8819 20.3645 47.9277 20.5525C48.9734 20.7405 50.1836 20.482 50.8651 19.6126C51.5936 18.7196 51.5936 17.4976 51.5583 16.4049C51.0178 16.9336 50.3951 17.4036 49.6431 17.5799C48.0099 18.0381 46.2122 17.4741 44.955 16.3697C43.686 15.2652 42.9341 13.5615 43.0046 11.8695C43.0398 9.95433 44.1208 8.10964 45.754 7.11091ZM48.1862 8.61487C47.4694 8.73237 46.7997 9.13186 46.3415 9.68409C45.237 11.0001 45.237 13.1032 46.3532 14.3957C46.9877 15.1594 48.0099 15.5824 48.9969 15.4767C49.9251 15.3827 50.7828 14.7952 51.2411 13.9845C52.0166 12.6098 51.8873 10.7416 50.8416 9.54309C50.1954 8.80287 49.1614 8.43863 48.1862 8.61487Z" fill="white"/>
<path d="M61.2729 7.71113C62.6829 6.39517 64.8566 5.94868 66.666 6.64191C68.3815 7.28815 69.4742 8.92135 70.0264 10.6016C67.4768 11.659 64.9388 12.7047 62.3892 13.7622C62.7417 14.4319 63.2821 15.0429 64.0106 15.2897C65.0328 15.6539 66.2548 15.5247 67.1125 14.8432C67.4533 14.5847 67.7235 14.2439 67.982 13.915C68.6282 14.3497 69.2745 14.7727 69.9207 15.2074C69.0042 16.5821 67.465 17.5456 65.8083 17.6984C63.9754 17.9216 62.0249 17.2166 60.8382 15.7832C58.8878 13.5272 59.0758 9.74383 61.2729 7.71113ZM62.5302 9.88482C62.1307 10.4606 61.9662 11.1655 61.9779 11.8588C63.6816 11.1538 65.3853 10.4488 67.089 9.73208C66.807 9.0741 66.1256 8.67461 65.4323 8.56886C64.3161 8.36911 63.1529 8.96835 62.5302 9.88482Z" fill="white"/>
</g>
<defs>
<clipPath id="clip0_956_1668">
<rect width="72" height="24" fill="white"/>
</clipPath>
</defs>
</svg>
