<svg width="364" height="230" viewBox="0 0 364 230" fill="none" xmlns="http://www.w3.org/2000/svg">
<g clip-path="url(#clip0_402_2924)">
<g filter="url(#filter0_d_402_2924)">
<rect y="20" width="176" height="92" rx="12" fill="#3A3A3A"/>
<path fill-rule="evenodd" clip-rule="evenodd" d="M129.061 66.9645C129.061 61.103 126.243 56.4779 120.859 56.4779C115.451 56.4779 112.18 61.103 112.18 66.9187C112.18 73.8105 116.042 77.2908 121.586 77.2908C124.289 77.2908 126.334 76.6726 127.879 75.8025V71.2232C126.334 72.0017 124.562 72.4825 122.313 72.4825C120.109 72.4825 118.155 71.704 117.905 69.0022H129.015C129.015 68.7046 129.061 67.514 129.061 66.9645ZM117.837 64.7893C117.837 62.202 119.405 61.1259 120.836 61.1259C122.222 61.1259 123.699 62.202 123.699 64.7893H117.837Z" fill="#635BFF"/>
<path fill-rule="evenodd" clip-rule="evenodd" d="M103.411 56.4779C101.184 56.4779 99.7529 57.5311 98.9577 58.2638L98.6624 56.8442H93.664V83.5415L99.344 82.328L99.3667 75.8483C100.185 76.4436 101.389 77.2908 103.388 77.2908C107.455 77.2908 111.158 73.9937 111.158 66.7355C111.136 60.0955 107.387 56.4779 103.411 56.4779ZM102.048 72.2535C100.707 72.2535 99.912 71.7727 99.3667 71.1774L99.344 62.6828C99.9347 62.0188 100.753 61.5609 102.048 61.5609C104.115 61.5609 105.547 63.8963 105.547 66.8958C105.547 69.9639 104.138 72.2535 102.048 72.2535Z" fill="#635BFF"/>
<path fill-rule="evenodd" clip-rule="evenodd" d="M85.8476 55.127L91.5503 53.8906V49.2426L85.8476 50.4562V55.127Z" fill="#635BFF"/>
<path d="M91.5503 56.8672H85.8476V76.9016H91.5503V56.8672Z" fill="#635BFF"/>
<path fill-rule="evenodd" clip-rule="evenodd" d="M79.7358 58.5615L79.3723 56.8671H74.4648V76.9015H80.1448V63.3239C81.4852 61.5609 83.7572 61.8815 84.4615 62.1333V56.8671C83.7345 56.5924 81.0763 56.0887 79.7358 58.5615Z" fill="#635BFF"/>
<path fill-rule="evenodd" clip-rule="evenodd" d="M68.3749 51.8987L62.8313 53.0893L62.8085 71.4293C62.8085 74.818 65.3304 77.3137 68.693 77.3137C70.556 77.3137 71.9192 76.9703 72.669 76.5581V71.9102C71.9419 72.2078 68.3522 73.261 68.3522 69.8724V61.7441H72.669V56.8672H68.3522L68.3749 51.8987Z" fill="#635BFF"/>
<path fill-rule="evenodd" clip-rule="evenodd" d="M53.0176 62.6829C53.0176 61.7899 53.7446 61.4465 54.9488 61.4465C56.6755 61.4465 58.8566 61.9731 60.5833 62.9118V57.5312C58.6976 56.7756 56.8345 56.4779 54.9488 56.4779C50.3367 56.4779 47.2695 58.905 47.2695 62.9576C47.2695 69.2771 55.903 68.2696 55.903 70.9943C55.903 72.0475 54.9942 72.391 53.7219 72.391C51.8362 72.391 49.4279 71.6125 47.5194 70.5593V76.0086C49.6323 76.9245 51.768 77.3137 53.7219 77.3137C58.4477 77.3137 61.6966 74.9554 61.6966 70.8569C61.6739 64.0338 53.0176 65.2473 53.0176 62.6829Z" fill="#635BFF"/>
</g>
<g filter="url(#filter1_d_402_2924)">
<rect x="188" y="20" width="176" height="92" rx="12" fill="white"/>
<g clip-path="url(#clip1_402_2924)">
<path d="M262.36 57.0875H256.239C255.82 57.0875 255.463 57.3942 255.398 57.8109L252.922 73.629C252.873 73.941 253.113 74.2225 253.427 74.2225H256.349C256.768 74.2225 257.125 73.9158 257.19 73.4982L257.858 69.2318C257.922 68.8142 258.279 68.5075 258.697 68.5075H260.635C264.667 68.5075 266.994 66.5412 267.602 62.6446C267.876 60.9399 267.613 59.6004 266.821 58.6624C265.951 57.6323 264.408 57.0875 262.36 57.0875ZM263.066 62.8647C262.731 65.0782 261.053 65.0782 259.43 65.0782H258.507L259.155 60.9444C259.193 60.6945 259.408 60.5105 259.658 60.5105H260.082C261.187 60.5105 262.23 60.5105 262.769 61.1455C263.09 61.5244 263.188 62.0872 263.066 62.8647Z" fill="#253B80"/>
<path d="M280.657 62.7934H277.726C277.476 62.7934 277.26 62.9774 277.222 63.2273L277.092 64.0535L276.887 63.754C276.253 62.8259 274.838 62.5156 273.425 62.5156C270.186 62.5156 267.42 64.9879 266.881 68.456C266.601 70.186 266.999 71.8403 267.973 72.9939C268.866 74.0546 270.144 74.4966 271.665 74.4966C274.275 74.4966 275.722 72.8054 275.722 72.8054L275.591 73.6262C275.542 73.9401 275.782 74.2215 276.094 74.2215H278.735C279.154 74.2215 279.509 73.9148 279.575 73.4972L281.159 63.3869C281.209 63.0757 280.97 62.7934 280.657 62.7934ZM276.571 68.5426C276.288 70.2302 274.959 71.3631 273.264 71.3631C272.413 71.3631 271.733 71.088 271.296 70.5667C270.863 70.0489 270.698 69.312 270.836 68.4912C271.1 66.818 272.451 65.6482 274.121 65.6482C274.953 65.6482 275.63 65.9269 276.075 66.4527C276.522 66.984 276.699 67.7254 276.571 68.5426Z" fill="#253B80"/>
<path d="M296.268 62.7934H293.323C293.042 62.7934 292.778 62.9341 292.618 63.1695L288.556 69.2002L286.834 63.4049C286.725 63.0423 286.393 62.7934 286.017 62.7934H283.123C282.771 62.7934 282.527 63.1398 282.639 63.4735L285.883 73.0688L282.833 77.4082C282.593 77.7501 282.835 78.22 283.249 78.22H286.191C286.47 78.22 286.732 78.0829 286.89 77.852L296.687 63.6007C296.921 63.2597 296.681 62.7934 296.268 62.7934Z" fill="#253B80"/>
<path d="M306.022 57.0875H299.9C299.482 57.0875 299.126 57.3942 299.06 57.8109L296.585 73.629C296.535 73.941 296.775 74.2225 297.088 74.2225H300.229C300.521 74.2225 300.771 74.0078 300.816 73.7156L301.519 69.2318C301.583 68.8142 301.94 68.5075 302.358 68.5075H304.295C308.328 68.5075 310.654 66.5412 311.263 62.6446C311.538 60.9399 311.274 59.6004 310.482 58.6624C309.613 57.6323 308.07 57.0875 306.022 57.0875ZM306.728 62.8647C306.394 65.0782 304.716 65.0782 303.092 65.0782H302.17L302.818 60.9444C302.857 60.6945 303.07 60.5105 303.321 60.5105H303.745C304.849 60.5105 305.893 60.5105 306.432 61.1455C306.753 61.5244 306.851 62.0872 306.728 62.8647Z" fill="#179BD7"/>
<path d="M324.317 62.7934H321.388C321.136 62.7934 320.922 62.9774 320.885 63.2273L320.755 64.0535L320.549 63.754C319.914 62.8259 318.5 62.5156 317.088 62.5156C313.849 62.5156 311.083 64.988 310.544 68.4561C310.265 70.1861 310.662 71.8403 311.636 72.9939C312.531 74.0547 313.807 74.4966 315.327 74.4966C317.937 74.4966 319.385 72.8054 319.385 72.8054L319.254 73.6262C319.205 73.9401 319.445 74.2215 319.759 74.2215H322.398C322.816 74.2215 323.172 73.9149 323.238 73.4973L324.823 63.3869C324.871 63.0758 324.631 62.7934 324.317 62.7934ZM320.231 68.5427C319.95 70.2303 318.619 71.3632 316.924 71.3632C316.075 71.3632 315.393 71.0881 314.956 70.5667C314.523 70.049 314.36 69.3121 314.496 68.4913C314.762 66.8181 316.112 65.6482 317.781 65.6482C318.613 65.6482 319.29 65.9269 319.735 66.4528C320.184 66.984 320.361 67.7255 320.231 68.5427Z" fill="#179BD7"/>
<path d="M327.773 57.5213L325.26 73.6289C325.211 73.941 325.451 74.2224 325.763 74.2224H328.289C328.709 74.2224 329.065 73.9157 329.13 73.4981L331.607 57.681C331.656 57.3689 331.416 57.0865 331.104 57.0865H328.276C328.026 57.0874 327.811 57.2715 327.773 57.5213Z" fill="#179BD7"/>
<path d="M227.503 77.2963L227.971 74.2999L226.928 74.2756H221.949L225.409 52.1653C225.42 52.0986 225.455 52.0363 225.506 51.9921C225.557 51.9479 225.622 51.9236 225.69 51.9236H234.086C236.873 51.9236 238.796 52.5081 239.801 53.6617C240.271 54.2029 240.571 54.7684 240.716 55.3908C240.868 56.0438 240.871 56.8241 240.722 57.7756L240.712 57.8451V58.4548L241.182 58.7236C241.579 58.9356 241.894 59.1782 242.136 59.456C242.538 59.9187 242.799 60.5068 242.909 61.2041C243.023 61.9211 242.985 62.7744 242.799 63.7404C242.584 64.8517 242.237 65.8195 241.768 66.6115C241.336 67.3412 240.787 67.9464 240.134 68.4154C239.511 68.861 238.771 69.1992 237.934 69.4157C237.123 69.6286 236.199 69.7359 235.185 69.7359H234.531C234.064 69.7359 233.611 69.9055 233.254 70.2095C232.897 70.5197 232.661 70.9437 232.588 71.4073L232.539 71.677L231.712 76.9581L231.675 77.152C231.665 77.2133 231.648 77.244 231.623 77.2648C231.6 77.2837 231.568 77.2963 231.537 77.2963H227.503Z" fill="#253B80"/>
<path d="M241.629 57.9155C241.604 58.077 241.575 58.242 241.543 58.4116C240.436 64.1401 236.648 66.119 231.81 66.119H229.347C228.756 66.119 228.257 66.552 228.165 67.1401L226.904 75.2002L226.547 77.4849C226.487 77.871 226.782 78.2191 227.169 78.2191H231.537C232.055 78.2191 232.494 77.8403 232.576 77.3262L232.619 77.1025L233.441 71.8421L233.494 71.5535C233.575 71.0376 234.015 70.6587 234.532 70.6587H235.186C239.418 70.6587 242.732 68.9269 243.7 63.9155C244.105 61.822 243.895 60.074 242.825 58.8446C242.501 58.4739 242.099 58.1663 241.629 57.9155Z" fill="#179BD7"/>
<path d="M240.47 57.45C240.301 57.4004 240.126 57.3553 239.947 57.3147C239.767 57.2751 239.583 57.2399 239.393 57.2092C238.729 57.101 238.001 57.0496 237.222 57.0496H230.641C230.479 57.0496 230.326 57.0865 230.188 57.1533C229.884 57.3003 229.659 57.5898 229.604 57.9443L228.204 66.8794L228.164 67.14C228.256 66.5519 228.755 66.119 229.346 66.119H231.81C236.647 66.119 240.435 64.1391 241.542 58.4116C241.575 58.242 241.603 58.0769 241.628 57.9155C241.348 57.7657 241.044 57.6377 240.718 57.5285C240.637 57.5015 240.554 57.4753 240.47 57.45Z" fill="#222D65"/>
<path d="M229.605 57.9444C229.659 57.5899 229.885 57.3003 230.188 57.1542C230.327 57.0875 230.48 57.0505 230.642 57.0505H237.222C238.002 57.0505 238.73 57.1019 239.394 57.2101C239.583 57.2408 239.768 57.276 239.948 57.3157C240.127 57.3563 240.301 57.4014 240.47 57.451C240.555 57.4762 240.638 57.5024 240.719 57.5285C241.046 57.6377 241.349 57.7667 241.629 57.9155C241.959 55.7985 241.627 54.3572 240.491 53.052C239.239 51.6152 236.979 51 234.087 51H225.692C225.101 51 224.597 51.433 224.506 52.0219L221.009 74.3595C220.94 74.8015 221.278 75.2002 221.72 75.2002H226.904L228.205 66.8794L229.605 57.9444Z" fill="#253B80"/>
</g>
</g>
<circle cx="182" cy="155" r="55" fill="#E6FE51"/>
<path d="M160.866 137.675C164.296 137.675 166.751 138.424 168.231 139.922C169.712 141.421 170.452 143.533 170.452 146.258V149.101C170.452 152.134 169.676 154.481 168.123 156.141C166.571 157.802 164.188 158.632 160.975 158.632C158.845 158.632 157.112 158.317 155.776 157.685C154.458 157.053 153.511 156.25 152.933 155.275C152.355 154.282 152.066 153.226 152.066 152.107H156.182C156.182 153.046 156.561 153.831 157.319 154.463C158.096 155.076 159.332 155.383 161.029 155.383C162.744 155.383 164.062 154.914 164.982 153.975C165.903 153.018 166.363 151.61 166.363 149.751V148.668H166.309C165.623 149.426 164.775 150.004 163.764 150.401C162.771 150.798 161.471 150.997 159.865 150.997C157.843 150.997 156.2 150.699 154.937 150.103C153.691 149.508 152.798 148.74 152.256 147.802C151.733 146.863 151.471 145.852 151.471 144.769C151.471 142.675 152.22 140.969 153.718 139.652C155.216 138.334 157.599 137.675 160.866 137.675ZM160.948 140.951C159.016 140.951 157.644 141.33 156.832 142.088C156.02 142.847 155.614 143.74 155.614 144.769C155.614 145.762 156.002 146.619 156.778 147.341C157.572 148.045 158.953 148.397 160.921 148.397C162.726 148.397 164.071 148.063 164.955 147.396C165.84 146.71 166.282 145.843 166.282 144.796C166.282 144.092 166.083 143.451 165.686 142.874C165.289 142.296 164.684 141.836 163.872 141.493C163.078 141.132 162.103 140.951 160.948 140.951ZM182.179 137.675C185.609 137.675 188.064 138.424 189.544 139.922C191.024 141.421 191.764 143.533 191.764 146.258V149.101C191.764 152.134 190.988 154.481 189.436 156.141C187.883 157.802 185.5 158.632 182.287 158.632C180.157 158.632 178.424 158.317 177.089 157.685C175.771 157.053 174.823 156.25 174.245 155.275C173.668 154.282 173.379 153.226 173.379 152.107H177.495C177.495 153.046 177.874 153.831 178.632 154.463C179.408 155.076 180.645 155.383 182.341 155.383C184.056 155.383 185.374 154.914 186.295 153.975C187.215 153.018 187.676 151.61 187.676 149.751V148.668H187.621C186.936 149.426 186.087 150.004 185.076 150.401C184.083 150.798 182.784 150.997 181.177 150.997C179.155 150.997 177.513 150.699 176.249 150.103C175.004 149.508 174.11 148.74 173.569 147.802C173.045 146.863 172.783 145.852 172.783 144.769C172.783 142.675 173.532 140.969 175.031 139.652C176.529 138.334 178.912 137.675 182.179 137.675ZM182.26 140.951C180.329 140.951 178.957 141.33 178.145 142.088C177.332 142.847 176.926 143.74 176.926 144.769C176.926 145.762 177.314 146.619 178.09 147.341C178.885 148.045 180.266 148.397 182.233 148.397C184.038 148.397 185.383 148.063 186.268 147.396C187.152 146.71 187.594 145.843 187.594 144.796C187.594 144.092 187.396 143.451 186.999 142.874C186.602 142.296 185.997 141.836 185.185 141.493C184.39 141.132 183.416 140.951 182.26 140.951ZM213.591 152.567C213.591 154.372 212.923 155.78 211.587 156.791C210.252 157.802 208.311 158.398 205.766 158.578V161.476H201.813V158.524C199.213 158.253 197.264 157.513 195.964 156.304C194.664 155.094 193.987 153.578 193.933 151.755H198.211C198.284 154.192 200.233 155.41 204.06 155.41C205.811 155.41 207.102 155.185 207.932 154.733C208.762 154.264 209.178 153.569 209.178 152.648C209.178 151.999 209.024 151.493 208.717 151.132C208.41 150.753 207.842 150.437 207.011 150.184C206.181 149.932 204.909 149.679 203.194 149.426C200.973 149.101 199.24 148.677 197.995 148.154C196.767 147.612 195.901 146.953 195.395 146.177C194.908 145.383 194.664 144.408 194.664 143.253C194.664 141.773 195.242 140.536 196.397 139.543C197.571 138.55 199.376 137.955 201.813 137.756V134.859H205.766V137.783C208.167 138.054 209.972 138.776 211.181 139.949C212.391 141.105 213.059 142.594 213.185 144.417H209.096C208.862 142.07 207.084 140.897 203.762 140.897C202.138 140.897 200.946 141.123 200.188 141.574C199.448 142.007 199.078 142.594 199.078 143.334V143.361C199.078 143.885 199.204 144.327 199.457 144.688C199.728 145.031 200.215 145.329 200.919 145.581C201.623 145.816 202.652 146.024 204.006 146.204C206.605 146.547 208.6 147.016 209.99 147.612C211.38 148.19 212.328 148.876 212.833 149.67C213.338 150.446 213.591 151.412 213.591 152.567Z" fill="#1A1A1A"/>
<path d="M167.082 177.407H165.15V175.097H162.658V173.375H165.15V171.079H167.082V173.375H169.574V175.097H167.082V177.407ZM174.932 179.199L170.368 168.797H172.846L176.346 177.323L176.444 177.589H176.472L176.57 177.323L180.056 168.797H182.534L177.956 179.199H174.932ZM193.446 179.199H190.968L190.002 176.847H184.668L183.688 179.199H181.21L185.816 168.797H188.812L193.446 179.199ZM187.146 170.855L185.34 175.223H189.33L187.524 170.855L187.342 170.337H187.314L187.146 170.855ZM198.502 179.199H196.234V170.547H192.16V168.797H202.59V170.547H198.502V179.199Z" fill="#1A1A1A"/>
</g>
<defs>
<filter id="filter0_d_402_2924" x="-52" y="-5" width="280" height="196" filterUnits="userSpaceOnUse" color-interpolation-filters="sRGB">
<feFlood flood-opacity="0" result="BackgroundImageFix"/>
<feColorMatrix in="SourceAlpha" type="matrix" values="0 0 0 0 0 0 0 0 0 0 0 0 0 0 0 0 0 0 127 0" result="hardAlpha"/>
<feOffset dy="27"/>
<feGaussianBlur stdDeviation="26"/>
<feComposite in2="hardAlpha" operator="out"/>
<feColorMatrix type="matrix" values="0 0 0 0 0 0 0 0 0 0 0 0 0 0 0 0 0 0 0.07 0"/>
<feBlend mode="normal" in2="BackgroundImageFix" result="effect1_dropShadow_402_2924"/>
<feBlend mode="normal" in="SourceGraphic" in2="effect1_dropShadow_402_2924" result="shape"/>
</filter>
<filter id="filter1_d_402_2924" x="136" y="-5" width="280" height="196" filterUnits="userSpaceOnUse" color-interpolation-filters="sRGB">
<feFlood flood-opacity="0" result="BackgroundImageFix"/>
<feColorMatrix in="SourceAlpha" type="matrix" values="0 0 0 0 0 0 0 0 0 0 0 0 0 0 0 0 0 0 127 0" result="hardAlpha"/>
<feOffset dy="27"/>
<feGaussianBlur stdDeviation="26"/>
<feComposite in2="hardAlpha" operator="out"/>
<feColorMatrix type="matrix" values="0 0 0 0 0 0 0 0 0 0 0 0 0 0 0 0 0 0 0.07 0"/>
<feBlend mode="normal" in2="BackgroundImageFix" result="effect1_dropShadow_402_2924"/>
<feBlend mode="normal" in="SourceGraphic" in2="effect1_dropShadow_402_2924" result="shape"/>
</filter>
<clipPath id="clip0_402_2924">
<rect width="364" height="230" fill="white"/>
</clipPath>
<clipPath id="clip1_402_2924">
<rect width="110.983" height="29.7654" fill="white" transform="translate(221 51)"/>
</clipPath>
</defs>
</svg>
