<svg width="364" height="230" viewBox="0 0 364 230" fill="none" xmlns="http://www.w3.org/2000/svg">
<rect opacity="0.4" y="12" width="82" height="60" rx="7" fill="#E6FE51"/>
<rect opacity="0.6" x="94" y="12" width="82" height="82" rx="7" fill="#E6FE51"/>
<rect opacity="0.8" x="188" y="12" width="82" height="100" rx="7" fill="#E6FE51"/>
<rect x="282" y="12" width="82" height="150" rx="7" fill="#E6FE51"/>
<rect x="71" y="102" width="221" height="60" rx="12" fill="#595959"/>
<path d="M89.496 125.224C87.648 125.224 86.2013 124.762 85.156 123.838C84.12 122.905 83.602 121.575 83.602 119.848V119.75C83.602 118.602 83.8353 117.631 84.302 116.838C84.778 116.035 85.4547 115.429 86.332 115.018C87.2187 114.598 88.2733 114.388 89.496 114.388C90.6253 114.388 91.6147 114.57 92.464 114.934C93.3227 115.289 93.99 115.788 94.466 116.432C94.9513 117.076 95.2267 117.809 95.292 118.63V118.658H93.08V118.644C93.0147 118.159 92.8233 117.725 92.506 117.342C92.198 116.959 91.7873 116.665 91.274 116.46C90.7607 116.245 90.1773 116.138 89.524 116.138C88.404 116.138 87.5173 116.446 86.864 117.062C86.22 117.678 85.898 118.565 85.898 119.722V119.89C85.898 121.038 86.22 121.925 86.864 122.55C87.5173 123.166 88.404 123.474 89.524 123.474C90.5227 123.474 91.3487 123.255 92.002 122.816C92.6553 122.368 93.024 121.747 93.108 120.954V120.926H95.32V120.954C95.264 121.785 94.9933 122.522 94.508 123.166C94.0227 123.81 93.3507 124.314 92.492 124.678C91.6427 125.042 90.644 125.224 89.496 125.224ZM101.143 116.516C102.328 116.516 103.252 116.689 103.915 117.034C104.577 117.37 105.03 117.823 105.273 118.392C105.525 118.952 105.651 119.624 105.651 120.408V125H103.607V123.922L103.691 123.054H103.663C103.355 123.735 102.879 124.267 102.235 124.65C101.591 125.033 100.844 125.224 99.9946 125.224C98.7066 125.224 97.7966 124.953 97.2646 124.412C96.7419 123.871 96.4806 123.222 96.4806 122.466C96.4806 121.673 96.7746 121.029 97.3626 120.534C97.9599 120.03 98.9446 119.778 100.317 119.778C100.951 119.778 101.567 119.829 102.165 119.932C102.762 120.035 103.243 120.151 103.607 120.282V119.96C103.588 118.597 102.748 117.916 101.087 117.916C100.331 117.916 99.7706 118.061 99.4066 118.35C99.0426 118.63 98.8372 118.989 98.7906 119.428H96.7886C96.8912 118.616 97.2646 117.93 97.9086 117.37C98.5526 116.801 99.6306 116.516 101.143 116.516ZM100.541 123.698C101.39 123.698 102.067 123.488 102.571 123.068C103.075 122.639 103.397 122.139 103.537 121.57C103.191 121.421 102.762 121.304 102.249 121.22C101.735 121.127 101.25 121.08 100.793 121.08C99.9526 121.08 99.3599 121.206 99.0146 121.458C98.6786 121.701 98.5106 122.013 98.5106 122.396C98.5106 122.769 98.6692 123.082 98.9866 123.334C99.3039 123.577 99.8219 123.698 100.541 123.698ZM107.814 125V116.74H109.858V117.734L109.774 118.714H109.802C110.101 118.051 110.558 117.519 111.174 117.118C111.799 116.717 112.518 116.516 113.33 116.516C114.254 116.516 114.973 116.721 115.486 117.132C116.009 117.543 116.363 118.065 116.55 118.7H116.578C116.895 118.037 117.376 117.51 118.02 117.118C118.664 116.717 119.378 116.516 120.162 116.516C121.161 116.516 121.907 116.745 122.402 117.202C122.897 117.659 123.209 118.173 123.34 118.742C123.471 119.302 123.536 119.89 123.536 120.506V125H121.478V120.814C121.478 119.069 120.778 118.196 119.378 118.196C118.827 118.196 118.347 118.341 117.936 118.63C117.525 118.91 117.213 119.274 116.998 119.722C116.793 120.161 116.69 120.613 116.69 121.08V125H114.646V120.73C114.646 120.058 114.492 119.47 114.184 118.966C113.885 118.453 113.33 118.196 112.518 118.196C111.977 118.196 111.505 118.345 111.104 118.644C110.703 118.933 110.395 119.302 110.18 119.75C109.965 120.198 109.858 120.651 109.858 121.108V125H107.814ZM131.143 116.516C132.487 116.516 133.513 116.908 134.223 117.692C134.932 118.467 135.287 119.517 135.287 120.842V120.912C135.287 121.752 135.128 122.499 134.811 123.152C134.493 123.796 134.022 124.305 133.397 124.678C132.781 125.042 132.029 125.224 131.143 125.224C130.368 125.224 129.691 125.061 129.113 124.734C128.534 124.407 128.086 123.936 127.769 123.32H127.713L127.755 124.3V127.52H125.711V116.74H127.755V117.468L127.713 118.42H127.769C128.067 117.813 128.511 117.347 129.099 117.02C129.696 116.684 130.377 116.516 131.143 116.516ZM133.229 120.856C133.229 120.081 133.009 119.428 132.571 118.896C132.132 118.364 131.46 118.098 130.555 118.098C129.929 118.098 129.407 118.224 128.987 118.476C128.567 118.728 128.254 119.064 128.049 119.484C127.853 119.895 127.755 120.338 127.755 120.814V120.94C127.755 121.416 127.848 121.859 128.035 122.27C128.231 122.671 128.534 123.003 128.945 123.264C129.365 123.516 129.901 123.642 130.555 123.642C131.46 123.642 132.132 123.376 132.571 122.844C133.009 122.312 133.229 121.654 133.229 120.87V120.856ZM141.092 116.516C142.277 116.516 143.201 116.689 143.864 117.034C144.526 117.37 144.979 117.823 145.222 118.392C145.474 118.952 145.6 119.624 145.6 120.408V125H143.556V123.922L143.64 123.054H143.612C143.304 123.735 142.828 124.267 142.184 124.65C141.54 125.033 140.793 125.224 139.944 125.224C138.656 125.224 137.746 124.953 137.214 124.412C136.691 123.871 136.43 123.222 136.43 122.466C136.43 121.673 136.724 121.029 137.312 120.534C137.909 120.03 138.894 119.778 140.266 119.778C140.9 119.778 141.516 119.829 142.114 119.932C142.711 120.035 143.192 120.151 143.556 120.282V119.96C143.537 118.597 142.697 117.916 141.036 117.916C140.28 117.916 139.72 118.061 139.356 118.35C138.992 118.63 138.786 118.989 138.74 119.428H136.738C136.84 118.616 137.214 117.93 137.858 117.37C138.502 116.801 139.58 116.516 141.092 116.516ZM140.49 123.698C141.339 123.698 142.016 123.488 142.52 123.068C143.024 122.639 143.346 122.139 143.486 121.57C143.14 121.421 142.711 121.304 142.198 121.22C141.684 121.127 141.199 121.08 140.742 121.08C139.902 121.08 139.309 121.206 138.964 121.458C138.628 121.701 138.46 122.013 138.46 122.396C138.46 122.769 138.618 123.082 138.936 123.334C139.253 123.577 139.771 123.698 140.49 123.698ZM148.799 115.564C147.95 115.564 147.525 115.228 147.525 114.556C147.525 114.22 147.633 113.968 147.847 113.8C148.062 113.632 148.379 113.548 148.799 113.548C149.649 113.548 150.073 113.884 150.073 114.556C150.073 115.228 149.649 115.564 148.799 115.564ZM149.807 125H147.763V116.74H149.807V125ZM159.041 116.74H161.099V123.376C161.099 124.813 160.693 125.901 159.881 126.638C159.069 127.375 157.874 127.744 156.297 127.744C154.804 127.744 153.502 127.539 152.391 127.128L152.573 125.644C153.049 125.831 153.604 125.971 154.239 126.064C154.874 126.167 155.466 126.218 156.017 126.218C156.969 126.218 157.706 126.017 158.229 125.616C158.761 125.215 159.041 124.645 159.069 123.908L159.083 123.6L159.097 122.872L159.069 122.844C158.733 123.479 158.276 123.959 157.697 124.286C157.128 124.613 156.446 124.776 155.653 124.776C154.766 124.776 154.01 124.599 153.385 124.244C152.769 123.889 152.302 123.404 151.985 122.788C151.677 122.172 151.523 121.477 151.523 120.702V120.632C151.523 119.82 151.682 119.106 151.999 118.49C152.316 117.874 152.783 117.393 153.399 117.048C154.015 116.693 154.766 116.516 155.653 116.516C156.437 116.516 157.128 116.684 157.725 117.02C158.322 117.347 158.766 117.809 159.055 118.406H159.111L159.041 117.454V116.74ZM156.255 123.18C156.89 123.18 157.417 123.059 157.837 122.816C158.257 122.564 158.565 122.247 158.761 121.864C158.957 121.481 159.055 121.089 159.055 120.688V120.632C159.055 120.249 158.952 119.862 158.747 119.47C158.551 119.078 158.243 118.751 157.823 118.49C157.403 118.229 156.876 118.098 156.241 118.098C155.634 118.098 155.13 118.224 154.729 118.476C154.328 118.719 154.034 119.036 153.847 119.428C153.66 119.811 153.567 120.217 153.567 120.646V120.702C153.567 121.421 153.782 122.013 154.211 122.48C154.65 122.947 155.331 123.18 156.255 123.18ZM169.018 116.516C170.222 116.516 171.156 116.843 171.818 117.496C172.49 118.14 172.826 119.143 172.826 120.506V125H170.768V120.744C170.768 119.045 169.966 118.196 168.36 118.196C167.716 118.196 167.175 118.341 166.736 118.63C166.298 118.91 165.971 119.279 165.756 119.736C165.542 120.193 165.434 120.679 165.434 121.192V125H163.39V116.74H165.434V117.734L165.35 118.714H165.378C165.696 118.023 166.158 117.487 166.764 117.104C167.371 116.712 168.122 116.516 169.018 116.516ZM182.682 116.586C182.243 116.857 181.725 117.095 181.128 117.3C180.54 117.496 179.91 117.636 179.238 117.72V116.012C179.966 115.9 180.643 115.723 181.268 115.48C181.893 115.237 182.43 114.943 182.878 114.598H184.712V125H182.682V116.586Z" fill="white"/>
<g clip-path="url(#clip0_402_3056)">
<path d="M202.5 120L204.167 121.667L207.5 118.333" stroke="#55BC3B" stroke-width="1.25" stroke-linecap="round" stroke-linejoin="round"/>
<circle cx="205" cy="120" r="7.70833" stroke="#55BC3B" stroke-width="1.25"/>
</g>
<rect x="240" y="110" width="40" height="20" rx="10" fill="#0E86F4"/>
<path d="M262 120C262 115.582 265.582 112 270 112C274.418 112 278 115.582 278 120C278 124.418 274.418 128 270 128C265.582 128 262 124.418 262 120Z" fill="white"/>
<path d="M86.012 142.788C85.636 143.02 85.192 143.224 84.68 143.4C84.176 143.568 83.636 143.688 83.06 143.76V142.296C83.684 142.2 84.264 142.048 84.8 141.84C85.336 141.632 85.796 141.38 86.18 141.084H87.752V150H86.012V142.788ZM89.4225 148.572C89.8545 148.268 90.5585 147.836 91.5345 147.276C92.4145 146.764 93.1265 146.328 93.6705 145.968C94.2145 145.608 94.6745 145.224 95.0505 144.816C95.4345 144.4 95.6265 143.984 95.6265 143.568C95.6185 143.2 95.4305 142.904 95.0625 142.68C94.6945 142.448 94.1905 142.332 93.5505 142.332C92.6785 142.332 92.0865 142.488 91.7745 142.8C91.4625 143.104 91.3065 143.524 91.3065 144.06H89.4825C89.4825 143.092 89.8025 142.324 90.4425 141.756C91.0905 141.188 92.1305 140.904 93.5625 140.904C94.3785 140.904 95.0865 141.008 95.6865 141.216C96.2945 141.416 96.7585 141.712 97.0785 142.104C97.4065 142.488 97.5705 142.944 97.5705 143.472C97.5705 144.088 97.3425 144.672 96.8865 145.224C96.4385 145.768 95.9105 146.244 95.3025 146.652C94.6945 147.06 93.9545 147.504 93.0825 147.984C92.7305 148.176 92.4185 148.356 92.1465 148.524H97.5705V150H89.4225V148.572ZM103.374 150.192C101.822 150.192 100.638 149.796 99.822 149.004C99.006 148.204 98.598 147.064 98.598 145.584V145.5C98.598 144.02 99.006 142.884 99.822 142.092C100.638 141.3 101.822 140.904 103.374 140.904C104.934 140.904 106.122 141.3 106.938 142.092C107.754 142.884 108.162 144.02 108.162 145.5V145.584C108.162 147.064 107.754 148.204 106.938 149.004C106.122 149.796 104.934 150.192 103.374 150.192ZM103.374 148.704C104.294 148.704 104.994 148.436 105.474 147.9C105.962 147.364 106.206 146.604 106.206 145.62V145.476C106.206 144.492 105.962 143.736 105.474 143.208C104.994 142.672 104.294 142.404 103.374 142.404C102.454 142.404 101.75 142.668 101.262 143.196C100.782 143.724 100.542 144.484 100.542 145.476V145.62C100.542 146.612 100.782 147.376 101.262 147.912C101.75 148.44 102.454 148.704 103.374 148.704ZM114.374 150V141.084H119.366C120.63 141.084 121.562 141.312 122.162 141.768C122.77 142.216 123.074 142.852 123.074 143.676V143.688C123.074 144.312 122.894 144.828 122.534 145.236C122.174 145.636 121.674 145.896 121.034 146.016V146.028C121.506 146.132 121.866 146.324 122.114 146.604C122.362 146.884 122.538 147.312 122.642 147.888L122.774 148.632C122.886 149.176 123.03 149.632 123.206 150H121.202C121.098 149.768 120.978 149.324 120.842 148.668L120.686 147.9C120.614 147.54 120.43 147.28 120.134 147.12C119.838 146.952 119.358 146.868 118.694 146.868H116.306V150H114.374ZM119.186 145.404C119.802 145.404 120.278 145.284 120.614 145.044C120.958 144.796 121.13 144.42 121.13 143.916V143.892C121.13 143.476 120.982 143.156 120.686 142.932C120.39 142.7 119.934 142.584 119.318 142.584H116.306V145.404H119.186ZM132.34 146.868H125.944C126.008 147.508 126.244 147.996 126.652 148.332C127.06 148.66 127.6 148.824 128.272 148.824C128.952 148.824 129.476 148.708 129.844 148.476C130.22 148.244 130.452 147.924 130.54 147.516H132.28C132.176 148.324 131.784 148.972 131.104 149.46C130.432 149.948 129.48 150.192 128.248 150.192C127.424 150.192 126.704 150.048 126.088 149.76C125.472 149.464 124.996 149.036 124.66 148.476C124.332 147.908 124.168 147.228 124.168 146.436V146.34C124.168 145.596 124.336 144.952 124.672 144.408C125.008 143.864 125.484 143.448 126.1 143.16C126.716 142.872 127.44 142.728 128.272 142.728C129.576 142.728 130.58 143.048 131.284 143.688C131.988 144.32 132.34 145.208 132.34 146.352V146.868ZM128.272 144.096C127.64 144.096 127.124 144.24 126.724 144.528C126.332 144.816 126.084 145.236 125.98 145.788H130.6C130.528 145.276 130.296 144.868 129.904 144.564C129.512 144.252 128.968 144.096 128.272 144.096ZM137.305 142.728C138.321 142.728 139.113 142.876 139.681 143.172C140.249 143.46 140.637 143.848 140.845 144.336C141.061 144.816 141.169 145.392 141.169 146.064V150H139.417V149.076L139.489 148.332H139.465C139.201 148.916 138.793 149.372 138.241 149.7C137.689 150.028 137.049 150.192 136.321 150.192C135.217 150.192 134.437 149.96 133.981 149.496C133.533 149.032 133.309 148.476 133.309 147.828C133.309 147.148 133.561 146.596 134.065 146.172C134.577 145.74 135.421 145.524 136.597 145.524C137.141 145.524 137.669 145.568 138.181 145.656C138.693 145.744 139.105 145.844 139.417 145.956V145.68C139.401 144.512 138.681 143.928 137.257 143.928C136.609 143.928 136.129 144.052 135.817 144.3C135.505 144.54 135.329 144.848 135.289 145.224H133.573C133.661 144.528 133.981 143.94 134.533 143.46C135.085 142.972 136.009 142.728 137.305 142.728ZM136.789 148.884C137.517 148.884 138.097 148.704 138.529 148.344C138.961 147.976 139.237 147.548 139.357 147.06C139.061 146.932 138.693 146.832 138.253 146.76C137.813 146.68 137.397 146.64 137.005 146.64C136.285 146.64 135.777 146.748 135.481 146.964C135.193 147.172 135.049 147.44 135.049 147.768C135.049 148.088 135.185 148.356 135.457 148.572C135.729 148.78 136.173 148.884 136.789 148.884ZM146.671 150.192C145.823 150.192 145.087 150.048 144.463 149.76C143.839 149.464 143.359 149.04 143.023 148.488C142.687 147.928 142.519 147.26 142.519 146.484V146.412C142.519 145.644 142.687 144.984 143.023 144.432C143.359 143.88 143.839 143.46 144.463 143.172C145.087 142.876 145.823 142.728 146.671 142.728C147.855 142.728 148.791 142.984 149.479 143.496C150.167 144 150.551 144.704 150.631 145.608H148.855C148.783 145.152 148.555 144.788 148.171 144.516C147.787 144.236 147.279 144.096 146.647 144.096C145.943 144.096 145.371 144.304 144.931 144.72C144.499 145.128 144.283 145.7 144.283 146.436V146.472C144.283 147.224 144.499 147.804 144.931 148.212C145.371 148.62 145.947 148.824 146.659 148.824C147.307 148.824 147.815 148.684 148.183 148.404C148.559 148.124 148.787 147.756 148.867 147.3H150.643C150.563 148.212 150.179 148.924 149.491 149.436C148.803 149.94 147.863 150.192 146.671 150.192ZM156.883 142.728C157.963 142.728 158.775 143 159.319 143.544C159.863 144.088 160.135 144.952 160.135 146.136V150H158.371V146.34C158.371 144.892 157.691 144.168 156.331 144.168C155.771 144.168 155.299 144.292 154.915 144.54C154.539 144.788 154.259 145.108 154.075 145.5C153.891 145.892 153.799 146.304 153.799 146.736V150H152.047V140.82H153.799V143.784L153.715 144.6H153.751C154.031 143.992 154.439 143.528 154.975 143.208C155.519 142.888 156.155 142.728 156.883 142.728Z" fill="#949494"/>
<path d="M176.692 150.192C175.348 150.192 174.316 149.968 173.596 149.52C172.876 149.064 172.516 148.392 172.516 147.504V147.48C172.516 146.936 172.676 146.476 172.996 146.1C173.316 145.724 173.804 145.444 174.46 145.26V145.212C173.372 144.844 172.828 144.188 172.828 143.244C172.828 142.532 173.152 141.964 173.8 141.54C174.456 141.116 175.42 140.904 176.692 140.904C177.956 140.904 178.916 141.116 179.572 141.54C180.236 141.956 180.568 142.524 180.568 143.244C180.568 143.708 180.432 144.108 180.16 144.444C179.888 144.78 179.48 145.036 178.936 145.212V145.26C180.224 145.612 180.868 146.352 180.868 147.48V147.504C180.868 148.392 180.508 149.064 179.788 149.52C179.068 149.968 178.036 150.192 176.692 150.192ZM176.692 144.624C177.34 144.624 177.828 144.52 178.156 144.312C178.484 144.104 178.648 143.8 178.648 143.4C178.648 143.024 178.48 142.736 178.144 142.536C177.816 142.336 177.332 142.236 176.692 142.236C176.052 142.236 175.564 142.336 175.228 142.536C174.892 142.736 174.724 143.024 174.724 143.4C174.724 143.8 174.888 144.104 175.216 144.312C175.552 144.52 176.044 144.624 176.692 144.624ZM176.692 148.8C177.404 148.8 177.952 148.68 178.336 148.44C178.72 148.2 178.912 147.856 178.912 147.408V147.384C178.912 146.888 178.72 146.52 178.336 146.28C177.952 146.032 177.404 145.908 176.692 145.908C175.98 145.908 175.432 146.032 175.048 146.28C174.664 146.528 174.472 146.896 174.472 147.384V147.408C174.472 147.856 174.664 148.2 175.048 148.44C175.432 148.68 175.98 148.8 176.692 148.8ZM189.017 150H187.085V141.084H189.017V150ZM191.136 150V142.92H192.888V143.772L192.816 144.612H192.84C193.096 144.044 193.488 143.588 194.016 143.244C194.552 142.9 195.168 142.728 195.864 142.728C196.656 142.728 197.272 142.904 197.712 143.256C198.16 143.608 198.464 144.056 198.624 144.6H198.648C198.92 144.032 199.332 143.58 199.884 143.244C200.436 142.9 201.048 142.728 201.72 142.728C202.576 142.728 203.216 142.924 203.64 143.316C204.064 143.708 204.332 144.148 204.444 144.636C204.556 145.116 204.612 145.62 204.612 146.148V150H202.848V146.412C202.848 144.916 202.248 144.168 201.048 144.168C200.576 144.168 200.164 144.292 199.812 144.54C199.46 144.78 199.192 145.092 199.008 145.476C198.832 145.852 198.744 146.24 198.744 146.64V150H196.992V146.34C196.992 145.764 196.86 145.26 196.596 144.828C196.34 144.388 195.864 144.168 195.168 144.168C194.704 144.168 194.3 144.296 193.956 144.552C193.612 144.8 193.348 145.116 193.164 145.5C192.98 145.884 192.888 146.272 192.888 146.664V150H191.136ZM211.132 142.728C212.284 142.728 213.164 143.064 213.772 143.736C214.38 144.4 214.684 145.3 214.684 146.436V146.496C214.684 147.216 214.548 147.856 214.276 148.416C214.004 148.968 213.6 149.404 213.064 149.724C212.536 150.036 211.892 150.192 211.132 150.192C210.468 150.192 209.888 150.052 209.392 149.772C208.896 149.492 208.512 149.088 208.24 148.56H208.192L208.228 149.4V152.16H206.476V142.92H208.228V143.544L208.192 144.36H208.24C208.496 143.84 208.876 143.44 209.38 143.16C209.892 142.872 210.476 142.728 211.132 142.728ZM212.92 146.448C212.92 145.784 212.732 145.224 212.356 144.768C211.98 144.312 211.404 144.084 210.628 144.084C210.092 144.084 209.644 144.192 209.284 144.408C208.924 144.624 208.656 144.912 208.48 145.272C208.312 145.624 208.228 146.004 208.228 146.412V146.52C208.228 146.928 208.308 147.308 208.468 147.66C208.636 148.004 208.896 148.288 209.248 148.512C209.608 148.728 210.068 148.836 210.628 148.836C211.404 148.836 211.98 148.608 212.356 148.152C212.732 147.696 212.92 147.132 212.92 146.46V146.448ZM220.8 142.728C221.112 142.728 221.376 142.756 221.592 142.812V144.324C221.336 144.268 221.032 144.24 220.68 144.24C220.12 144.24 219.628 144.356 219.204 144.588C218.788 144.812 218.464 145.128 218.232 145.536C218.008 145.936 217.896 146.392 217.896 146.904V150H216.144V142.92H217.896V143.844L217.836 144.636H217.848C218.12 144.044 218.508 143.58 219.012 143.244C219.524 142.9 220.12 142.728 220.8 142.728ZM230.07 146.868H223.674C223.738 147.508 223.974 147.996 224.382 148.332C224.79 148.66 225.33 148.824 226.002 148.824C226.682 148.824 227.206 148.708 227.574 148.476C227.95 148.244 228.182 147.924 228.27 147.516H230.01C229.906 148.324 229.514 148.972 228.834 149.46C228.162 149.948 227.21 150.192 225.978 150.192C225.154 150.192 224.434 150.048 223.818 149.76C223.202 149.464 222.726 149.036 222.39 148.476C222.062 147.908 221.898 147.228 221.898 146.436V146.34C221.898 145.596 222.066 144.952 222.402 144.408C222.738 143.864 223.214 143.448 223.83 143.16C224.446 142.872 225.17 142.728 226.002 142.728C227.306 142.728 228.31 143.048 229.014 143.688C229.718 144.32 230.07 145.208 230.07 146.352V146.868ZM226.002 144.096C225.37 144.096 224.854 144.24 224.454 144.528C224.062 144.816 223.814 145.236 223.71 145.788H228.33C228.258 145.276 228.026 144.868 227.634 144.564C227.242 144.252 226.698 144.096 226.002 144.096ZM234.939 150.192C233.675 150.192 232.731 149.96 232.107 149.496C231.491 149.032 231.183 148.424 231.183 147.672H232.863C232.895 148.096 233.095 148.412 233.463 148.62C233.839 148.82 234.347 148.92 234.987 148.92C235.619 148.92 236.071 148.848 236.343 148.704C236.623 148.552 236.763 148.34 236.763 148.068C236.763 147.852 236.691 147.684 236.547 147.564C236.411 147.436 236.195 147.332 235.899 147.252C235.603 147.172 235.187 147.096 234.651 147.024C233.875 146.92 233.247 146.784 232.767 146.616C232.295 146.44 231.943 146.212 231.711 145.932C231.479 145.652 231.363 145.292 231.363 144.852C231.363 144.22 231.619 143.708 232.131 143.316C232.651 142.924 233.503 142.728 234.687 142.728C235.519 142.728 236.211 142.84 236.763 143.064C237.323 143.28 237.735 143.564 237.999 143.916C238.263 144.268 238.399 144.644 238.407 145.044H236.655C236.615 144.732 236.423 144.48 236.079 144.288C235.743 144.096 235.259 144 234.627 144C233.635 144 233.139 144.264 233.139 144.792C233.139 145.008 233.203 145.18 233.331 145.308C233.467 145.428 233.671 145.524 233.943 145.596C234.215 145.668 234.595 145.732 235.083 145.788C236.315 145.916 237.199 146.152 237.735 146.496C238.271 146.832 238.539 147.324 238.539 147.972C238.539 148.684 238.235 149.232 237.627 149.616C237.027 150 236.131 150.192 234.939 150.192ZM243.47 150.192C242.206 150.192 241.262 149.96 240.638 149.496C240.022 149.032 239.714 148.424 239.714 147.672H241.394C241.426 148.096 241.626 148.412 241.994 148.62C242.37 148.82 242.878 148.92 243.518 148.92C244.15 148.92 244.602 148.848 244.874 148.704C245.154 148.552 245.294 148.34 245.294 148.068C245.294 147.852 245.222 147.684 245.078 147.564C244.942 147.436 244.726 147.332 244.43 147.252C244.134 147.172 243.718 147.096 243.182 147.024C242.406 146.92 241.778 146.784 241.298 146.616C240.826 146.44 240.474 146.212 240.242 145.932C240.01 145.652 239.894 145.292 239.894 144.852C239.894 144.22 240.15 143.708 240.662 143.316C241.182 142.924 242.034 142.728 243.218 142.728C244.05 142.728 244.742 142.84 245.294 143.064C245.854 143.28 246.266 143.564 246.53 143.916C246.794 144.268 246.93 144.644 246.938 145.044H245.186C245.146 144.732 244.954 144.48 244.61 144.288C244.274 144.096 243.79 144 243.158 144C242.166 144 241.67 144.264 241.67 144.792C241.67 145.008 241.734 145.18 241.862 145.308C241.998 145.428 242.202 145.524 242.474 145.596C242.746 145.668 243.126 145.732 243.614 145.788C244.846 145.916 245.73 146.152 246.266 146.496C246.802 146.832 247.07 147.324 247.07 147.972C247.07 148.684 246.766 149.232 246.158 149.616C245.558 150 244.662 150.192 243.47 150.192ZM249.47 141.912C248.742 141.912 248.378 141.624 248.378 141.048C248.378 140.76 248.47 140.544 248.654 140.4C248.838 140.256 249.11 140.184 249.47 140.184C250.198 140.184 250.562 140.472 250.562 141.048C250.562 141.624 250.198 141.912 249.47 141.912ZM250.334 150H248.582V142.92H250.334V150ZM256.04 150.192C254.72 150.192 253.684 149.872 252.932 149.232C252.18 148.584 251.804 147.672 251.804 146.496V146.412C251.804 145.244 252.18 144.34 252.932 143.7C253.684 143.052 254.72 142.728 256.04 142.728C257.36 142.728 258.396 143.052 259.148 143.7C259.9 144.34 260.276 145.244 260.276 146.412V146.496C260.276 147.672 259.9 148.584 259.148 149.232C258.396 149.872 257.36 150.192 256.04 150.192ZM256.04 148.824C256.808 148.824 257.412 148.628 257.852 148.236C258.292 147.844 258.512 147.256 258.512 146.472V146.436C258.512 145.66 258.292 145.076 257.852 144.684C257.412 144.292 256.808 144.096 256.04 144.096C255.272 144.096 254.668 144.292 254.228 144.684C253.788 145.076 253.568 145.66 253.568 146.436V146.472C253.568 147.256 253.788 147.844 254.228 148.236C254.668 148.628 255.272 148.824 256.04 148.824ZM266.566 142.728C267.598 142.728 268.398 143.008 268.966 143.568C269.542 144.12 269.83 144.98 269.83 146.148V150H268.066V146.352C268.066 144.896 267.378 144.168 266.002 144.168C265.45 144.168 264.986 144.292 264.61 144.54C264.234 144.78 263.954 145.096 263.77 145.488C263.586 145.88 263.494 146.296 263.494 146.736V150H261.742V142.92H263.494V143.772L263.422 144.612H263.446C263.718 144.02 264.114 143.56 264.634 143.232C265.154 142.896 265.798 142.728 266.566 142.728ZM275.111 150.192C273.847 150.192 272.903 149.96 272.279 149.496C271.663 149.032 271.355 148.424 271.355 147.672H273.035C273.067 148.096 273.267 148.412 273.635 148.62C274.011 148.82 274.519 148.92 275.159 148.92C275.791 148.92 276.243 148.848 276.515 148.704C276.795 148.552 276.935 148.34 276.935 148.068C276.935 147.852 276.863 147.684 276.719 147.564C276.583 147.436 276.367 147.332 276.071 147.252C275.775 147.172 275.359 147.096 274.823 147.024C274.047 146.92 273.419 146.784 272.939 146.616C272.467 146.44 272.115 146.212 271.883 145.932C271.651 145.652 271.535 145.292 271.535 144.852C271.535 144.22 271.791 143.708 272.303 143.316C272.823 142.924 273.675 142.728 274.859 142.728C275.691 142.728 276.383 142.84 276.935 143.064C277.495 143.28 277.907 143.564 278.171 143.916C278.435 144.268 278.571 144.644 278.579 145.044H276.827C276.787 144.732 276.595 144.48 276.251 144.288C275.915 144.096 275.431 144 274.799 144C273.807 144 273.311 144.264 273.311 144.792C273.311 145.008 273.375 145.18 273.503 145.308C273.639 145.428 273.843 145.524 274.115 145.596C274.387 145.668 274.767 145.732 275.255 145.788C276.487 145.916 277.371 146.152 277.907 146.496C278.443 146.832 278.711 147.324 278.711 147.972C278.711 148.684 278.407 149.232 277.799 149.616C277.199 150 276.303 150.192 275.111 150.192Z" fill="#949494"/>
<rect x="60" y="130" width="244" height="60" rx="12" fill="#616161"/>
<path d="M78.496 153.224C76.648 153.224 75.2013 152.762 74.156 151.838C73.12 150.905 72.602 149.575 72.602 147.848V147.75C72.602 146.602 72.8353 145.631 73.302 144.838C73.778 144.035 74.4547 143.429 75.332 143.018C76.2187 142.598 77.2733 142.388 78.496 142.388C79.6253 142.388 80.6147 142.57 81.464 142.934C82.3227 143.289 82.99 143.788 83.466 144.432C83.9513 145.076 84.2267 145.809 84.292 146.63V146.658H82.08V146.644C82.0147 146.159 81.8233 145.725 81.506 145.342C81.198 144.959 80.7873 144.665 80.274 144.46C79.7607 144.245 79.1773 144.138 78.524 144.138C77.404 144.138 76.5173 144.446 75.864 145.062C75.22 145.678 74.898 146.565 74.898 147.722V147.89C74.898 149.038 75.22 149.925 75.864 150.55C76.5173 151.166 77.404 151.474 78.524 151.474C79.5227 151.474 80.3487 151.255 81.002 150.816C81.6553 150.368 82.024 149.747 82.108 148.954V148.926H84.32V148.954C84.264 149.785 83.9933 150.522 83.508 151.166C83.0227 151.81 82.3507 152.314 81.492 152.678C80.6427 153.042 79.644 153.224 78.496 153.224ZM90.1426 144.516C91.3279 144.516 92.2519 144.689 92.9146 145.034C93.5772 145.37 94.0299 145.823 94.2726 146.392C94.5246 146.952 94.6506 147.624 94.6506 148.408V153H92.6066V151.922L92.6906 151.054H92.6626C92.3546 151.735 91.8786 152.267 91.2346 152.65C90.5906 153.033 89.8439 153.224 88.9946 153.224C87.7066 153.224 86.7966 152.953 86.2646 152.412C85.7419 151.871 85.4806 151.222 85.4806 150.466C85.4806 149.673 85.7746 149.029 86.3626 148.534C86.9599 148.03 87.9446 147.778 89.3166 147.778C89.9512 147.778 90.5672 147.829 91.1646 147.932C91.7619 148.035 92.2426 148.151 92.6066 148.282V147.96C92.5879 146.597 91.7479 145.916 90.0866 145.916C89.3306 145.916 88.7706 146.061 88.4066 146.35C88.0426 146.63 87.8372 146.989 87.7906 147.428H85.7886C85.8912 146.616 86.2646 145.93 86.9086 145.37C87.5526 144.801 88.6306 144.516 90.1426 144.516ZM89.5406 151.698C90.3899 151.698 91.0666 151.488 91.5706 151.068C92.0746 150.639 92.3966 150.139 92.5366 149.57C92.1912 149.421 91.7619 149.304 91.2486 149.22C90.7352 149.127 90.2499 149.08 89.7926 149.08C88.9526 149.08 88.3599 149.206 88.0146 149.458C87.6786 149.701 87.5106 150.013 87.5106 150.396C87.5106 150.769 87.6692 151.082 87.9866 151.334C88.3039 151.577 88.8219 151.698 89.5406 151.698ZM96.814 153V144.74H98.858V145.734L98.774 146.714H98.802C99.1007 146.051 99.558 145.519 100.174 145.118C100.799 144.717 101.518 144.516 102.33 144.516C103.254 144.516 103.973 144.721 104.486 145.132C105.009 145.543 105.363 146.065 105.55 146.7H105.578C105.895 146.037 106.376 145.51 107.02 145.118C107.664 144.717 108.378 144.516 109.162 144.516C110.161 144.516 110.907 144.745 111.402 145.202C111.897 145.659 112.209 146.173 112.34 146.742C112.471 147.302 112.536 147.89 112.536 148.506V153H110.478V148.814C110.478 147.069 109.778 146.196 108.378 146.196C107.827 146.196 107.347 146.341 106.936 146.63C106.525 146.91 106.213 147.274 105.998 147.722C105.793 148.161 105.69 148.613 105.69 149.08V153H103.646V148.73C103.646 148.058 103.492 147.47 103.184 146.966C102.885 146.453 102.33 146.196 101.518 146.196C100.977 146.196 100.505 146.345 100.104 146.644C99.7027 146.933 99.3947 147.302 99.18 147.75C98.9653 148.198 98.858 148.651 98.858 149.108V153H96.814ZM120.143 144.516C121.487 144.516 122.513 144.908 123.223 145.692C123.932 146.467 124.287 147.517 124.287 148.842V148.912C124.287 149.752 124.128 150.499 123.811 151.152C123.493 151.796 123.022 152.305 122.397 152.678C121.781 153.042 121.029 153.224 120.143 153.224C119.368 153.224 118.691 153.061 118.113 152.734C117.534 152.407 117.086 151.936 116.769 151.32H116.713L116.755 152.3V155.52H114.711V144.74H116.755V145.468L116.713 146.42H116.769C117.067 145.813 117.511 145.347 118.099 145.02C118.696 144.684 119.377 144.516 120.143 144.516ZM122.229 148.856C122.229 148.081 122.009 147.428 121.571 146.896C121.132 146.364 120.46 146.098 119.555 146.098C118.929 146.098 118.407 146.224 117.987 146.476C117.567 146.728 117.254 147.064 117.049 147.484C116.853 147.895 116.755 148.338 116.755 148.814V148.94C116.755 149.416 116.848 149.859 117.035 150.27C117.231 150.671 117.534 151.003 117.945 151.264C118.365 151.516 118.901 151.642 119.555 151.642C120.46 151.642 121.132 151.376 121.571 150.844C122.009 150.312 122.229 149.654 122.229 148.87V148.856ZM130.092 144.516C131.277 144.516 132.201 144.689 132.864 145.034C133.526 145.37 133.979 145.823 134.222 146.392C134.474 146.952 134.6 147.624 134.6 148.408V153H132.556V151.922L132.64 151.054H132.612C132.304 151.735 131.828 152.267 131.184 152.65C130.54 153.033 129.793 153.224 128.944 153.224C127.656 153.224 126.746 152.953 126.214 152.412C125.691 151.871 125.43 151.222 125.43 150.466C125.43 149.673 125.724 149.029 126.312 148.534C126.909 148.03 127.894 147.778 129.266 147.778C129.9 147.778 130.516 147.829 131.114 147.932C131.711 148.035 132.192 148.151 132.556 148.282V147.96C132.537 146.597 131.697 145.916 130.036 145.916C129.28 145.916 128.72 146.061 128.356 146.35C127.992 146.63 127.786 146.989 127.74 147.428H125.738C125.84 146.616 126.214 145.93 126.858 145.37C127.502 144.801 128.58 144.516 130.092 144.516ZM129.49 151.698C130.339 151.698 131.016 151.488 131.52 151.068C132.024 150.639 132.346 150.139 132.486 149.57C132.14 149.421 131.711 149.304 131.198 149.22C130.684 149.127 130.199 149.08 129.742 149.08C128.902 149.08 128.309 149.206 127.964 149.458C127.628 149.701 127.46 150.013 127.46 150.396C127.46 150.769 127.618 151.082 127.936 151.334C128.253 151.577 128.771 151.698 129.49 151.698ZM137.799 143.564C136.95 143.564 136.525 143.228 136.525 142.556C136.525 142.22 136.633 141.968 136.847 141.8C137.062 141.632 137.379 141.548 137.799 141.548C138.649 141.548 139.073 141.884 139.073 142.556C139.073 143.228 138.649 143.564 137.799 143.564ZM138.807 153H136.763V144.74H138.807V153ZM148.041 144.74H150.099V151.376C150.099 152.813 149.693 153.901 148.881 154.638C148.069 155.375 146.874 155.744 145.297 155.744C143.804 155.744 142.502 155.539 141.391 155.128L141.573 153.644C142.049 153.831 142.604 153.971 143.239 154.064C143.874 154.167 144.466 154.218 145.017 154.218C145.969 154.218 146.706 154.017 147.229 153.616C147.761 153.215 148.041 152.645 148.069 151.908L148.083 151.6L148.097 150.872L148.069 150.844C147.733 151.479 147.276 151.959 146.697 152.286C146.128 152.613 145.446 152.776 144.653 152.776C143.766 152.776 143.01 152.599 142.385 152.244C141.769 151.889 141.302 151.404 140.985 150.788C140.677 150.172 140.523 149.477 140.523 148.702V148.632C140.523 147.82 140.682 147.106 140.999 146.49C141.316 145.874 141.783 145.393 142.399 145.048C143.015 144.693 143.766 144.516 144.653 144.516C145.437 144.516 146.128 144.684 146.725 145.02C147.322 145.347 147.766 145.809 148.055 146.406H148.111L148.041 145.454V144.74ZM145.255 151.18C145.89 151.18 146.417 151.059 146.837 150.816C147.257 150.564 147.565 150.247 147.761 149.864C147.957 149.481 148.055 149.089 148.055 148.688V148.632C148.055 148.249 147.952 147.862 147.747 147.47C147.551 147.078 147.243 146.751 146.823 146.49C146.403 146.229 145.876 146.098 145.241 146.098C144.634 146.098 144.13 146.224 143.729 146.476C143.328 146.719 143.034 147.036 142.847 147.428C142.66 147.811 142.567 148.217 142.567 148.646V148.702C142.567 149.421 142.782 150.013 143.211 150.48C143.65 150.947 144.331 151.18 145.255 151.18ZM158.018 144.516C159.222 144.516 160.156 144.843 160.818 145.496C161.49 146.14 161.826 147.143 161.826 148.506V153H159.768V148.744C159.768 147.045 158.966 146.196 157.36 146.196C156.716 146.196 156.175 146.341 155.736 146.63C155.298 146.91 154.971 147.279 154.756 147.736C154.542 148.193 154.434 148.679 154.434 149.192V153H152.39V144.74H154.434V145.734L154.35 146.714H154.378C154.696 146.023 155.158 145.487 155.764 145.104C156.371 144.712 157.122 144.516 158.018 144.516ZM168.784 151.334C169.288 150.979 170.109 150.475 171.248 149.822C172.275 149.225 173.105 148.716 173.74 148.296C174.375 147.876 174.911 147.428 175.35 146.952C175.798 146.467 176.022 145.981 176.022 145.496C176.013 145.067 175.793 144.721 175.364 144.46C174.935 144.189 174.347 144.054 173.6 144.054C172.583 144.054 171.892 144.236 171.528 144.6C171.164 144.955 170.982 145.445 170.982 146.07H168.854C168.854 144.941 169.227 144.045 169.974 143.382C170.73 142.719 171.943 142.388 173.614 142.388C174.566 142.388 175.392 142.509 176.092 142.752C176.801 142.985 177.343 143.331 177.716 143.788C178.099 144.236 178.29 144.768 178.29 145.384C178.29 146.103 178.024 146.784 177.492 147.428C176.969 148.063 176.353 148.618 175.644 149.094C174.935 149.57 174.071 150.088 173.054 150.648C172.643 150.872 172.279 151.082 171.962 151.278H178.29V153H168.784V151.334Z" fill="white"/>
<g clip-path="url(#clip1_402_3056)">
<path d="M194.5 148L196.167 149.667L199.5 146.333" stroke="#55BC3B" stroke-width="1.25" stroke-linecap="round" stroke-linejoin="round"/>
<circle cx="197" cy="148" r="7.70833" stroke="#55BC3B" stroke-width="1.25"/>
</g>
<rect x="252" y="138" width="40" height="20" rx="10" fill="#0E86F4"/>
<path d="M274 148C274 143.582 277.582 140 282 140C286.418 140 290 143.582 290 148C290 152.418 286.418 156 282 156C277.582 156 274 152.418 274 148Z" fill="white"/>
<path d="M75.012 170.788C74.636 171.02 74.192 171.224 73.68 171.4C73.176 171.568 72.636 171.688 72.06 171.76V170.296C72.684 170.2 73.264 170.048 73.8 169.84C74.336 169.632 74.796 169.38 75.18 169.084H76.752V178H75.012V170.788ZM78.4705 178.828C78.8065 178.844 79.0345 178.808 79.1545 178.72C79.2825 178.632 79.3465 178.456 79.3465 178.192C78.9785 178.2 78.7025 178.136 78.5185 178C78.3425 177.872 78.2545 177.656 78.2545 177.352C78.2545 177.048 78.3385 176.828 78.5065 176.692C78.6825 176.556 78.9505 176.488 79.3105 176.488C79.6945 176.488 79.9745 176.572 80.1505 176.74C80.3345 176.9 80.4265 177.164 80.4265 177.532C80.4265 178.26 80.2905 178.784 80.0185 179.104C79.7545 179.424 79.3745 179.584 78.8785 179.584C78.7505 179.584 78.6145 179.572 78.4705 179.548V178.828ZM85.9873 178.192C84.4353 178.192 83.2513 177.796 82.4353 177.004C81.6193 176.204 81.2113 175.064 81.2113 173.584V173.5C81.2113 172.02 81.6193 170.884 82.4353 170.092C83.2513 169.3 84.4353 168.904 85.9873 168.904C87.5473 168.904 88.7353 169.3 89.5513 170.092C90.3673 170.884 90.7753 172.02 90.7753 173.5V173.584C90.7753 175.064 90.3673 176.204 89.5513 177.004C88.7353 177.796 87.5473 178.192 85.9873 178.192ZM85.9873 176.704C86.9073 176.704 87.6073 176.436 88.0873 175.9C88.5753 175.364 88.8193 174.604 88.8193 173.62V173.476C88.8193 172.492 88.5753 171.736 88.0873 171.208C87.6073 170.672 86.9073 170.404 85.9873 170.404C85.0673 170.404 84.3633 170.668 83.8753 171.196C83.3953 171.724 83.1553 172.484 83.1553 173.476V173.62C83.1553 174.612 83.3953 175.376 83.8753 175.912C84.3633 176.44 85.0673 176.704 85.9873 176.704ZM96.5811 178.192C95.0291 178.192 93.8451 177.796 93.0291 177.004C92.2131 176.204 91.8051 175.064 91.8051 173.584V173.5C91.8051 172.02 92.2131 170.884 93.0291 170.092C93.8451 169.3 95.0291 168.904 96.5811 168.904C98.1411 168.904 99.3291 169.3 100.145 170.092C100.961 170.884 101.369 172.02 101.369 173.5V173.584C101.369 175.064 100.961 176.204 100.145 177.004C99.3291 177.796 98.1411 178.192 96.5811 178.192ZM96.5811 176.704C97.5011 176.704 98.2011 176.436 98.6811 175.9C99.1691 175.364 99.4131 174.604 99.4131 173.62V173.476C99.4131 172.492 99.1691 171.736 98.6811 171.208C98.2011 170.672 97.5011 170.404 96.5811 170.404C95.6611 170.404 94.9571 170.668 94.4691 171.196C93.9891 171.724 93.7491 172.484 93.7491 173.476V173.62C93.7491 174.612 93.9891 175.376 94.4691 175.912C94.9571 176.44 95.6611 176.704 96.5811 176.704ZM107.175 178.192C105.623 178.192 104.439 177.796 103.623 177.004C102.807 176.204 102.399 175.064 102.399 173.584V173.5C102.399 172.02 102.807 170.884 103.623 170.092C104.439 169.3 105.623 168.904 107.175 168.904C108.735 168.904 109.923 169.3 110.739 170.092C111.555 170.884 111.963 172.02 111.963 173.5V173.584C111.963 175.064 111.555 176.204 110.739 177.004C109.923 177.796 108.735 178.192 107.175 178.192ZM107.175 176.704C108.095 176.704 108.795 176.436 109.275 175.9C109.763 175.364 110.007 174.604 110.007 173.62V173.476C110.007 172.492 109.763 171.736 109.275 171.208C108.795 170.672 108.095 170.404 107.175 170.404C106.255 170.404 105.551 170.668 105.063 171.196C104.583 171.724 104.343 172.484 104.343 173.476V173.62C104.343 174.612 104.583 175.376 105.063 175.912C105.551 176.44 106.255 176.704 107.175 176.704ZM118.175 178V169.084H123.167C124.431 169.084 125.363 169.312 125.963 169.768C126.571 170.216 126.875 170.852 126.875 171.676V171.688C126.875 172.312 126.695 172.828 126.335 173.236C125.975 173.636 125.475 173.896 124.835 174.016V174.028C125.307 174.132 125.667 174.324 125.915 174.604C126.163 174.884 126.339 175.312 126.443 175.888L126.575 176.632C126.687 177.176 126.831 177.632 127.007 178H125.003C124.899 177.768 124.779 177.324 124.643 176.668L124.487 175.9C124.415 175.54 124.231 175.28 123.935 175.12C123.639 174.952 123.159 174.868 122.495 174.868H120.107V178H118.175ZM122.987 173.404C123.603 173.404 124.079 173.284 124.415 173.044C124.759 172.796 124.931 172.42 124.931 171.916V171.892C124.931 171.476 124.783 171.156 124.487 170.932C124.191 170.7 123.735 170.584 123.119 170.584H120.107V173.404H122.987ZM136.14 174.868H129.744C129.808 175.508 130.044 175.996 130.452 176.332C130.86 176.66 131.4 176.824 132.072 176.824C132.752 176.824 133.276 176.708 133.644 176.476C134.02 176.244 134.252 175.924 134.34 175.516H136.08C135.976 176.324 135.584 176.972 134.904 177.46C134.232 177.948 133.28 178.192 132.048 178.192C131.224 178.192 130.504 178.048 129.888 177.76C129.272 177.464 128.796 177.036 128.46 176.476C128.132 175.908 127.968 175.228 127.968 174.436V174.34C127.968 173.596 128.136 172.952 128.472 172.408C128.808 171.864 129.284 171.448 129.9 171.16C130.516 170.872 131.24 170.728 132.072 170.728C133.376 170.728 134.38 171.048 135.084 171.688C135.788 172.32 136.14 173.208 136.14 174.352V174.868ZM132.072 172.096C131.44 172.096 130.924 172.24 130.524 172.528C130.132 172.816 129.884 173.236 129.78 173.788H134.4C134.328 173.276 134.096 172.868 133.704 172.564C133.312 172.252 132.768 172.096 132.072 172.096ZM141.105 170.728C142.121 170.728 142.913 170.876 143.481 171.172C144.049 171.46 144.437 171.848 144.645 172.336C144.861 172.816 144.969 173.392 144.969 174.064V178H143.217V177.076L143.289 176.332H143.265C143.001 176.916 142.593 177.372 142.041 177.7C141.489 178.028 140.849 178.192 140.121 178.192C139.017 178.192 138.237 177.96 137.781 177.496C137.333 177.032 137.109 176.476 137.109 175.828C137.109 175.148 137.361 174.596 137.865 174.172C138.377 173.74 139.221 173.524 140.397 173.524C140.941 173.524 141.469 173.568 141.981 173.656C142.493 173.744 142.905 173.844 143.217 173.956V173.68C143.201 172.512 142.481 171.928 141.057 171.928C140.409 171.928 139.929 172.052 139.617 172.3C139.305 172.54 139.129 172.848 139.089 173.224H137.373C137.461 172.528 137.781 171.94 138.333 171.46C138.885 170.972 139.809 170.728 141.105 170.728ZM140.589 176.884C141.317 176.884 141.897 176.704 142.329 176.344C142.761 175.976 143.037 175.548 143.157 175.06C142.861 174.932 142.493 174.832 142.053 174.76C141.613 174.68 141.197 174.64 140.805 174.64C140.085 174.64 139.577 174.748 139.281 174.964C138.993 175.172 138.849 175.44 138.849 175.768C138.849 176.088 138.985 176.356 139.257 176.572C139.529 176.78 139.973 176.884 140.589 176.884ZM150.472 178.192C149.624 178.192 148.888 178.048 148.264 177.76C147.64 177.464 147.16 177.04 146.824 176.488C146.488 175.928 146.32 175.26 146.32 174.484V174.412C146.32 173.644 146.488 172.984 146.824 172.432C147.16 171.88 147.64 171.46 148.264 171.172C148.888 170.876 149.624 170.728 150.472 170.728C151.656 170.728 152.592 170.984 153.28 171.496C153.968 172 154.352 172.704 154.432 173.608H152.656C152.584 173.152 152.356 172.788 151.972 172.516C151.588 172.236 151.08 172.096 150.448 172.096C149.744 172.096 149.172 172.304 148.732 172.72C148.3 173.128 148.084 173.7 148.084 174.436V174.472C148.084 175.224 148.3 175.804 148.732 176.212C149.172 176.62 149.748 176.824 150.46 176.824C151.108 176.824 151.616 176.684 151.984 176.404C152.36 176.124 152.588 175.756 152.668 175.3H154.444C154.364 176.212 153.98 176.924 153.292 177.436C152.604 177.94 151.664 178.192 150.472 178.192ZM160.683 170.728C161.763 170.728 162.575 171 163.119 171.544C163.663 172.088 163.935 172.952 163.935 174.136V178H162.171V174.34C162.171 172.892 161.491 172.168 160.131 172.168C159.571 172.168 159.099 172.292 158.715 172.54C158.339 172.788 158.059 173.108 157.875 173.5C157.691 173.892 157.599 174.304 157.599 174.736V178H155.847V168.82H157.599V171.784L157.515 172.6H157.551C157.831 171.992 158.239 171.528 158.775 171.208C159.319 170.888 159.955 170.728 160.683 170.728Z" fill="#949494"/>
<path d="M179.68 168.904C181.2 168.904 182.288 169.236 182.944 169.9C183.6 170.564 183.928 171.5 183.928 172.708V173.968C183.928 175.312 183.584 176.352 182.896 177.088C182.208 177.824 181.152 178.192 179.728 178.192C178.784 178.192 178.016 178.052 177.424 177.772C176.84 177.492 176.42 177.136 176.164 176.704C175.908 176.264 175.78 175.796 175.78 175.3H177.604C177.604 175.716 177.772 176.064 178.108 176.344C178.452 176.616 179 176.752 179.752 176.752C180.512 176.752 181.096 176.544 181.504 176.128C181.912 175.704 182.116 175.08 182.116 174.256V173.776H182.092C181.788 174.112 181.412 174.368 180.964 174.544C180.524 174.72 179.948 174.808 179.236 174.808C178.34 174.808 177.612 174.676 177.052 174.412C176.5 174.148 176.104 173.808 175.864 173.392C175.632 172.976 175.516 172.528 175.516 172.048C175.516 171.12 175.848 170.364 176.512 169.78C177.176 169.196 178.232 168.904 179.68 168.904ZM179.716 170.356C178.86 170.356 178.252 170.524 177.892 170.86C177.532 171.196 177.352 171.592 177.352 172.048C177.352 172.488 177.524 172.868 177.868 173.188C178.22 173.5 178.832 173.656 179.704 173.656C180.504 173.656 181.1 173.508 181.492 173.212C181.884 172.908 182.08 172.524 182.08 172.06C182.08 171.748 181.992 171.464 181.816 171.208C181.64 170.952 181.372 170.748 181.012 170.596C180.66 170.436 180.228 170.356 179.716 170.356ZM188.789 178.192C187.933 178.192 187.213 178.06 186.629 177.796C186.045 177.524 185.609 177.168 185.321 176.728C185.041 176.28 184.901 175.792 184.901 175.264V175.204H186.713V175.216C186.713 175.496 186.797 175.752 186.965 175.984C187.133 176.216 187.381 176.404 187.709 176.548C188.037 176.684 188.437 176.752 188.909 176.752C189.597 176.752 190.133 176.604 190.517 176.308C190.901 176.012 191.093 175.56 191.093 174.952V174.916C191.093 174.404 190.937 173.992 190.625 173.68C190.321 173.36 189.765 173.2 188.957 173.2C188.541 173.2 188.109 173.268 187.661 173.404C187.221 173.532 186.917 173.74 186.749 174.028L185.093 173.932L185.417 169.084H192.389V170.536H187.037L186.893 172.648C187.141 172.464 187.489 172.316 187.937 172.204C188.393 172.084 188.877 172.024 189.389 172.024C190.525 172.024 191.409 172.264 192.041 172.744C192.681 173.224 193.005 173.968 193.013 174.976V175.012C193.013 176.068 192.673 176.864 191.993 177.4C191.313 177.928 190.245 178.192 188.789 178.192ZM201.111 178H199.179V169.084H201.111V178ZM203.23 178V170.92H204.982V171.772L204.91 172.612H204.934C205.19 172.044 205.582 171.588 206.11 171.244C206.646 170.9 207.262 170.728 207.958 170.728C208.75 170.728 209.366 170.904 209.806 171.256C210.254 171.608 210.558 172.056 210.718 172.6H210.742C211.014 172.032 211.426 171.58 211.978 171.244C212.53 170.9 213.142 170.728 213.814 170.728C214.67 170.728 215.31 170.924 215.734 171.316C216.158 171.708 216.426 172.148 216.538 172.636C216.65 173.116 216.706 173.62 216.706 174.148V178H214.942V174.412C214.942 172.916 214.342 172.168 213.142 172.168C212.67 172.168 212.258 172.292 211.906 172.54C211.554 172.78 211.286 173.092 211.102 173.476C210.926 173.852 210.838 174.24 210.838 174.64V178H209.086V174.34C209.086 173.764 208.954 173.26 208.69 172.828C208.434 172.388 207.958 172.168 207.262 172.168C206.798 172.168 206.394 172.296 206.05 172.552C205.706 172.8 205.442 173.116 205.258 173.5C205.074 173.884 204.982 174.272 204.982 174.664V178H203.23ZM223.226 170.728C224.378 170.728 225.258 171.064 225.866 171.736C226.474 172.4 226.778 173.3 226.778 174.436V174.496C226.778 175.216 226.642 175.856 226.37 176.416C226.098 176.968 225.694 177.404 225.158 177.724C224.63 178.036 223.986 178.192 223.226 178.192C222.562 178.192 221.982 178.052 221.486 177.772C220.99 177.492 220.606 177.088 220.334 176.56H220.286L220.322 177.4V180.16H218.57V170.92H220.322V171.544L220.286 172.36H220.334C220.59 171.84 220.97 171.44 221.474 171.16C221.986 170.872 222.57 170.728 223.226 170.728ZM225.014 174.448C225.014 173.784 224.826 173.224 224.45 172.768C224.074 172.312 223.498 172.084 222.722 172.084C222.186 172.084 221.738 172.192 221.378 172.408C221.018 172.624 220.75 172.912 220.574 173.272C220.406 173.624 220.322 174.004 220.322 174.412V174.52C220.322 174.928 220.402 175.308 220.562 175.66C220.73 176.004 220.99 176.288 221.342 176.512C221.702 176.728 222.162 176.836 222.722 176.836C223.498 176.836 224.074 176.608 224.45 176.152C224.826 175.696 225.014 175.132 225.014 174.46V174.448ZM232.894 170.728C233.206 170.728 233.47 170.756 233.686 170.812V172.324C233.43 172.268 233.126 172.24 232.774 172.24C232.214 172.24 231.722 172.356 231.298 172.588C230.882 172.812 230.558 173.128 230.326 173.536C230.102 173.936 229.99 174.392 229.99 174.904V178H228.238V170.92H229.99V171.844L229.93 172.636H229.942C230.214 172.044 230.602 171.58 231.106 171.244C231.618 170.9 232.214 170.728 232.894 170.728ZM242.164 174.868H235.768C235.832 175.508 236.068 175.996 236.476 176.332C236.884 176.66 237.424 176.824 238.096 176.824C238.776 176.824 239.3 176.708 239.668 176.476C240.044 176.244 240.276 175.924 240.364 175.516H242.104C242 176.324 241.608 176.972 240.928 177.46C240.256 177.948 239.304 178.192 238.072 178.192C237.248 178.192 236.528 178.048 235.912 177.76C235.296 177.464 234.82 177.036 234.484 176.476C234.156 175.908 233.992 175.228 233.992 174.436V174.34C233.992 173.596 234.16 172.952 234.496 172.408C234.832 171.864 235.308 171.448 235.924 171.16C236.54 170.872 237.264 170.728 238.096 170.728C239.4 170.728 240.404 171.048 241.108 171.688C241.812 172.32 242.164 173.208 242.164 174.352V174.868ZM238.096 172.096C237.464 172.096 236.948 172.24 236.548 172.528C236.156 172.816 235.908 173.236 235.804 173.788H240.424C240.352 173.276 240.12 172.868 239.728 172.564C239.336 172.252 238.792 172.096 238.096 172.096ZM247.033 178.192C245.769 178.192 244.825 177.96 244.201 177.496C243.585 177.032 243.277 176.424 243.277 175.672H244.957C244.989 176.096 245.189 176.412 245.557 176.62C245.933 176.82 246.441 176.92 247.081 176.92C247.713 176.92 248.165 176.848 248.437 176.704C248.717 176.552 248.857 176.34 248.857 176.068C248.857 175.852 248.785 175.684 248.641 175.564C248.505 175.436 248.289 175.332 247.993 175.252C247.697 175.172 247.281 175.096 246.745 175.024C245.969 174.92 245.341 174.784 244.861 174.616C244.389 174.44 244.037 174.212 243.805 173.932C243.573 173.652 243.457 173.292 243.457 172.852C243.457 172.22 243.713 171.708 244.225 171.316C244.745 170.924 245.597 170.728 246.781 170.728C247.613 170.728 248.305 170.84 248.857 171.064C249.417 171.28 249.829 171.564 250.093 171.916C250.357 172.268 250.493 172.644 250.501 173.044H248.749C248.709 172.732 248.517 172.48 248.173 172.288C247.837 172.096 247.353 172 246.721 172C245.729 172 245.233 172.264 245.233 172.792C245.233 173.008 245.297 173.18 245.425 173.308C245.561 173.428 245.765 173.524 246.037 173.596C246.309 173.668 246.689 173.732 247.177 173.788C248.409 173.916 249.293 174.152 249.829 174.496C250.365 174.832 250.633 175.324 250.633 175.972C250.633 176.684 250.329 177.232 249.721 177.616C249.121 178 248.225 178.192 247.033 178.192ZM255.564 178.192C254.3 178.192 253.356 177.96 252.732 177.496C252.116 177.032 251.808 176.424 251.808 175.672H253.488C253.52 176.096 253.72 176.412 254.088 176.62C254.464 176.82 254.972 176.92 255.612 176.92C256.244 176.92 256.696 176.848 256.968 176.704C257.248 176.552 257.388 176.34 257.388 176.068C257.388 175.852 257.316 175.684 257.172 175.564C257.036 175.436 256.82 175.332 256.524 175.252C256.228 175.172 255.812 175.096 255.276 175.024C254.5 174.92 253.872 174.784 253.392 174.616C252.92 174.44 252.568 174.212 252.336 173.932C252.104 173.652 251.988 173.292 251.988 172.852C251.988 172.22 252.244 171.708 252.756 171.316C253.276 170.924 254.128 170.728 255.312 170.728C256.144 170.728 256.836 170.84 257.388 171.064C257.948 171.28 258.36 171.564 258.624 171.916C258.888 172.268 259.024 172.644 259.032 173.044H257.28C257.24 172.732 257.048 172.48 256.704 172.288C256.368 172.096 255.884 172 255.252 172C254.26 172 253.764 172.264 253.764 172.792C253.764 173.008 253.828 173.18 253.956 173.308C254.092 173.428 254.296 173.524 254.568 173.596C254.84 173.668 255.22 173.732 255.708 173.788C256.94 173.916 257.824 174.152 258.36 174.496C258.896 174.832 259.164 175.324 259.164 175.972C259.164 176.684 258.86 177.232 258.252 177.616C257.652 178 256.756 178.192 255.564 178.192ZM261.563 169.912C260.835 169.912 260.471 169.624 260.471 169.048C260.471 168.76 260.563 168.544 260.747 168.4C260.931 168.256 261.203 168.184 261.563 168.184C262.291 168.184 262.655 168.472 262.655 169.048C262.655 169.624 262.291 169.912 261.563 169.912ZM262.427 178H260.675V170.92H262.427V178ZM268.134 178.192C266.814 178.192 265.778 177.872 265.026 177.232C264.274 176.584 263.898 175.672 263.898 174.496V174.412C263.898 173.244 264.274 172.34 265.026 171.7C265.778 171.052 266.814 170.728 268.134 170.728C269.454 170.728 270.49 171.052 271.242 171.7C271.994 172.34 272.37 173.244 272.37 174.412V174.496C272.37 175.672 271.994 176.584 271.242 177.232C270.49 177.872 269.454 178.192 268.134 178.192ZM268.134 176.824C268.902 176.824 269.506 176.628 269.946 176.236C270.386 175.844 270.606 175.256 270.606 174.472V174.436C270.606 173.66 270.386 173.076 269.946 172.684C269.506 172.292 268.902 172.096 268.134 172.096C267.366 172.096 266.762 172.292 266.322 172.684C265.882 173.076 265.662 173.66 265.662 174.436V174.472C265.662 175.256 265.882 175.844 266.322 176.236C266.762 176.628 267.366 176.824 268.134 176.824ZM278.66 170.728C279.692 170.728 280.492 171.008 281.06 171.568C281.636 172.12 281.924 172.98 281.924 174.148V178H280.16V174.352C280.16 172.896 279.472 172.168 278.096 172.168C277.544 172.168 277.08 172.292 276.704 172.54C276.328 172.78 276.048 173.096 275.864 173.488C275.68 173.88 275.588 174.296 275.588 174.736V178H273.836V170.92H275.588V171.772L275.516 172.612H275.54C275.812 172.02 276.208 171.56 276.728 171.232C277.248 170.896 277.892 170.728 278.66 170.728ZM287.205 178.192C285.941 178.192 284.997 177.96 284.373 177.496C283.757 177.032 283.449 176.424 283.449 175.672H285.129C285.161 176.096 285.361 176.412 285.729 176.62C286.105 176.82 286.613 176.92 287.253 176.92C287.885 176.92 288.337 176.848 288.609 176.704C288.889 176.552 289.029 176.34 289.029 176.068C289.029 175.852 288.957 175.684 288.813 175.564C288.677 175.436 288.461 175.332 288.165 175.252C287.869 175.172 287.453 175.096 286.917 175.024C286.141 174.92 285.513 174.784 285.033 174.616C284.561 174.44 284.209 174.212 283.977 173.932C283.745 173.652 283.629 173.292 283.629 172.852C283.629 172.22 283.885 171.708 284.397 171.316C284.917 170.924 285.769 170.728 286.953 170.728C287.785 170.728 288.477 170.84 289.029 171.064C289.589 171.28 290.001 171.564 290.265 171.916C290.529 172.268 290.665 172.644 290.673 173.044H288.921C288.881 172.732 288.689 172.48 288.345 172.288C288.009 172.096 287.525 172 286.893 172C285.901 172 285.405 172.264 285.405 172.792C285.405 173.008 285.469 173.18 285.597 173.308C285.733 173.428 285.937 173.524 286.209 173.596C286.481 173.668 286.861 173.732 287.349 173.788C288.581 173.916 289.465 174.152 290.001 174.496C290.537 174.832 290.805 175.324 290.805 175.972C290.805 176.684 290.501 177.232 289.893 177.616C289.293 178 288.397 178.192 287.205 178.192Z" fill="#949494"/>
<rect x="45" y="158" width="274" height="60" rx="12" fill="#6C6C6C"/>
<path d="M63.496 181.224C61.648 181.224 60.2013 180.762 59.156 179.838C58.12 178.905 57.602 177.575 57.602 175.848V175.75C57.602 174.602 57.8353 173.631 58.302 172.838C58.778 172.035 59.4547 171.429 60.332 171.018C61.2187 170.598 62.2733 170.388 63.496 170.388C64.6253 170.388 65.6147 170.57 66.464 170.934C67.3227 171.289 67.99 171.788 68.466 172.432C68.9513 173.076 69.2267 173.809 69.292 174.63V174.658H67.08V174.644C67.0147 174.159 66.8233 173.725 66.506 173.342C66.198 172.959 65.7873 172.665 65.274 172.46C64.7607 172.245 64.1773 172.138 63.524 172.138C62.404 172.138 61.5173 172.446 60.864 173.062C60.22 173.678 59.898 174.565 59.898 175.722V175.89C59.898 177.038 60.22 177.925 60.864 178.55C61.5173 179.166 62.404 179.474 63.524 179.474C64.5227 179.474 65.3487 179.255 66.002 178.816C66.6553 178.368 67.024 177.747 67.108 176.954V176.926H69.32V176.954C69.264 177.785 68.9933 178.522 68.508 179.166C68.0227 179.81 67.3507 180.314 66.492 180.678C65.6427 181.042 64.644 181.224 63.496 181.224ZM75.1426 172.516C76.3279 172.516 77.2519 172.689 77.9146 173.034C78.5772 173.37 79.0299 173.823 79.2726 174.392C79.5246 174.952 79.6506 175.624 79.6506 176.408V181H77.6066V179.922L77.6906 179.054H77.6626C77.3546 179.735 76.8786 180.267 76.2346 180.65C75.5906 181.033 74.8439 181.224 73.9946 181.224C72.7066 181.224 71.7966 180.953 71.2646 180.412C70.7419 179.871 70.4806 179.222 70.4806 178.466C70.4806 177.673 70.7746 177.029 71.3626 176.534C71.9599 176.03 72.9446 175.778 74.3166 175.778C74.9512 175.778 75.5672 175.829 76.1646 175.932C76.7619 176.035 77.2426 176.151 77.6066 176.282V175.96C77.5879 174.597 76.7479 173.916 75.0866 173.916C74.3306 173.916 73.7706 174.061 73.4066 174.35C73.0426 174.63 72.8372 174.989 72.7906 175.428H70.7886C70.8912 174.616 71.2646 173.93 71.9086 173.37C72.5526 172.801 73.6306 172.516 75.1426 172.516ZM74.5406 179.698C75.3899 179.698 76.0666 179.488 76.5706 179.068C77.0746 178.639 77.3966 178.139 77.5366 177.57C77.1912 177.421 76.7619 177.304 76.2486 177.22C75.7352 177.127 75.2499 177.08 74.7926 177.08C73.9526 177.08 73.3599 177.206 73.0146 177.458C72.6786 177.701 72.5106 178.013 72.5106 178.396C72.5106 178.769 72.6692 179.082 72.9866 179.334C73.3039 179.577 73.8219 179.698 74.5406 179.698ZM81.814 181V172.74H83.858V173.734L83.774 174.714H83.802C84.1007 174.051 84.558 173.519 85.174 173.118C85.7993 172.717 86.518 172.516 87.33 172.516C88.254 172.516 88.9727 172.721 89.486 173.132C90.0087 173.543 90.3633 174.065 90.55 174.7H90.578C90.8953 174.037 91.376 173.51 92.02 173.118C92.664 172.717 93.378 172.516 94.162 172.516C95.1607 172.516 95.9074 172.745 96.402 173.202C96.8967 173.659 97.2093 174.173 97.34 174.742C97.4707 175.302 97.536 175.89 97.536 176.506V181H95.478V176.814C95.478 175.069 94.778 174.196 93.378 174.196C92.8273 174.196 92.3467 174.341 91.936 174.63C91.5253 174.91 91.2127 175.274 90.998 175.722C90.7927 176.161 90.69 176.613 90.69 177.08V181H88.646V176.73C88.646 176.058 88.492 175.47 88.184 174.966C87.8853 174.453 87.33 174.196 86.518 174.196C85.9767 174.196 85.5053 174.345 85.104 174.644C84.7027 174.933 84.3947 175.302 84.18 175.75C83.9653 176.198 83.858 176.651 83.858 177.108V181H81.814ZM105.143 172.516C106.487 172.516 107.513 172.908 108.223 173.692C108.932 174.467 109.287 175.517 109.287 176.842V176.912C109.287 177.752 109.128 178.499 108.811 179.152C108.493 179.796 108.022 180.305 107.397 180.678C106.781 181.042 106.029 181.224 105.143 181.224C104.368 181.224 103.691 181.061 103.113 180.734C102.534 180.407 102.086 179.936 101.769 179.32H101.713L101.755 180.3V183.52H99.7105V172.74H101.755V173.468L101.713 174.42H101.769C102.067 173.813 102.511 173.347 103.099 173.02C103.696 172.684 104.377 172.516 105.143 172.516ZM107.229 176.856C107.229 176.081 107.009 175.428 106.571 174.896C106.132 174.364 105.46 174.098 104.555 174.098C103.929 174.098 103.407 174.224 102.987 174.476C102.567 174.728 102.254 175.064 102.049 175.484C101.853 175.895 101.755 176.338 101.755 176.814V176.94C101.755 177.416 101.848 177.859 102.035 178.27C102.231 178.671 102.534 179.003 102.945 179.264C103.365 179.516 103.901 179.642 104.555 179.642C105.46 179.642 106.132 179.376 106.571 178.844C107.009 178.312 107.229 177.654 107.229 176.87V176.856ZM115.092 172.516C116.277 172.516 117.201 172.689 117.864 173.034C118.526 173.37 118.979 173.823 119.222 174.392C119.474 174.952 119.6 175.624 119.6 176.408V181H117.556V179.922L117.64 179.054H117.612C117.304 179.735 116.828 180.267 116.184 180.65C115.54 181.033 114.793 181.224 113.944 181.224C112.656 181.224 111.746 180.953 111.214 180.412C110.691 179.871 110.43 179.222 110.43 178.466C110.43 177.673 110.724 177.029 111.312 176.534C111.909 176.03 112.894 175.778 114.266 175.778C114.9 175.778 115.516 175.829 116.114 175.932C116.711 176.035 117.192 176.151 117.556 176.282V175.96C117.537 174.597 116.697 173.916 115.036 173.916C114.28 173.916 113.72 174.061 113.356 174.35C112.992 174.63 112.786 174.989 112.74 175.428H110.738C110.84 174.616 111.214 173.93 111.858 173.37C112.502 172.801 113.58 172.516 115.092 172.516ZM114.49 179.698C115.339 179.698 116.016 179.488 116.52 179.068C117.024 178.639 117.346 178.139 117.486 177.57C117.14 177.421 116.711 177.304 116.198 177.22C115.684 177.127 115.199 177.08 114.742 177.08C113.902 177.08 113.309 177.206 112.964 177.458C112.628 177.701 112.46 178.013 112.46 178.396C112.46 178.769 112.618 179.082 112.936 179.334C113.253 179.577 113.771 179.698 114.49 179.698ZM122.799 171.564C121.95 171.564 121.525 171.228 121.525 170.556C121.525 170.22 121.633 169.968 121.847 169.8C122.062 169.632 122.379 169.548 122.799 169.548C123.649 169.548 124.073 169.884 124.073 170.556C124.073 171.228 123.649 171.564 122.799 171.564ZM123.807 181H121.763V172.74H123.807V181ZM133.041 172.74H135.099V179.376C135.099 180.813 134.693 181.901 133.881 182.638C133.069 183.375 131.874 183.744 130.297 183.744C128.804 183.744 127.502 183.539 126.391 183.128L126.573 181.644C127.049 181.831 127.604 181.971 128.239 182.064C128.874 182.167 129.466 182.218 130.017 182.218C130.969 182.218 131.706 182.017 132.229 181.616C132.761 181.215 133.041 180.645 133.069 179.908L133.083 179.6L133.097 178.872L133.069 178.844C132.733 179.479 132.276 179.959 131.697 180.286C131.128 180.613 130.446 180.776 129.653 180.776C128.766 180.776 128.01 180.599 127.385 180.244C126.769 179.889 126.302 179.404 125.985 178.788C125.677 178.172 125.523 177.477 125.523 176.702V176.632C125.523 175.82 125.682 175.106 125.999 174.49C126.316 173.874 126.783 173.393 127.399 173.048C128.015 172.693 128.766 172.516 129.653 172.516C130.437 172.516 131.128 172.684 131.725 173.02C132.322 173.347 132.766 173.809 133.055 174.406H133.111L133.041 173.454V172.74ZM130.255 179.18C130.89 179.18 131.417 179.059 131.837 178.816C132.257 178.564 132.565 178.247 132.761 177.864C132.957 177.481 133.055 177.089 133.055 176.688V176.632C133.055 176.249 132.952 175.862 132.747 175.47C132.551 175.078 132.243 174.751 131.823 174.49C131.403 174.229 130.876 174.098 130.241 174.098C129.634 174.098 129.13 174.224 128.729 174.476C128.328 174.719 128.034 175.036 127.847 175.428C127.66 175.811 127.567 176.217 127.567 176.646V176.702C127.567 177.421 127.782 178.013 128.211 178.48C128.65 178.947 129.331 179.18 130.255 179.18ZM143.018 172.516C144.222 172.516 145.156 172.843 145.818 173.496C146.49 174.14 146.826 175.143 146.826 176.506V181H144.768V176.744C144.768 175.045 143.966 174.196 142.36 174.196C141.716 174.196 141.175 174.341 140.736 174.63C140.298 174.91 139.971 175.279 139.756 175.736C139.542 176.193 139.434 176.679 139.434 177.192V181H137.39V172.74H139.434V173.734L139.35 174.714H139.378C139.696 174.023 140.158 173.487 140.764 173.104C141.371 172.712 142.122 172.516 143.018 172.516ZM158.586 181.224C155.357 181.224 153.742 180.067 153.742 177.752H155.898C155.898 178.331 156.131 178.774 156.598 179.082C157.074 179.39 157.727 179.544 158.558 179.544C159.379 179.544 160.014 179.409 160.462 179.138C160.919 178.858 161.148 178.443 161.148 177.892V177.878C161.148 177.355 160.957 176.982 160.574 176.758C160.201 176.534 159.603 176.422 158.782 176.422H157.396V174.84H158.782C159.529 174.84 160.084 174.733 160.448 174.518C160.812 174.294 160.994 173.958 160.994 173.51V173.496C160.994 173.048 160.803 172.698 160.42 172.446C160.037 172.194 159.431 172.068 158.6 172.068C157.807 172.068 157.186 172.231 156.738 172.558C156.299 172.875 156.08 173.319 156.08 173.888H153.966C153.966 173.197 154.139 172.591 154.484 172.068C154.839 171.536 155.366 171.125 156.066 170.836C156.766 170.537 157.625 170.388 158.642 170.388C159.622 170.388 160.453 170.505 161.134 170.738C161.825 170.962 162.347 171.289 162.702 171.718C163.057 172.138 163.234 172.628 163.234 173.188V173.216C163.234 173.851 163.038 174.369 162.646 174.77C162.254 175.171 161.736 175.428 161.092 175.54V175.596C161.82 175.717 162.385 175.983 162.786 176.394C163.197 176.805 163.402 177.374 163.402 178.102V178.13C163.402 179.157 162.987 179.931 162.156 180.454C161.335 180.967 160.145 181.224 158.586 181.224Z" fill="white"/>
<g clip-path="url(#clip2_402_3056)">
<path d="M180.5 176L182.167 177.667L185.5 174.333" stroke="#55BC3B" stroke-width="1.25" stroke-linecap="round" stroke-linejoin="round"/>
<circle cx="183" cy="176" r="7.70833" stroke="#55BC3B" stroke-width="1.25"/>
</g>
<rect x="267" y="166" width="40" height="20" rx="10" fill="#0E86F4"/>
<path d="M289 176C289 171.582 292.582 168 297 168C301.418 168 305 171.582 305 176C305 180.418 301.418 184 297 184C292.582 184 289 180.418 289 176Z" fill="white"/>
<path d="M57.528 204.572C57.96 204.268 58.664 203.836 59.64 203.276C60.52 202.764 61.232 202.328 61.776 201.968C62.32 201.608 62.78 201.224 63.156 200.816C63.54 200.4 63.732 199.984 63.732 199.568C63.724 199.2 63.536 198.904 63.168 198.68C62.8 198.448 62.296 198.332 61.656 198.332C60.784 198.332 60.192 198.488 59.88 198.8C59.568 199.104 59.412 199.524 59.412 200.06H57.588C57.588 199.092 57.908 198.324 58.548 197.756C59.196 197.188 60.236 196.904 61.668 196.904C62.484 196.904 63.192 197.008 63.792 197.216C64.4 197.416 64.864 197.712 65.184 198.104C65.512 198.488 65.676 198.944 65.676 199.472C65.676 200.088 65.448 200.672 64.992 201.224C64.544 201.768 64.016 202.244 63.408 202.652C62.8 203.06 62.06 203.504 61.188 203.984C60.836 204.176 60.524 204.356 60.252 204.524H65.676V206H57.528V204.572ZM70.5315 206.192C69.6755 206.192 68.9555 206.06 68.3715 205.796C67.7875 205.524 67.3515 205.168 67.0635 204.728C66.7835 204.28 66.6435 203.792 66.6435 203.264V203.204H68.4555V203.216C68.4555 203.496 68.5395 203.752 68.7075 203.984C68.8755 204.216 69.1235 204.404 69.4515 204.548C69.7795 204.684 70.1795 204.752 70.6515 204.752C71.3395 204.752 71.8755 204.604 72.2595 204.308C72.6435 204.012 72.8355 203.56 72.8355 202.952V202.916C72.8355 202.404 72.6795 201.992 72.3675 201.68C72.0635 201.36 71.5075 201.2 70.6995 201.2C70.2835 201.2 69.8515 201.268 69.4035 201.404C68.9635 201.532 68.6595 201.74 68.4915 202.028L66.8355 201.932L67.1595 197.084H74.1315V198.536H68.7795L68.6355 200.648C68.8835 200.464 69.2315 200.316 69.6795 200.204C70.1355 200.084 70.6195 200.024 71.1315 200.024C72.2675 200.024 73.1515 200.264 73.7835 200.744C74.4235 201.224 74.7475 201.968 74.7555 202.976V203.012C74.7555 204.068 74.4155 204.864 73.7355 205.4C73.0555 205.928 71.9875 206.192 70.5315 206.192ZM75.7987 206.828C76.1347 206.844 76.3627 206.808 76.4827 206.72C76.6107 206.632 76.6747 206.456 76.6747 206.192C76.3067 206.2 76.0307 206.136 75.8467 206C75.6707 205.872 75.5827 205.656 75.5827 205.352C75.5827 205.048 75.6667 204.828 75.8347 204.692C76.0107 204.556 76.2787 204.488 76.6387 204.488C77.0227 204.488 77.3027 204.572 77.4787 204.74C77.6627 204.9 77.7547 205.164 77.7547 205.532C77.7547 206.26 77.6187 206.784 77.3467 207.104C77.0827 207.424 76.7027 207.584 76.2067 207.584C76.0787 207.584 75.9427 207.572 75.7987 207.548V206.828ZM78.6452 204.572C79.0772 204.268 79.7812 203.836 80.7572 203.276C81.6372 202.764 82.3492 202.328 82.8932 201.968C83.4372 201.608 83.8972 201.224 84.2732 200.816C84.6572 200.4 84.8492 199.984 84.8492 199.568C84.8412 199.2 84.6532 198.904 84.2852 198.68C83.9172 198.448 83.4132 198.332 82.7732 198.332C81.9012 198.332 81.3092 198.488 80.9972 198.8C80.6852 199.104 80.5292 199.524 80.5292 200.06H78.7052C78.7052 199.092 79.0252 198.324 79.6652 197.756C80.3132 197.188 81.3532 196.904 82.7852 196.904C83.6012 196.904 84.3092 197.008 84.9092 197.216C85.5172 197.416 85.9812 197.712 86.3012 198.104C86.6292 198.488 86.7932 198.944 86.7932 199.472C86.7932 200.088 86.5652 200.672 86.1092 201.224C85.6612 201.768 85.1332 202.244 84.5252 202.652C83.9172 203.06 83.1772 203.504 82.3052 203.984C81.9532 204.176 81.6412 204.356 81.3692 204.524H86.7932V206H78.6452V204.572ZM91.6487 206.192C90.7927 206.192 90.0727 206.06 89.4887 205.796C88.9047 205.524 88.4687 205.168 88.1807 204.728C87.9007 204.28 87.7607 203.792 87.7607 203.264V203.204H89.5727V203.216C89.5727 203.496 89.6567 203.752 89.8247 203.984C89.9927 204.216 90.2407 204.404 90.5687 204.548C90.8967 204.684 91.2967 204.752 91.7687 204.752C92.4567 204.752 92.9927 204.604 93.3767 204.308C93.7607 204.012 93.9527 203.56 93.9527 202.952V202.916C93.9527 202.404 93.7967 201.992 93.4847 201.68C93.1807 201.36 92.6247 201.2 91.8167 201.2C91.4007 201.2 90.9687 201.268 90.5207 201.404C90.0807 201.532 89.7767 201.74 89.6087 202.028L87.9527 201.932L88.2767 197.084H95.2487V198.536H89.8967L89.7527 200.648C90.0007 200.464 90.3487 200.316 90.7967 200.204C91.2527 200.084 91.7367 200.024 92.2487 200.024C93.3847 200.024 94.2687 200.264 94.9007 200.744C95.5407 201.224 95.8647 201.968 95.8727 202.976V203.012C95.8727 204.068 95.5327 204.864 94.8527 205.4C94.1727 205.928 93.1047 206.192 91.6487 206.192ZM101.632 206.192C100.08 206.192 98.8958 205.796 98.0798 205.004C97.2638 204.204 96.8558 203.064 96.8558 201.584V201.5C96.8558 200.02 97.2638 198.884 98.0798 198.092C98.8958 197.3 100.08 196.904 101.632 196.904C103.192 196.904 104.38 197.3 105.196 198.092C106.012 198.884 106.42 200.02 106.42 201.5V201.584C106.42 203.064 106.012 204.204 105.196 205.004C104.38 205.796 103.192 206.192 101.632 206.192ZM101.632 204.704C102.552 204.704 103.252 204.436 103.732 203.9C104.22 203.364 104.464 202.604 104.464 201.62V201.476C104.464 200.492 104.22 199.736 103.732 199.208C103.252 198.672 102.552 198.404 101.632 198.404C100.712 198.404 100.008 198.668 99.5198 199.196C99.0398 199.724 98.7998 200.484 98.7998 201.476V201.62C98.7998 202.612 99.0398 203.376 99.5198 203.912C100.008 204.44 100.712 204.704 101.632 204.704ZM112.632 206V197.084H117.624C118.888 197.084 119.82 197.312 120.42 197.768C121.028 198.216 121.332 198.852 121.332 199.676V199.688C121.332 200.312 121.152 200.828 120.792 201.236C120.432 201.636 119.932 201.896 119.292 202.016V202.028C119.764 202.132 120.124 202.324 120.372 202.604C120.62 202.884 120.796 203.312 120.9 203.888L121.032 204.632C121.144 205.176 121.288 205.632 121.464 206H119.46C119.356 205.768 119.236 205.324 119.1 204.668L118.944 203.9C118.872 203.54 118.688 203.28 118.392 203.12C118.096 202.952 117.616 202.868 116.952 202.868H114.564V206H112.632ZM117.444 201.404C118.06 201.404 118.536 201.284 118.872 201.044C119.216 200.796 119.388 200.42 119.388 199.916V199.892C119.388 199.476 119.24 199.156 118.944 198.932C118.648 198.7 118.192 198.584 117.576 198.584H114.564V201.404H117.444ZM130.597 202.868H124.201C124.265 203.508 124.501 203.996 124.909 204.332C125.317 204.66 125.857 204.824 126.529 204.824C127.209 204.824 127.733 204.708 128.101 204.476C128.477 204.244 128.709 203.924 128.797 203.516H130.537C130.433 204.324 130.041 204.972 129.361 205.46C128.689 205.948 127.737 206.192 126.505 206.192C125.681 206.192 124.961 206.048 124.345 205.76C123.729 205.464 123.253 205.036 122.917 204.476C122.589 203.908 122.425 203.228 122.425 202.436V202.34C122.425 201.596 122.593 200.952 122.929 200.408C123.265 199.864 123.741 199.448 124.357 199.16C124.973 198.872 125.697 198.728 126.529 198.728C127.833 198.728 128.837 199.048 129.541 199.688C130.245 200.32 130.597 201.208 130.597 202.352V202.868ZM126.529 200.096C125.897 200.096 125.381 200.24 124.981 200.528C124.589 200.816 124.341 201.236 124.237 201.788H128.857C128.785 201.276 128.553 200.868 128.161 200.564C127.769 200.252 127.225 200.096 126.529 200.096ZM135.563 198.728C136.579 198.728 137.371 198.876 137.939 199.172C138.507 199.46 138.895 199.848 139.103 200.336C139.319 200.816 139.427 201.392 139.427 202.064V206H137.674V205.076L137.747 204.332H137.723C137.459 204.916 137.051 205.372 136.499 205.7C135.947 206.028 135.307 206.192 134.579 206.192C133.475 206.192 132.695 205.96 132.239 205.496C131.791 205.032 131.567 204.476 131.567 203.828C131.567 203.148 131.819 202.596 132.323 202.172C132.835 201.74 133.679 201.524 134.855 201.524C135.399 201.524 135.927 201.568 136.439 201.656C136.951 201.744 137.363 201.844 137.674 201.956V201.68C137.659 200.512 136.939 199.928 135.515 199.928C134.867 199.928 134.387 200.052 134.075 200.3C133.763 200.54 133.587 200.848 133.547 201.224H131.831C131.919 200.528 132.239 199.94 132.791 199.46C133.343 198.972 134.267 198.728 135.563 198.728ZM135.047 204.884C135.775 204.884 136.355 204.704 136.787 204.344C137.219 203.976 137.495 203.548 137.615 203.06C137.319 202.932 136.951 202.832 136.511 202.76C136.071 202.68 135.655 202.64 135.263 202.64C134.543 202.64 134.035 202.748 133.739 202.964C133.451 203.172 133.307 203.44 133.307 203.768C133.307 204.088 133.443 204.356 133.715 204.572C133.987 204.78 134.431 204.884 135.047 204.884ZM144.929 206.192C144.081 206.192 143.345 206.048 142.721 205.76C142.097 205.464 141.617 205.04 141.281 204.488C140.945 203.928 140.777 203.26 140.777 202.484V202.412C140.777 201.644 140.945 200.984 141.281 200.432C141.617 199.88 142.097 199.46 142.721 199.172C143.345 198.876 144.081 198.728 144.929 198.728C146.113 198.728 147.049 198.984 147.737 199.496C148.425 200 148.809 200.704 148.889 201.608H147.113C147.041 201.152 146.813 200.788 146.429 200.516C146.045 200.236 145.537 200.096 144.905 200.096C144.201 200.096 143.629 200.304 143.189 200.72C142.757 201.128 142.541 201.7 142.541 202.436V202.472C142.541 203.224 142.757 203.804 143.189 204.212C143.629 204.62 144.205 204.824 144.917 204.824C145.565 204.824 146.073 204.684 146.441 204.404C146.817 204.124 147.045 203.756 147.125 203.3H148.901C148.821 204.212 148.437 204.924 147.749 205.436C147.061 205.94 146.121 206.192 144.929 206.192ZM155.14 198.728C156.22 198.728 157.032 199 157.576 199.544C158.12 200.088 158.392 200.952 158.392 202.136V206H156.628V202.34C156.628 200.892 155.948 200.168 154.588 200.168C154.028 200.168 153.556 200.292 153.172 200.54C152.796 200.788 152.516 201.108 152.332 201.5C152.148 201.892 152.056 202.304 152.056 202.736V206H150.304V196.82H152.056V199.784L151.972 200.6H152.008C152.288 199.992 152.696 199.528 153.232 199.208C153.776 198.888 154.412 198.728 155.14 198.728Z" fill="#949494"/>
<path d="M170.528 204.572C170.96 204.268 171.664 203.836 172.64 203.276C173.52 202.764 174.232 202.328 174.776 201.968C175.32 201.608 175.78 201.224 176.156 200.816C176.54 200.4 176.732 199.984 176.732 199.568C176.724 199.2 176.536 198.904 176.168 198.68C175.8 198.448 175.296 198.332 174.656 198.332C173.784 198.332 173.192 198.488 172.88 198.8C172.568 199.104 172.412 199.524 172.412 200.06H170.588C170.588 199.092 170.908 198.324 171.548 197.756C172.196 197.188 173.236 196.904 174.668 196.904C175.484 196.904 176.192 197.008 176.792 197.216C177.4 197.416 177.864 197.712 178.184 198.104C178.512 198.488 178.676 198.944 178.676 199.472C178.676 200.088 178.448 200.672 177.992 201.224C177.544 201.768 177.016 202.244 176.408 202.652C175.8 203.06 175.06 203.504 174.188 203.984C173.836 204.176 173.524 204.356 173.252 204.524H178.676V206H170.528V204.572ZM184.48 206.192C182.928 206.192 181.744 205.796 180.928 205.004C180.112 204.204 179.704 203.064 179.704 201.584V201.5C179.704 200.02 180.112 198.884 180.928 198.092C181.744 197.3 182.928 196.904 184.48 196.904C186.04 196.904 187.228 197.3 188.044 198.092C188.86 198.884 189.268 200.02 189.268 201.5V201.584C189.268 203.064 188.86 204.204 188.044 205.004C187.228 205.796 186.04 206.192 184.48 206.192ZM184.48 204.704C185.4 204.704 186.1 204.436 186.58 203.9C187.068 203.364 187.312 202.604 187.312 201.62V201.476C187.312 200.492 187.068 199.736 186.58 199.208C186.1 198.672 185.4 198.404 184.48 198.404C183.56 198.404 182.856 198.668 182.368 199.196C181.888 199.724 181.648 200.484 181.648 201.476V201.62C181.648 202.612 181.888 203.376 182.368 203.912C182.856 204.44 183.56 204.704 184.48 204.704ZM190.309 204.572C190.741 204.268 191.445 203.836 192.421 203.276C193.301 202.764 194.013 202.328 194.557 201.968C195.101 201.608 195.561 201.224 195.937 200.816C196.321 200.4 196.513 199.984 196.513 199.568C196.505 199.2 196.317 198.904 195.949 198.68C195.581 198.448 195.077 198.332 194.437 198.332C193.565 198.332 192.973 198.488 192.661 198.8C192.349 199.104 192.193 199.524 192.193 200.06H190.369C190.369 199.092 190.689 198.324 191.329 197.756C191.977 197.188 193.017 196.904 194.449 196.904C195.265 196.904 195.973 197.008 196.573 197.216C197.181 197.416 197.645 197.712 197.965 198.104C198.293 198.488 198.457 198.944 198.457 199.472C198.457 200.088 198.229 200.672 197.773 201.224C197.325 201.768 196.797 202.244 196.189 202.652C195.581 203.06 194.841 203.504 193.969 203.984C193.617 204.176 193.305 204.356 193.033 204.524H198.457V206H190.309V204.572ZM203.613 206.192C200.845 206.192 199.461 205.2 199.461 203.216H201.309C201.309 203.712 201.509 204.092 201.909 204.356C202.317 204.62 202.877 204.752 203.589 204.752C204.293 204.752 204.837 204.636 205.221 204.404C205.613 204.164 205.809 203.808 205.809 203.336V203.324C205.809 202.876 205.645 202.556 205.317 202.364C204.997 202.172 204.485 202.076 203.781 202.076H202.593V200.72H203.781C204.421 200.72 204.897 200.628 205.209 200.444C205.521 200.252 205.677 199.964 205.677 199.58V199.568C205.677 199.184 205.513 198.884 205.185 198.668C204.857 198.452 204.337 198.344 203.625 198.344C202.945 198.344 202.413 198.484 202.029 198.764C201.653 199.036 201.465 199.416 201.465 199.904H199.653C199.653 199.312 199.801 198.792 200.097 198.344C200.401 197.888 200.853 197.536 201.453 197.288C202.053 197.032 202.789 196.904 203.661 196.904C204.501 196.904 205.213 197.004 205.797 197.204C206.389 197.396 206.837 197.676 207.141 198.044C207.445 198.404 207.597 198.824 207.597 199.304V199.328C207.597 199.872 207.429 200.316 207.093 200.66C206.757 201.004 206.313 201.224 205.761 201.32V201.368C206.385 201.472 206.869 201.7 207.213 202.052C207.565 202.404 207.741 202.892 207.741 203.516V203.54C207.741 204.42 207.385 205.084 206.673 205.532C205.969 205.972 204.949 206.192 203.613 206.192ZM215.892 206H213.96V197.084H215.892V206ZM218.011 206V198.92H219.763V199.772L219.691 200.612H219.715C219.971 200.044 220.363 199.588 220.891 199.244C221.427 198.9 222.043 198.728 222.739 198.728C223.531 198.728 224.147 198.904 224.587 199.256C225.035 199.608 225.339 200.056 225.499 200.6H225.523C225.795 200.032 226.207 199.58 226.759 199.244C227.311 198.9 227.923 198.728 228.595 198.728C229.451 198.728 230.091 198.924 230.515 199.316C230.939 199.708 231.207 200.148 231.319 200.636C231.431 201.116 231.487 201.62 231.487 202.148V206H229.723V202.412C229.723 200.916 229.123 200.168 227.923 200.168C227.451 200.168 227.039 200.292 226.687 200.54C226.335 200.78 226.067 201.092 225.883 201.476C225.707 201.852 225.619 202.24 225.619 202.64V206H223.867V202.34C223.867 201.764 223.735 201.26 223.471 200.828C223.215 200.388 222.739 200.168 222.043 200.168C221.579 200.168 221.175 200.296 220.831 200.552C220.487 200.8 220.223 201.116 220.039 201.5C219.855 201.884 219.763 202.272 219.763 202.664V206H218.011ZM238.007 198.728C239.159 198.728 240.039 199.064 240.647 199.736C241.255 200.4 241.559 201.3 241.559 202.436V202.496C241.559 203.216 241.423 203.856 241.151 204.416C240.879 204.968 240.475 205.404 239.939 205.724C239.411 206.036 238.767 206.192 238.007 206.192C237.343 206.192 236.763 206.052 236.267 205.772C235.771 205.492 235.387 205.088 235.115 204.56H235.067L235.103 205.4V208.16H233.351V198.92H235.103V199.544L235.067 200.36H235.115C235.371 199.84 235.751 199.44 236.255 199.16C236.767 198.872 237.351 198.728 238.007 198.728ZM239.795 202.448C239.795 201.784 239.607 201.224 239.231 200.768C238.855 200.312 238.279 200.084 237.503 200.084C236.967 200.084 236.519 200.192 236.159 200.408C235.799 200.624 235.531 200.912 235.355 201.272C235.187 201.624 235.103 202.004 235.103 202.412V202.52C235.103 202.928 235.183 203.308 235.343 203.66C235.511 204.004 235.771 204.288 236.123 204.512C236.483 204.728 236.943 204.836 237.503 204.836C238.279 204.836 238.855 204.608 239.231 204.152C239.607 203.696 239.795 203.132 239.795 202.46V202.448ZM247.675 198.728C247.987 198.728 248.251 198.756 248.467 198.812V200.324C248.211 200.268 247.907 200.24 247.555 200.24C246.995 200.24 246.503 200.356 246.079 200.588C245.663 200.812 245.339 201.128 245.107 201.536C244.883 201.936 244.771 202.392 244.771 202.904V206H243.019V198.92H244.771V199.844L244.711 200.636H244.723C244.995 200.044 245.383 199.58 245.887 199.244C246.399 198.9 246.995 198.728 247.675 198.728ZM256.945 202.868H250.549C250.613 203.508 250.849 203.996 251.257 204.332C251.665 204.66 252.205 204.824 252.877 204.824C253.557 204.824 254.081 204.708 254.449 204.476C254.825 204.244 255.057 203.924 255.145 203.516H256.885C256.781 204.324 256.389 204.972 255.709 205.46C255.037 205.948 254.085 206.192 252.853 206.192C252.029 206.192 251.309 206.048 250.693 205.76C250.077 205.464 249.601 205.036 249.265 204.476C248.937 203.908 248.773 203.228 248.773 202.436V202.34C248.773 201.596 248.941 200.952 249.277 200.408C249.613 199.864 250.089 199.448 250.705 199.16C251.321 198.872 252.045 198.728 252.877 198.728C254.181 198.728 255.185 199.048 255.889 199.688C256.593 200.32 256.945 201.208 256.945 202.352V202.868ZM252.877 200.096C252.245 200.096 251.729 200.24 251.329 200.528C250.937 200.816 250.689 201.236 250.585 201.788H255.205C255.133 201.276 254.901 200.868 254.509 200.564C254.117 200.252 253.573 200.096 252.877 200.096ZM261.814 206.192C260.55 206.192 259.606 205.96 258.982 205.496C258.366 205.032 258.058 204.424 258.058 203.672H259.738C259.77 204.096 259.97 204.412 260.338 204.62C260.714 204.82 261.222 204.92 261.862 204.92C262.494 204.92 262.946 204.848 263.218 204.704C263.498 204.552 263.638 204.34 263.638 204.068C263.638 203.852 263.566 203.684 263.422 203.564C263.286 203.436 263.07 203.332 262.774 203.252C262.478 203.172 262.062 203.096 261.526 203.024C260.75 202.92 260.122 202.784 259.642 202.616C259.17 202.44 258.818 202.212 258.586 201.932C258.354 201.652 258.238 201.292 258.238 200.852C258.238 200.22 258.494 199.708 259.006 199.316C259.526 198.924 260.378 198.728 261.562 198.728C262.394 198.728 263.086 198.84 263.638 199.064C264.198 199.28 264.61 199.564 264.874 199.916C265.138 200.268 265.274 200.644 265.282 201.044H263.53C263.49 200.732 263.298 200.48 262.954 200.288C262.618 200.096 262.134 200 261.502 200C260.51 200 260.014 200.264 260.014 200.792C260.014 201.008 260.078 201.18 260.206 201.308C260.342 201.428 260.546 201.524 260.818 201.596C261.09 201.668 261.47 201.732 261.958 201.788C263.19 201.916 264.074 202.152 264.61 202.496C265.146 202.832 265.414 203.324 265.414 203.972C265.414 204.684 265.11 205.232 264.502 205.616C263.902 206 263.006 206.192 261.814 206.192ZM270.345 206.192C269.081 206.192 268.137 205.96 267.513 205.496C266.897 205.032 266.589 204.424 266.589 203.672H268.269C268.301 204.096 268.501 204.412 268.869 204.62C269.245 204.82 269.753 204.92 270.393 204.92C271.025 204.92 271.477 204.848 271.749 204.704C272.029 204.552 272.169 204.34 272.169 204.068C272.169 203.852 272.097 203.684 271.953 203.564C271.817 203.436 271.601 203.332 271.305 203.252C271.009 203.172 270.593 203.096 270.057 203.024C269.281 202.92 268.653 202.784 268.173 202.616C267.701 202.44 267.349 202.212 267.117 201.932C266.885 201.652 266.769 201.292 266.769 200.852C266.769 200.22 267.025 199.708 267.537 199.316C268.057 198.924 268.909 198.728 270.093 198.728C270.925 198.728 271.617 198.84 272.169 199.064C272.729 199.28 273.141 199.564 273.405 199.916C273.669 200.268 273.805 200.644 273.813 201.044H272.061C272.021 200.732 271.829 200.48 271.485 200.288C271.149 200.096 270.665 200 270.033 200C269.041 200 268.545 200.264 268.545 200.792C268.545 201.008 268.609 201.18 268.737 201.308C268.873 201.428 269.077 201.524 269.349 201.596C269.621 201.668 270.001 201.732 270.489 201.788C271.721 201.916 272.605 202.152 273.141 202.496C273.677 202.832 273.945 203.324 273.945 203.972C273.945 204.684 273.641 205.232 273.033 205.616C272.433 206 271.537 206.192 270.345 206.192ZM276.345 197.912C275.617 197.912 275.253 197.624 275.253 197.048C275.253 196.76 275.345 196.544 275.529 196.4C275.713 196.256 275.985 196.184 276.345 196.184C277.073 196.184 277.437 196.472 277.437 197.048C277.437 197.624 277.073 197.912 276.345 197.912ZM277.209 206H275.457V198.92H277.209V206ZM282.915 206.192C281.595 206.192 280.559 205.872 279.807 205.232C279.055 204.584 278.679 203.672 278.679 202.496V202.412C278.679 201.244 279.055 200.34 279.807 199.7C280.559 199.052 281.595 198.728 282.915 198.728C284.235 198.728 285.271 199.052 286.023 199.7C286.775 200.34 287.151 201.244 287.151 202.412V202.496C287.151 203.672 286.775 204.584 286.023 205.232C285.271 205.872 284.235 206.192 282.915 206.192ZM282.915 204.824C283.683 204.824 284.287 204.628 284.727 204.236C285.167 203.844 285.387 203.256 285.387 202.472V202.436C285.387 201.66 285.167 201.076 284.727 200.684C284.287 200.292 283.683 200.096 282.915 200.096C282.147 200.096 281.543 200.292 281.103 200.684C280.663 201.076 280.443 201.66 280.443 202.436V202.472C280.443 203.256 280.663 203.844 281.103 204.236C281.543 204.628 282.147 204.824 282.915 204.824ZM293.441 198.728C294.473 198.728 295.273 199.008 295.841 199.568C296.417 200.12 296.705 200.98 296.705 202.148V206H294.941V202.352C294.941 200.896 294.253 200.168 292.877 200.168C292.325 200.168 291.861 200.292 291.485 200.54C291.109 200.78 290.829 201.096 290.645 201.488C290.461 201.88 290.369 202.296 290.369 202.736V206H288.617V198.92H290.369V199.772L290.297 200.612H290.321C290.593 200.02 290.989 199.56 291.509 199.232C292.029 198.896 292.673 198.728 293.441 198.728ZM301.986 206.192C300.722 206.192 299.778 205.96 299.154 205.496C298.538 205.032 298.23 204.424 298.23 203.672H299.91C299.942 204.096 300.142 204.412 300.51 204.62C300.886 204.82 301.394 204.92 302.034 204.92C302.666 204.92 303.118 204.848 303.39 204.704C303.67 204.552 303.81 204.34 303.81 204.068C303.81 203.852 303.738 203.684 303.594 203.564C303.458 203.436 303.242 203.332 302.946 203.252C302.65 203.172 302.234 203.096 301.698 203.024C300.922 202.92 300.294 202.784 299.814 202.616C299.342 202.44 298.99 202.212 298.758 201.932C298.526 201.652 298.41 201.292 298.41 200.852C298.41 200.22 298.666 199.708 299.178 199.316C299.698 198.924 300.55 198.728 301.734 198.728C302.566 198.728 303.258 198.84 303.81 199.064C304.37 199.28 304.782 199.564 305.046 199.916C305.31 200.268 305.446 200.644 305.454 201.044H303.702C303.662 200.732 303.47 200.48 303.126 200.288C302.79 200.096 302.306 200 301.674 200C300.682 200 300.186 200.264 300.186 200.792C300.186 201.008 300.25 201.18 300.378 201.308C300.514 201.428 300.718 201.524 300.99 201.596C301.262 201.668 301.642 201.732 302.13 201.788C303.362 201.916 304.246 202.152 304.782 202.496C305.318 202.832 305.586 203.324 305.586 203.972C305.586 204.684 305.282 205.232 304.674 205.616C304.074 206 303.178 206.192 301.986 206.192Z" fill="#949494"/>
<defs>
<clipPath id="clip0_402_3056">
<rect width="20" height="20" fill="white" transform="translate(195 110)"/>
</clipPath>
<clipPath id="clip1_402_3056">
<rect width="20" height="20" fill="white" transform="translate(187 138)"/>
</clipPath>
<clipPath id="clip2_402_3056">
<rect width="20" height="20" fill="white" transform="translate(173 166)"/>
</clipPath>
</defs>
</svg>
