<svg width="192" height="18" viewBox="0 0 192 18" fill="none" xmlns="http://www.w3.org/2000/svg">
<g clip-path="url(#clip0_402_2834)">
<path d="M64.3935 6.52483V4.37012H49.9724V6.81707H59.3391L49.2051 15.4771V17.6085H64.9231V15.1634H54.4713L64.3935 6.52483Z" fill="#E6FE51"/>
<path d="M83.9478 12.9443C83.9445 12.96 83.9389 12.9743 83.9355 12.989H83.9478V12.9443Z" fill="#E6FE51"/>
<path d="M82.9776 7.14264C82.2808 6.1184 81.2263 5.30277 79.9596 4.80829C76.8629 3.7193 73.3835 3.7148 70.283 4.79578C68.9796 5.29323 67.8822 6.11074 67.1326 7.14264C66.3693 8.2392 65.9844 9.49546 66.0217 10.7684V10.9471C65.9729 12.2816 66.3572 13.6018 67.1326 14.7637C67.8762 15.8135 68.9734 16.6505 70.283 17.1669C71.7688 17.7427 73.3889 18.0263 75.0222 17.9962C76.6085 18.0293 78.1882 17.8127 79.6813 17.3572C80.8371 17.0106 81.8581 16.4008 82.6325 15.5948C83.3138 14.8316 83.7604 13.9367 83.932 12.9906H80.0781V12.9687C79.99 13.3398 79.8098 13.6907 79.5496 13.9984C79.2894 14.306 78.9551 14.5632 78.5688 14.753C77.4987 15.2432 76.2893 15.4724 75.0749 15.4152C74.1225 15.4368 73.1766 15.2755 72.3082 14.9433C71.5473 14.6354 70.9283 14.1223 70.548 13.4844C70.2273 12.9452 70.033 12.3583 69.9757 11.7564H83.9937V10.7452C84.03 9.48985 83.6798 8.2482 82.9776 7.14264ZM70.5486 8.46711C70.9383 7.84303 71.5558 7.34266 72.3087 7.04076C73.1773 6.70918 74.1232 6.54848 75.0754 6.57067C76.0573 6.54824 77.033 6.70871 77.9338 7.04076C78.67 7.31042 79.2832 7.77533 79.6813 8.36567C79.9548 8.79117 80.1334 9.25576 80.2083 9.73616H70.0532C70.1372 9.2934 70.3045 8.86494 70.5486 8.46711Z" fill="#E6FE51"/>
<path d="M142.971 12.9395C142.971 12.9551 142.962 12.9694 142.959 12.9841H142.971V12.9395Z" fill="#E6FE51"/>
<path d="M142.005 7.13775C141.308 6.11399 140.254 5.29863 138.987 4.80385C135.891 3.71427 132.411 3.70977 129.311 4.79133C128.007 5.28875 126.91 6.10607 126.16 7.13775C125.397 8.23458 125.012 9.4909 125.049 10.7639V10.9427C125 12.2772 125.385 13.5975 126.16 14.7597C126.904 15.8093 128.001 16.6461 129.311 17.1624C130.796 17.7385 132.416 18.022 134.049 17.9918C135.636 18.025 137.216 17.8085 138.709 17.3532C139.865 17.0063 140.886 16.3966 141.66 15.5908C142.342 14.8277 142.788 13.9327 142.959 12.9866H139.105V12.9647C139.017 13.3352 138.836 13.6856 138.576 13.9926C138.316 14.2997 137.982 14.5564 137.596 14.7458C136.526 15.2365 135.316 15.4659 134.102 15.4085C133.149 15.4302 132.204 15.2689 131.335 14.9366C130.574 14.6286 129.955 14.1154 129.575 13.4772C129.255 12.9388 129.062 12.3528 129.006 11.7519H143.024V10.7407C143.059 9.4851 142.708 8.24335 142.005 7.13775ZM129.576 8.46266C129.966 7.83846 130.583 7.33805 131.337 7.03631C132.205 6.7047 133.151 6.54399 134.103 6.56623C135.085 6.54381 136.061 6.70427 136.962 7.03631C137.698 7.30598 138.311 7.77089 138.709 8.36123C138.982 8.78676 139.161 9.25112 139.236 9.73127H129.081C129.165 9.28863 129.332 8.86028 129.576 8.46266Z" fill="#E6FE51"/>
<path d="M116.51 14.6246L116.378 15.1854H116.325L116.113 14.6246L112.328 4.36621H107.802L103.964 14.6246L103.752 15.1854H103.698L103.592 14.6246L99.9659 4.36621H95.8633L101.104 17.6095H105.975L109.893 7.28415L109.999 6.92488H110.051L110.157 7.28415L114.101 17.6095H118.999L124.24 4.36621H120.136L116.51 14.6246Z" fill="#E6FE51"/>
<path d="M177.343 4.22948H172.959L168.467 9.2856H164.644V0.263672H160.795V17.6037H164.644V11.7777H168.388L173.333 17.6037H177.851L171.649 10.5538L177.343 4.22948Z" fill="#E6FE51"/>
<path d="M24.2984 4.37158H20.4355V17.6082H24.2984V4.37158Z" fill="#E6FE51"/>
<path d="M24.2984 0H20.4355V2.75841H24.2984V0Z" fill="#E6FE51"/>
<path d="M4.28654 10.3598H16.1117V7.77879H4.28654V3.74194H17.1709V0.9375H0V17.6055H17.329V14.8234H4.28654V10.3598Z" fill="#E6FE51"/>
<path d="M91.1283 13.6334V0.268555H87.2812V13.532C87.2812 15.7828 89.8635 17.6091 93.0523 17.6091H95.4565V14.856H93.0523C91.9904 14.856 91.1283 14.3095 91.1283 13.6334Z" fill="#E6FE51"/>
<path d="M39.2777 3.97705H39.187C37.6372 3.97705 35.9677 4.07134 34.3941 4.84528C33.6103 5.18469 32.9477 5.69547 32.4748 6.32481C32.3056 6.62241 31.8729 7.47366 31.8729 7.47366L31.4361 7.32039L32.2339 5.77607C32.3793 5.51384 32.4759 5.23406 32.5201 4.94672C32.5348 4.81937 32.5501 4.67861 32.5501 4.55126V4.36134H28.6504V17.6082H32.5185V11.5208C32.5085 10.7097 32.7142 9.90704 33.1203 9.17259C33.5214 8.44193 34.1579 7.8223 34.9564 7.38519C35.8774 6.90407 36.9455 6.66435 38.0266 6.69614C39.5617 6.69614 40.7058 7.04066 41.4731 7.71675C42.2257 8.39328 42.6019 9.42685 42.6019 10.8054V17.6082H46.44V10.4233C46.44 8.24091 45.8229 6.62018 44.5587 5.56114C43.2944 4.5021 41.5353 3.97705 39.2777 3.97705Z" fill="#E6FE51"/>
<path d="M152.04 4.84613C151.273 5.18903 150.62 5.69073 150.143 6.30465C150.143 6.32118 150.123 6.32118 150.123 6.33817C149.964 6.62281 149.53 7.47808 149.53 7.47808L149.089 7.32839L149.879 5.7863C150.01 5.54024 150.103 5.28106 150.156 5.01504C150.172 4.99544 150.179 4.97166 150.176 4.94801C150.176 4.83049 150.195 4.6799 150.195 4.56238V4.3613H146.301V17.6028H150.176V11.5181C150.173 11.3781 150.179 11.2382 150.195 11.0989C150.238 10.431 150.433 9.77643 150.769 9.1712C151.173 8.44423 151.81 7.82836 152.607 7.39408C153.525 6.91078 154.592 6.67142 155.671 6.70682C156.546 6.72011 157.419 6.79107 158.281 6.91907V4.15887C157.712 4.04136 157.127 3.98506 156.542 3.9913C154.978 3.93009 153.423 4.22527 152.04 4.84613Z" fill="#E6FE51"/>
<path d="M185.851 9.61523H182.777V12.2217H185.851V9.61523Z" fill="#E6FE51"/>
<path d="M188.924 12.2222H185.85V14.8287H188.924V12.2222Z" fill="#E6FE51"/>
<path d="M192.002 14.8291H188.928V17.4356H192.002V14.8291Z" fill="#E6FE51"/>
<path d="M188.924 7.00928H185.85V9.61576H188.924V7.00928Z" fill="#E6FE51"/>
<path d="M192.002 4.40234H188.928V7.00883H192.002V4.40234Z" fill="#E6FE51"/>
</g>
<defs>
<clipPath id="clip0_402_2834">
<rect width="192" height="18" fill="white"/>
</clipPath>
</defs>
</svg>
