<svg width="466" height="378" viewBox="0 0 466 378" fill="none" xmlns="http://www.w3.org/2000/svg">
<rect y="0.363037" width="104.643" height="104.643" rx="9.41414" fill="#E6FE51"/>
<rect opacity="0.8" y="120.814" width="104.643" height="76.738" rx="9.41414" fill="#E6FE51"/>
<rect opacity="0.6" y="213.361" width="104.643" height="186.031" rx="9.41414" fill="#E6FE51"/>
<rect x="120.452" y="0.363037" width="104.643" height="104.643" rx="9.41414" fill="#E6FE51"/>
<rect opacity="0.8" x="120.851" y="121.213" width="103.846" height="75.9409" rx="9.01558" stroke="#E6FE51" stroke-width="0.797116"/>
<rect opacity="0.6" x="120.452" y="213.361" width="104.643" height="186.031" rx="9.41414" fill="#E6FE51"/>
<rect x="240.905" y="0.363037" width="104.643" height="104.643" rx="9.41414" fill="#E6FE51"/>
<rect opacity="0.8" x="240.905" y="120.814" width="104.643" height="76.738" rx="9.41414" fill="#E6FE51"/>
<rect opacity="0.6" x="240.905" y="213.361" width="104.643" height="186.031" rx="9.41414" fill="#E6FE51"/>
<rect x="361.357" y="0.363037" width="104.643" height="104.643" rx="9.41414" fill="#E6FE51"/>
<rect opacity="0.8" x="361.357" y="120.814" width="104.643" height="76.738" rx="9.41414" fill="#E6FE51"/>
<rect opacity="0.6" x="361.357" y="213.361" width="104.643" height="186.031" rx="9.41414" fill="#E6FE51"/>
<rect x="143.818" y="141.154" width="104.643" height="76.738" rx="9.41414" transform="rotate(-16.5263 143.818 141.154)" fill="#E6FE51"/>
</svg>
