<svg width="122" height="180" viewBox="0 0 122 180" fill="none" xmlns="http://www.w3.org/2000/svg">
<rect opacity="0.6" x="0.288292" y="78.9113" width="58.8115" height="58.4597" rx="9.51363" fill="#272727" stroke="#E6FE51" stroke-width="0.576584"/>
<ellipse cx="29.6948" cy="108.143" rx="21.3589" ry="21.2323" fill="#E6FE51"/>
<rect opacity="0.6" x="0.288292" y="10.5344" width="58.8115" height="58.4597" rx="9.51363" fill="#272727" stroke="#E6FE51" stroke-width="0.576584"/>
<path d="M53.1373 39.5039C53.1373 45.0343 45.5714 47.8682 41.8854 51.4878C38.1995 55.1074 35.3128 62.5487 29.6946 62.5487C24.0765 62.5487 21.1859 55.1017 17.5038 51.4878C13.8217 47.8739 6.25195 45.0267 6.25195 39.5039C6.25195 33.981 13.8179 31.1395 17.5038 27.5199C21.1898 23.9003 24.0765 16.459 29.6946 16.459C35.3128 16.459 38.2034 23.8965 41.8854 27.5199C45.5675 31.1433 53.1373 33.981 53.1373 39.5039Z" fill="#E6FE51"/>
<rect opacity="0.6" x="68.9035" y="42.8215" width="58.8103" height="58.4936" rx="9.51363" fill="#272727" stroke="#E6FE51" stroke-width="0.576584"/>
<path d="M120.709 72.0702C120.709 74.2627 116.561 75.7759 115.914 77.7533C115.245 79.8055 117.68 83.4484 116.429 85.155C115.179 86.8616 110.919 85.694 109.185 86.9486C107.45 88.2031 107.294 92.576 105.231 93.2335C103.241 93.8741 100.514 90.4488 98.3073 90.4488C96.1007 90.4488 93.376 93.8741 91.3835 93.2335C89.3204 92.5663 89.1477 88.1814 87.4301 86.9486C85.7125 85.7158 81.4478 86.8761 80.1851 85.1526C78.9225 83.429 81.3699 79.8055 80.7009 77.7533C80.0537 75.7759 75.9082 74.2627 75.9082 72.0702C75.9082 69.8778 80.044 68.3621 80.7009 66.3848C81.3699 64.335 78.9346 60.6922 80.1851 58.9856C81.4356 57.279 85.6955 58.4441 87.4301 57.1895C89.1647 55.935 89.3204 51.5621 91.3835 50.9046C93.376 50.2616 96.1007 53.6869 98.3073 53.6869C100.514 53.6869 103.241 50.2616 105.231 50.9046C107.294 51.5694 107.467 55.9543 109.185 57.1895C110.902 58.4247 115.167 57.2621 116.429 58.9856C117.692 60.7091 115.245 64.335 115.914 66.3848C116.561 68.3621 120.709 69.8778 120.709 72.0702Z" fill="#E6FE51"/>
<rect opacity="0.6" x="68.9035" y="111.175" width="58.8103" height="58.4936" rx="9.51363" fill="#272727" stroke="#E6FE51" stroke-width="0.576584"/>
<rect x="76.9512" y="119.178" width="42.7169" height="42.4891" rx="9.80192" fill="#E6FE51"/>
</svg>
