<svg width="180" height="60" viewBox="0 0 180 60" fill="none" xmlns="http://www.w3.org/2000/svg">
<g clip-path="url(#clip0_608_385)">
<path fill-rule="evenodd" clip-rule="evenodd" d="M40.4927 53.7748H41.5267V47.6566C41.5267 46.1391 41.204 44.5477 38.7803 44.5477C36.3127 44.5477 35.825 45.9692 35.693 46.9551H36.991C37.0277 46.2166 37.2183 45.2862 38.6667 45.2862C40.4927 45.2862 40.4927 46.7446 40.4927 48.1477V48.7532C37.0093 48.7532 35.4877 49.968 35.4877 51.6923C35.4877 52.8849 36.4263 53.9852 37.8747 53.9852C39.3817 53.9852 40.2653 52.8074 40.4523 52.3717H40.4927V53.7748ZM40.4927 50.0049C40.4927 51.2751 39.906 53.0363 38.1973 53.0363C37.332 53.0363 36.6353 52.4677 36.6353 51.5594C36.6353 49.5139 39.6237 49.4917 40.4927 49.4917V50.0049Z" fill="#949494"/>
<path fill-rule="evenodd" clip-rule="evenodd" d="M44.6213 53.7748H45.659V49.6246C45.659 48.1477 46.616 45.4966 48.255 45.4966C49.5347 45.4966 49.5347 46.9366 49.5347 47.5975V53.7748H50.5687V49.6246C50.5687 48.1477 51.4523 45.4966 53.128 45.4966C54.4443 45.4966 54.4443 46.8406 54.4443 47.6935V53.7748H55.4783V46.9735C55.4783 45.8732 54.9687 44.5477 53.3883 44.5477C51.7347 44.5477 50.8107 46.4049 50.6053 46.992H50.5687C50.5687 45.6074 49.872 44.5477 48.497 44.5477C47.089 44.5477 46.0917 45.9323 45.6957 47.0105H45.659V44.7582H44.6213V53.7748Z" fill="#949494"/>
<path fill-rule="evenodd" clip-rule="evenodd" d="M63.8824 40.704H62.8484V49.6062C62.8484 50.8763 62.8484 53.9852 65.9687 53.9852C68.2091 53.9852 69.4337 52.1095 69.4337 49.3588C69.4337 46.5563 68.2641 44.5477 66.3831 44.5477C65.1034 44.5477 64.4287 45.456 63.9191 46.5563H63.8824V40.704ZM63.9557 49.6246C63.9557 47.3132 64.8797 45.2862 66.1961 45.2862C67.8534 45.2862 68.2861 47.5975 68.2861 49.5139C68.2861 51.4819 67.6444 53.2431 65.9907 53.2431C64.3701 53.2431 63.9557 51.2566 63.9557 49.6246Z" fill="#949494"/>
<path fill-rule="evenodd" clip-rule="evenodd" d="M76.052 53.7748H77.086V47.6566C77.086 46.1391 76.767 44.5477 74.3397 44.5477C71.8757 44.5477 71.388 45.9692 71.256 46.9551H72.554C72.5907 46.2166 72.7777 45.2862 74.226 45.2862C76.052 45.2862 76.052 46.7446 76.052 48.1477V48.7532C72.5723 48.7532 71.047 49.968 71.047 51.6923C71.047 52.8849 71.9893 53.9852 73.4377 53.9852C74.941 53.9852 75.8247 52.8074 76.0153 52.3717H76.052V53.7748ZM76.052 50.0049C76.052 51.2751 75.469 53.0363 73.7567 53.0363C72.8913 53.0363 72.1947 52.4677 72.1947 51.5594C72.1947 49.5139 75.1867 49.4917 76.052 49.4917V50.0049Z" fill="#949494"/>
<path fill-rule="evenodd" clip-rule="evenodd" d="M80.2211 53.7748H81.2551V40.704H80.2211V53.7748Z" fill="#949494"/>
<path fill-rule="evenodd" clip-rule="evenodd" d="M84.3937 53.7748H85.4277V40.704H84.3937V53.7748Z" fill="#949494"/>
<path fill-rule="evenodd" clip-rule="evenodd" d="M88.5627 53.7748H89.5967V44.7582H88.5627V53.7748ZM88.4124 42.2363H89.7287V40.704H88.4124V42.2363Z" fill="#949494"/>
<path fill-rule="evenodd" clip-rule="evenodd" d="M93.7474 44.7582H92.7134V53.7748H93.7474V49.7022C93.7474 48.6425 94.708 45.4966 96.5707 45.4966C97.8687 45.4966 97.9824 46.6523 97.9824 47.7489V53.7748H99.0164V47.4831C99.0164 46.3089 98.811 44.5477 96.7577 44.5477C94.895 44.5477 94.0114 46.5563 93.7877 47.2209H93.7474V44.7582Z" fill="#949494"/>
<path fill-rule="evenodd" clip-rule="evenodd" d="M107.05 53.7748H108.084V40.704H107.05V46.5563H107.01C106.841 45.9877 106.276 44.5477 104.586 44.5477C102.401 44.5477 101.444 46.6523 101.444 49.3219C101.444 51.5594 102.008 53.9852 104.414 53.9852C106.071 53.9852 106.859 52.5637 107.01 51.936H107.05V53.7748ZM102.591 49.3994C102.591 47.2579 103.138 45.2862 104.641 45.2862C106.298 45.2862 107.05 48.0739 107.05 49.1705C107.05 51.3859 105.994 53.2431 104.472 53.2431C102.984 53.2431 102.591 51.1791 102.591 49.3994Z" fill="#949494"/>
<path fill-rule="evenodd" clip-rule="evenodd" d="M115.417 53.7748H116.451V47.6566C116.451 46.1391 116.132 44.5477 113.705 44.5477C111.241 44.5477 110.75 45.9692 110.618 46.9551H111.916C111.956 46.2166 112.143 45.2862 113.591 45.2862C115.417 45.2862 115.417 46.7446 115.417 48.1477V48.7532C111.934 48.7532 110.412 49.968 110.412 51.6923C110.412 52.8849 111.351 53.9852 112.803 53.9852C114.306 53.9852 115.19 52.8074 115.377 52.3717H115.417V53.7748ZM115.417 50.0049C115.417 51.2751 114.834 53.0363 113.122 53.0363C112.257 53.0363 111.56 52.4677 111.56 51.5594C111.56 49.5139 114.552 49.4917 115.417 49.4917V50.0049Z" fill="#949494"/>
<path fill-rule="evenodd" clip-rule="evenodd" d="M119.55 53.7748H120.584V49.6246C120.584 48.1477 121.544 45.4966 123.18 45.4966C124.459 45.4966 124.459 46.9366 124.459 47.5975V53.7748H125.493V49.6246C125.493 48.1477 126.377 45.4966 128.053 45.4966C129.369 45.4966 129.369 46.8406 129.369 47.6935V53.7748H130.403V46.9735C130.403 45.8732 129.897 44.5477 128.317 44.5477C126.659 44.5477 125.739 46.4049 125.53 46.992H125.493C125.493 45.6074 124.797 44.5477 123.425 44.5477C122.014 44.5477 121.016 45.9323 120.62 47.0105H120.584V44.7582H119.55V53.7748Z" fill="#949494"/>
<path fill-rule="evenodd" clip-rule="evenodd" d="M133.505 53.7748H134.539V49.6246C134.539 48.1477 135.5 45.4966 137.135 45.4966C138.415 45.4966 138.415 46.9366 138.415 47.5975V53.7748H139.449V49.6246C139.449 48.1477 140.332 45.4966 142.008 45.4966C143.324 45.4966 143.324 46.8406 143.324 47.6935V53.7748H144.362V46.9735C144.362 45.8732 143.852 44.5477 142.272 44.5477C140.615 44.5477 139.694 46.4049 139.489 46.992H139.449C139.449 45.6074 138.752 44.5477 137.381 44.5477C135.969 44.5477 134.972 45.9323 134.576 47.0105H134.539V44.7582H133.505V53.7748Z" fill="#949494"/>
<path fill-rule="evenodd" clip-rule="evenodd" d="M37.1744 6.01477H35.3667V21.5852C35.3667 23.808 35.3667 29.2394 40.8264 29.2394C44.7424 29.2394 46.88 25.9606 46.88 21.1569C46.88 16.2535 44.8414 12.7422 41.5524 12.7422C39.3157 12.7422 38.1314 14.3335 37.2404 16.2535H37.1744V6.01477ZM37.3064 21.6185C37.3064 17.5791 38.9197 14.0345 41.2224 14.0345C44.1154 14.0345 44.8744 18.0738 44.8744 21.4228C44.8744 24.8677 43.756 27.9471 40.8594 27.9471C38.0324 27.9471 37.3064 24.4689 37.3064 21.6185Z" fill="white"/>
<path fill-rule="evenodd" clip-rule="evenodd" d="M60.1974 28.8738H62.0087V13.1077H60.1974V20.2264C60.1974 23.3095 58.7857 27.5815 55.3941 27.5815C53.7514 27.5815 52.7651 26.0935 52.7651 23.675V13.1077H50.9537V24.1034C50.9537 26.16 51.5477 29.2394 55.5591 29.2394C58.6207 29.2394 59.8051 26.027 60.1314 24.9674H60.1974V28.8738Z" fill="white"/>
<path fill-rule="evenodd" clip-rule="evenodd" d="M67.5967 28.8738H69.408V6.01477H67.5967V28.8738Z" fill="white"/>
<path fill-rule="evenodd" clip-rule="evenodd" d="M81.9627 27.7145C81.5044 27.8806 81.0424 27.9471 80.5474 27.9471C77.7204 27.9471 77.7204 25.8277 77.7204 24.3028V14.4628H81.8307V13.1077H77.7204V8.30402L75.9091 9.43017V13.1077H73.3424V14.4628H75.9091V25.5619C75.9091 28.8739 78.2777 29.2394 80.3494 29.2394C80.9104 29.2394 81.4384 29.1729 81.9627 29.1397V27.7145Z" fill="white"/>
<path fill-rule="evenodd" clip-rule="evenodd" d="M85.4351 28.8738H87.2464V21.5188C87.2464 19.8646 88.9221 14.3963 92.1817 14.3963C94.4514 14.3963 94.6494 16.5526 94.6494 18.3397V28.8738H96.4571V17.7452C96.4571 14.7618 95.5037 12.7422 92.5081 12.7422C89.3511 12.7422 87.7047 16.2535 87.3124 17.4129H87.2464V6.01477H85.4351V28.8738Z" fill="white"/>
<path fill-rule="evenodd" clip-rule="evenodd" d="M109.283 28.8738H111.094V18.1735C111.094 15.5261 110.533 12.7421 106.291 12.7421C101.983 12.7421 101.125 15.227 100.897 16.9477H103.167C103.233 15.6554 103.559 14.0344 106.093 14.0344C109.283 14.0344 109.283 16.5858 109.283 19.0375V20.0972C103.2 20.0972 100.534 22.2166 100.534 25.2295C100.534 27.3194 102.177 29.2394 104.711 29.2394C107.343 29.2394 108.891 27.1864 109.217 26.4221H109.283V28.8738ZM109.283 22.283C109.283 24.5021 108.264 27.5815 105.272 27.5815C103.757 27.5815 102.54 26.5883 102.54 25.0006C102.54 21.4227 107.772 21.3895 109.283 21.3895V22.283Z" fill="white"/>
<path fill-rule="evenodd" clip-rule="evenodd" d="M125.655 28.8738H127.462V13.1077H125.655V20.2264C125.655 23.3095 124.239 27.5815 120.851 27.5815C119.205 27.5815 118.219 26.0935 118.219 23.675V13.1077H116.411V24.1034C116.411 26.16 117.001 29.2394 121.016 29.2394C124.074 29.2394 125.259 26.027 125.589 24.9674H125.655V28.8738Z" fill="white"/>
<path fill-rule="evenodd" clip-rule="evenodd" d="M133.021 35.9631H134.829V25.728H134.895C135.192 26.7212 136.178 29.2394 139.141 29.2394C143.119 29.2394 144.633 25.296 144.633 21.1569C144.633 16.3532 142.892 12.7421 139.174 12.7421C136.508 12.7421 135.258 15.2603 134.895 16.2867H134.829V13.1077H133.021V35.9631ZM134.829 20.7914C134.829 18.3729 136.31 14.0344 139.009 14.0344C141.608 14.0344 142.628 17.579 142.628 21.2234C142.628 24.4357 141.608 27.9471 139.042 27.9471C136.145 27.9471 134.829 23.2431 134.829 20.7914Z" fill="white"/>
</g>
<defs>
<clipPath id="clip0_608_385">
<rect width="110" height="48" fill="white" transform="translate(35 6)"/>
</clipPath>
</defs>
</svg>
