<svg fill="#fff" class="svg-icon" xmlns="http://www.w3.org/2000/svg" xmlns:xlink="http://www.w3.org/1999/xlink"><defs><symbol viewBox="0 0 84 84" fill="none" id="99_sprite">
<circle cx="42.4988" cy="42.0015" r="41.5" fill="white" />
<path d="M26.6007 28.4515C29.1886 28.4515 31.041 29.0167 32.1579 30.1472C33.2747 31.2777 33.8332 32.8713 33.8332 34.928V37.0732C33.8332 39.3615 33.2475 41.1322 32.0761 42.3852C30.9048 43.6383 29.1069 44.2649 26.6824 44.2649C25.0752 44.2649 23.7676 44.0265 22.7597 43.5498C21.7654 43.0731 21.0503 42.467 20.6145 41.7315C20.1786 40.9823 19.9607 40.1855 19.9607 39.3411H23.0662C23.0662 40.0493 23.3522 40.6418 23.9243 41.1185C24.5099 41.5816 25.443 41.8132 26.7233 41.8132C28.0172 41.8132 29.0115 41.4591 29.7062 40.7508C30.4008 40.0289 30.7481 38.9665 30.7481 37.5636V36.7464H30.7073C30.1897 37.3184 29.5495 37.7543 28.7868 38.0539C28.0377 38.3536 27.057 38.5034 25.8448 38.5034C24.3193 38.5034 23.0798 38.2787 22.1264 37.8292C21.1865 37.3797 20.5123 36.8008 20.1037 36.0926C19.7087 35.3843 19.5112 34.6216 19.5112 33.8043C19.5112 32.2243 20.0765 30.9372 21.207 29.9429C22.3375 28.9486 24.1354 28.4515 26.6007 28.4515ZM26.662 30.9236C25.2046 30.9236 24.1694 31.2096 23.5565 31.7817C22.9436 32.3537 22.6371 33.028 22.6371 33.8043C22.6371 34.5535 22.93 35.2004 23.5156 35.7452C24.115 36.2764 25.1569 36.542 26.6416 36.542C28.0036 36.542 29.0183 36.2901 29.6857 35.7861C30.3531 35.2685 30.6869 34.6147 30.6869 33.8248C30.6869 33.2936 30.537 32.81 30.2374 32.3742C29.9377 31.9383 29.4814 31.591 28.8685 31.3322C28.2692 31.0598 27.5337 30.9236 26.662 30.9236ZM42.6819 28.4515C45.2698 28.4515 47.1222 29.0167 48.2391 30.1472C49.356 31.2777 49.9144 32.8713 49.9144 34.928V37.0732C49.9144 39.3615 49.3288 41.1322 48.1574 42.3852C46.986 43.6383 45.1881 44.2649 42.7637 44.2649C41.1565 44.2649 39.8489 44.0265 38.841 43.5498C37.8467 43.0731 37.1316 42.467 36.6957 41.7315C36.2599 40.9823 36.0419 40.1855 36.0419 39.3411H39.1474C39.1474 40.0493 39.4335 40.6418 40.0055 41.1185C40.5912 41.5816 41.5242 41.8132 42.8045 41.8132C44.0985 41.8132 45.0928 41.4591 45.7874 40.7508C46.4821 40.0289 46.8294 38.9665 46.8294 37.5636V36.7464H46.7885C46.271 37.3184 45.6308 37.7543 44.868 38.0539C44.1189 38.3536 43.1382 38.5034 41.926 38.5034C40.4005 38.5034 39.161 38.2787 38.2076 37.8292C37.2678 37.3797 36.5936 36.8008 36.185 36.0926C35.79 35.3843 35.5925 34.6216 35.5925 33.8043C35.5925 32.2243 36.1577 30.9372 37.2882 29.9429C38.4187 28.9486 40.2166 28.4515 42.6819 28.4515ZM42.7432 30.9236C41.2858 30.9236 40.2507 31.2096 39.6378 31.7817C39.0248 32.3537 38.7184 33.028 38.7184 33.8043C38.7184 34.5535 39.0112 35.2004 39.5969 35.7452C40.1962 36.2764 41.2382 36.542 42.7228 36.542C44.0849 36.542 45.0996 36.2901 45.767 35.7861C46.4344 35.2685 46.7681 34.6147 46.7681 33.8248C46.7681 33.2936 46.6183 32.81 46.3186 32.3742C46.019 31.9383 45.5627 31.591 44.9498 31.3322C44.3505 31.0598 43.615 30.9236 42.7432 30.9236ZM66.3839 39.6884C66.3839 41.0504 65.8799 42.1128 64.872 42.8756C63.8641 43.6383 62.3999 44.0878 60.4794 44.224V46.4101H57.4965V44.1832C55.5351 43.9788 54.0641 43.4204 53.0834 42.5078C52.1028 41.5953 51.592 40.4511 51.5511 39.0755H54.7792C54.8337 40.9142 56.3047 41.8336 59.1922 41.8336C60.5134 41.8336 61.4873 41.6634 62.1138 41.3228C62.7404 40.9687 63.0537 40.4443 63.0537 39.7497C63.0537 39.2593 62.9379 38.878 62.7063 38.6056C62.4748 38.3195 62.0457 38.0812 61.4192 37.8905C60.7927 37.6998 59.8324 37.5091 58.5385 37.3184C56.8631 37.0732 55.5556 36.7532 54.6158 36.3582C53.6896 35.9496 53.0358 35.4524 52.6544 34.8667C52.2866 34.2674 52.1028 33.5319 52.1028 32.6602C52.1028 31.5433 52.5386 30.6103 53.4103 29.8612C54.2957 29.1121 55.6577 28.6626 57.4965 28.5128V26.3267H60.4794V28.5332C62.2909 28.7375 63.653 29.2823 64.5655 30.1676C65.4781 31.0394 65.9821 32.1631 66.0774 33.5387H62.9924C62.8153 31.7681 61.4737 30.8827 58.9675 30.8827C57.7417 30.8827 56.8427 31.053 56.2706 31.3935C55.7122 31.7204 55.433 32.1631 55.433 32.7215V32.7419C55.433 33.1369 55.5283 33.4706 55.719 33.743C55.9233 34.0018 56.2911 34.2266 56.8223 34.4172C57.3535 34.5943 58.1298 34.751 59.1514 34.8872C61.1127 35.1459 62.6178 35.5001 63.6666 35.9496C64.7154 36.3854 65.4304 36.903 65.8118 37.5023C66.1932 38.088 66.3839 38.8167 66.3839 39.6884Z" fill="#1A1A1A" />
<path d="M29.4819 59.1701H27.8259V57.1901H25.6899V55.7141H27.8259V53.7461H29.4819V55.7141H31.6179V57.1901H29.4819V59.1701ZM36.2105 60.7061L32.2985 51.7901H34.4225L37.4225 59.0981L37.5065 59.3261H37.5305L37.6145 59.0981L40.6025 51.7901H42.7265L38.8025 60.7061H36.2105ZM52.0795 60.7061H49.9555L49.1275 58.6901H44.5555L43.7155 60.7061H41.5915L45.5395 51.7901H48.1075L52.0795 60.7061ZM46.6795 53.5541L45.1315 57.2981H48.5515L47.0035 53.5541L46.8475 53.1101H46.8235L46.6795 53.5541ZM56.4133 60.7061H54.4693V53.2901H50.9773V51.7901H59.9173V53.2901H56.4133V60.7061Z" fill="#949494" />
</symbol><symbol viewBox="0 0 24 24" fill="none" id="clock_sprite">
<g clip-path="url(#clock_sprite_clip0_402_2879)">
<path d="M17.1426 6.03387H15.4284V7.73833H17.1426V6.03387Z" fill="#E6FE51" />
<path d="M15.4281 4.32935H13.7139V6.03388H15.4281V4.32935Z" fill="#E6FE51" />
<path d="M15.4281 9.44281H13.7139V11.1473H15.4281V9.44281Z" fill="#E6FE51" />
<path d="M15.4281 11.1473H13.7139V12.8518H15.4281V11.1473Z" fill="#E6FE51" />
<path d="M15.4281 12.8517H13.7139V14.5562H15.4281V12.8517Z" fill="#E6FE51" />
<path d="M17.1426 12.8517H15.4284V14.5562H17.1426V12.8517Z" fill="#E6FE51" />
<path d="M18.8564 12.8517H17.1422V14.5562H18.8564V12.8517Z" fill="#E6FE51" />
<path d="M13.7143 2.62488H12.0001V4.32934H13.7143V2.62488Z" fill="#E6FE51" />
<path d="M15.4288 2.62488H13.7146V4.32934H15.4288V2.62488Z" fill="#E6FE51" />
<path d="M17.1426 2.62488H15.4284V4.32934H17.1426V2.62488Z" fill="#E6FE51" />
<path d="M18.8564 6.03387H17.1422V7.73833H18.8564V6.03387Z" fill="#E6FE51" />
<path d="M22.2855 6.03387H20.5713V7.73833H22.2855V6.03387Z" fill="#E6FE51" />
<path d="M22.2855 4.32935H20.5713V6.03388H22.2855V4.32935Z" fill="#E6FE51" />
<path d="M24 6.03387H22.2858V7.73833H24V6.03387Z" fill="#E6FE51" />
<path d="M15.4281 6.03387H13.7139V7.73833H15.4281V6.03387Z" fill="#E6FE51" />
<path d="M13.7143 6.03387H12.0001V7.73833H13.7143V6.03387Z" fill="#E6FE51" />
<path d="M17.1426 19.6697H15.4284V21.3741H17.1426V19.6697Z" fill="#E6FE51" />
<path d="M18.8564 19.6697H17.1422V21.3741H18.8564V19.6697Z" fill="#E6FE51" />
<path d="M15.4281 19.6697H13.7139V21.3741H15.4281V19.6697Z" fill="#E6FE51" />
<path d="M13.7143 19.6697H12.0001V21.3741H13.7143V19.6697Z" fill="#E6FE51" />
<path d="M12.0005 19.6697H10.2863V21.3741H12.0005V19.6697Z" fill="#E6FE51" />
<path d="M12.0005 6.03387H10.2863V7.73833H12.0005V6.03387Z" fill="#E6FE51" />
<path d="M10.286 17.9651H8.57175V19.6697H10.286V17.9651Z" fill="#E6FE51" />
<path d="M20.571 7.73834H18.8567V9.4428H20.571V7.73834Z" fill="#E6FE51" />
<path d="M10.286 7.73834H8.57175V9.4428H10.286V7.73834Z" fill="#E6FE51" />
<path d="M20.571 17.9651H18.8567V19.6697H20.571V17.9651Z" fill="#E6FE51" />
<path d="M22.2855 9.44281H20.5713V11.1473H22.2855V9.44281Z" fill="#E6FE51" />
<path d="M8.57149 9.44281H6.85721V11.1473H8.57149V9.44281Z" fill="#E6FE51" />
<path d="M5.14317 9.44281H0.000549316V11.1473H5.14317V9.44281Z" fill="#E6FE51" />
<path d="M5.14284 12.8517H1.71435V14.5562H5.14284V12.8517Z" fill="#E6FE51" />
<path d="M5.14309 16.2607H3.42888V17.9652H5.14309V16.2607Z" fill="#E6FE51" />
<path d="M8.57149 11.1473H6.85721V12.8518H8.57149V11.1473Z" fill="#E6FE51" />
<path d="M8.57149 12.8517H6.85721V14.5562H8.57149V12.8517Z" fill="#E6FE51" />
<path d="M8.57149 16.2607H6.85721V17.9652H8.57149V16.2607Z" fill="#E6FE51" />
<path d="M8.57149 14.5562H6.85721V16.2607H8.57149V14.5562Z" fill="#E6FE51" />
<path d="M22.2855 11.1473H20.5713V12.8518H22.2855V11.1473Z" fill="#E6FE51" />
<path d="M22.2855 12.8517H20.5713V14.5562H22.2855V12.8517Z" fill="#E6FE51" />
<path d="M22.2855 16.2607H20.5713V17.9652H22.2855V16.2607Z" fill="#E6FE51" />
<path d="M22.2855 14.5562H20.5713V16.2607H22.2855V14.5562Z" fill="#E6FE51" />
</g>
<defs>

</defs>
</symbol><clipPath id="clock_sprite_clip0_402_2879">
<rect width="23.9995" height="23.9991" fill="white" transform="translate(0.000549316)" />
</clipPath><symbol viewBox="0 0 28 28" fill="none" id="close_sprite">
<path d="M14.0003 0.666504C21.3737 0.666504 27.3337 6.6265 27.3337 13.9998C27.3337 21.3732 21.3737 27.3332 14.0003 27.3332C6.62699 27.3332 0.666992 21.3732 0.666992 13.9998C0.666992 6.6265 6.62699 0.666504 14.0003 0.666504ZM18.787 7.33317L14.0003 12.1198L9.21366 7.33317L7.33366 9.21317L12.1203 13.9998L7.33366 18.7865L9.21366 20.6665L14.0003 15.8798L18.787 20.6665L20.667 18.7865L15.8803 13.9998L20.667 9.21317L18.787 7.33317Z" fill="#949494" />
</symbol><symbol viewBox="0 0 32 32" fill="none" id="faq_sprite">
<path d="M21 15L16 20L11 15L11.8875 14.1125L16 18.225L20.1125 14.1125L21 15Z" fill="currentColor" />
<rect x="0.5" y="31.5" width="31" height="31" rx="15.5" transform="rotate(-90 0.5 31.5)" stroke="currentColor" />
</symbol><symbol viewBox="0 0 24 24" fill="none" id="share_sprite">
<g clip-path="url(#share_sprite_clip0_402_12984)">
<path d="M7.28906 5.79883L11.8727 1.99961L16.4563 5.79883" stroke="#D8D8D8" stroke-width="1.5" stroke-linecap="round" stroke-linejoin="round" />
<path d="M11.873 2.3818L11.873 18" stroke="#D8D8D8" stroke-width="1.5" stroke-linecap="round" />
<path d="M8.0177 9.625L6.97786 9.7978C5.43262 10.0546 4.65999 10.183 4.05394 10.5205C3.20691 10.9921 2.56002 11.7554 2.23357 12.6683C2 13.3215 2 14.1047 2 15.6711V15.6711C2 17.4916 2 18.4018 2.29077 19.1222C2.69726 20.1293 3.49575 20.9277 4.5028 21.3342C5.22316 21.625 6.1334 21.625 7.95387 21.625H16.0461C17.8666 21.625 18.7768 21.625 19.4972 21.3342C20.5043 20.9277 21.3027 20.1293 21.7092 19.1222C22 18.4018 22 17.4916 22 15.6711V15.6711C22 14.1047 22 13.3215 21.7664 12.6683C21.44 11.7554 20.7931 10.9921 19.9461 10.5205C19.34 10.183 18.5674 10.0546 17.0221 9.7978L15.9823 9.625" stroke="#D8D8D8" stroke-width="1.5" stroke-linecap="round" />
</g>
<defs>

</defs>
</symbol><clipPath id="share_sprite_clip0_402_12984">
<rect width="24" height="24" fill="white" />
</clipPath><symbol viewBox="0 0 20 20" fill="none" id="toolbox_sprite">
<path d="M10.2695 12.041H8.77539C8.7793 11.6895 8.80664 11.3867 8.85742 11.1328C8.91211 10.875 9.00391 10.6426 9.13281 10.4355C9.26562 10.2285 9.44141 10.0234 9.66016 9.82031C9.84375 9.65625 10.0039 9.5 10.1406 9.35156C10.2773 9.20312 10.3848 9.05078 10.4629 8.89453C10.541 8.73437 10.5801 8.55664 10.5801 8.36133C10.5801 8.13477 10.5449 7.94727 10.4746 7.79883C10.4082 7.64648 10.3066 7.53125 10.1699 7.45312C10.0371 7.375 9.86914 7.33594 9.66602 7.33594C9.49805 7.33594 9.3418 7.37305 9.19727 7.44727C9.05273 7.51758 8.93359 7.62695 8.83984 7.77539C8.75 7.92383 8.70312 8.11914 8.69922 8.36133H7C7.01172 7.82617 7.13477 7.38477 7.36914 7.03711C7.60742 6.68555 7.92578 6.42578 8.32422 6.25781C8.72266 6.08594 9.16992 6 9.66602 6C10.2129 6 10.6816 6.08984 11.0723 6.26953C11.4629 6.44531 11.7617 6.70508 11.9687 7.04883C12.1758 7.38867 12.2793 7.80273 12.2793 8.29102C12.2793 8.63086 12.2129 8.93359 12.0801 9.19922C11.9473 9.46094 11.7734 9.70508 11.5586 9.93164C11.3437 10.1582 11.1074 10.3926 10.8496 10.6348C10.627 10.834 10.4746 11.043 10.3926 11.2617C10.3145 11.4805 10.2734 11.7402 10.2695 12.041ZM8.59961 13.8516C8.59961 13.6016 8.68555 13.3945 8.85742 13.2305C9.0293 13.0625 9.25977 12.9785 9.54883 12.9785C9.83398 12.9785 10.0625 13.0625 10.2344 13.2305C10.4102 13.3945 10.498 13.6016 10.498 13.8516C10.498 14.0937 10.4102 14.2988 10.2344 14.4668C10.0625 14.6348 9.83398 14.7187 9.54883 14.7187C9.25977 14.7187 9.0293 14.6348 8.85742 14.4668C8.68555 14.2988 8.59961 14.0937 8.59961 13.8516Z" fill="#6C6C6C" />
<circle cx="10" cy="10" r="9.25" stroke="#6C6C6C" stroke-width="1.5" />
</symbol></defs></svg>