<svg width="100" height="28" viewBox="0 0 100 28" fill="none" xmlns="http://www.w3.org/2000/svg">
<path d="M60.7742 2H53.7685C53.2896 2 52.8819 2.34855 52.8072 2.82147L49.9741 20.7853C49.9181 21.1398 50.1917 21.461 50.5509 21.461H54.1454C54.4804 21.461 54.7666 21.217 54.8183 20.8857L55.6221 15.7928C55.6964 15.3196 56.1041 14.9714 56.5837 14.9714H58.8006C63.4149 14.9714 66.078 12.738 66.7742 8.31172C67.0875 6.37626 66.7868 4.85485 65.8803 3.7903C64.8841 2.61902 63.118 2 60.7742 2ZM61.5827 8.56078C61.1999 11.0756 59.2795 11.0756 57.4215 11.0756H56.3652L57.1064 6.38036C57.1514 6.09698 57.396 5.88791 57.6832 5.88791H58.1678C59.4322 5.88791 60.6271 5.88791 61.2427 6.60832C61.6108 7.03905 61.7222 7.6779 61.5827 8.56078Z" fill="white"/>
<path d="M10.8076 2H3.80194C3.32303 2 2.91529 2.34855 2.84035 2.82147L0.00722129 20.7853C-0.0485093 21.1398 0.225421 21.461 0.584363 21.461H3.92946C4.40836 21.461 4.81611 21.1124 4.89104 20.6392L5.65553 15.7928C5.73015 15.3196 6.1379 14.9714 6.6168 14.9714H8.83375C13.4484 14.9714 16.1115 12.738 16.8076 8.31172C17.1209 6.37626 16.8202 4.85485 15.914 3.7903C14.9169 2.61902 13.1511 2 10.8076 2ZM11.6159 8.56078C11.233 11.0756 9.31234 11.0756 7.45497 11.0756H6.39797L7.13916 6.38036C7.18418 6.09698 7.42852 5.88791 7.71598 5.88791H8.20056C9.46504 5.88791 10.6596 5.88791 11.2752 6.60832C11.6436 7.03905 11.755 7.6779 11.6159 8.56078Z" fill="white"/>
<path d="M31.747 8.48053H28.3928C28.1057 8.48053 27.861 8.6896 27.816 8.9736L27.6683 9.91158L27.4338 9.57216C26.7071 8.51706 25.088 8.16504 23.4712 8.16504C19.7653 8.16504 16.599 10.9736 15.9829 14.9132C15.662 16.8779 16.1173 18.756 17.2316 20.0665C18.2552 21.2708 19.7162 21.7721 21.4567 21.7721C24.4438 21.7721 26.1009 19.8527 26.1009 19.8527L25.9511 20.7853C25.8947 21.1399 26.1686 21.461 26.5279 21.461H29.549C30.0279 21.461 30.4353 21.1125 30.5103 20.6396L32.3242 9.15559C32.3796 8.80075 32.106 8.48053 31.747 8.48053ZM27.0717 15.0101C26.748 16.927 25.2263 18.2135 23.2854 18.2135C22.3125 18.2135 21.5336 17.9006 21.0329 17.3083C20.5367 16.7208 20.35 15.8842 20.5074 14.9522C20.8094 13.0526 22.3557 11.7242 24.2669 11.7242C25.2193 11.7242 25.9929 12.0404 26.5033 12.638C27.0172 13.2403 27.219 14.0826 27.0717 15.0101Z" fill="white"/>
<path d="M81.7136 8.48053H78.3594C78.0719 8.48053 77.8273 8.6896 77.7826 8.9736L77.6346 9.91158L77.4003 9.57216C76.6733 8.51706 75.0546 8.16504 73.4378 8.16504C69.7315 8.16504 66.5656 10.9736 65.9497 14.9132C65.6286 16.8779 66.0845 18.756 67.1985 20.0665C68.2221 21.2708 69.6834 21.7721 71.4236 21.7721C74.4107 21.7721 76.0678 19.8527 76.0678 19.8527L75.918 20.7853C75.8616 21.1399 76.1352 21.461 76.4948 21.461H79.5159C79.9948 21.461 80.4019 21.1125 80.4772 20.6396L82.2908 9.15559C82.3468 8.80075 82.0726 8.48053 81.7136 8.48053ZM77.0389 15.0101C76.7149 16.927 75.1935 18.2135 73.2527 18.2135C72.2791 18.2135 71.5008 17.9006 70.9998 17.3083C70.5039 16.7208 70.3169 15.8842 70.4743 14.9522C70.7766 13.0526 72.3222 11.7242 74.2334 11.7242C75.1856 11.7242 75.9592 12.0404 76.4702 12.638C76.9834 13.2403 77.1856 14.0826 77.0389 15.0101Z" fill="white"/>
<path d="M49.6145 8.48047H46.2426C45.9202 8.48047 45.6189 8.64073 45.4372 8.90711L40.7861 15.7576L38.8147 9.17505C38.691 8.7629 38.3122 8.48047 37.8824 8.48047H34.5678C34.1677 8.48047 33.8862 8.87405 34.0149 9.25314L37.7278 20.1511L34.2357 25.0781C33.9614 25.4651 34.2382 26 34.7124 26H38.0804C38.4 26 38.6988 25.8435 38.8805 25.5812L50.0943 9.39735C50.3626 9.01007 50.0852 8.48047 49.6145 8.48047Z" fill="white"/>
<path d="M85.668 2.49349L82.7924 20.786C82.7367 21.1406 83.0103 21.4614 83.3692 21.4614H86.2612C86.7401 21.4614 87.1479 21.1129 87.2231 20.6399L90.0581 2.67611C90.1142 2.32158 89.8406 2.00073 89.4813 2.00073H86.2452C85.9574 2.0001 85.7127 2.20949 85.668 2.49349Z" fill="white"/>
</svg>
