<svg width="180" height="60" viewBox="0 0 180 60" fill="none" xmlns="http://www.w3.org/2000/svg">
<g clip-path="url(#clip0_608_383)">
<path d="M115.503 15.9883C115.605 15.825 115.707 15.6943 115.809 15.531C115.877 15.433 115.945 15.335 116.013 15.237C117.577 14.8124 119.175 14.4857 120.806 14.2244H120.84C120.874 14.2244 120.908 14.2244 120.976 14.1918C121.282 14.1591 121.486 14.0938 121.554 13.9958C121.588 13.9631 121.588 13.9305 121.588 13.8651C121.588 13.7998 121.554 13.7671 121.52 13.7345C121.35 13.6038 121.146 13.5711 120.942 13.5711H120.908C120.195 13.5711 119.345 13.6691 118.495 13.7345C117.985 13.7998 117.509 13.8325 117.067 13.8651C120.466 9.88009 123.73 6.35235 128.523 3.18391C128.965 2.88993 129.475 2.72661 130.019 2.69395C130.257 2.69395 130.393 2.75928 130.461 2.82461C130.529 2.9226 130.46 3.11858 130.358 3.31457C129.951 3.77187 129.475 4.26183 128.965 4.7518C127.911 5.76439 126.959 6.87497 126.109 8.05089C125.497 8.99815 125.022 9.94541 125.565 10.9253C125.667 11.0887 125.735 11.154 125.837 11.154C125.871 11.154 125.973 11.154 126.007 10.9907C126.143 9.81476 126.823 8.73684 128.217 7.65892C128.387 7.49559 128.591 7.36494 128.795 7.23428C129.645 6.581 130.494 5.92771 131.072 5.07844C131.718 4.09851 131.786 2.82461 131.208 1.81201C130.902 1.28939 130.325 0.962742 129.713 0.995407C128.931 0.995407 128.047 1.35471 127.197 1.74668C122.982 4.09851 120.229 7.82224 117.543 11.448C116.897 12.2972 116.251 13.1792 115.605 14.0284C115.231 14.0938 114.857 14.1264 114.484 14.1264C113.6 14.1591 112.58 14.1918 112.206 14.8124C111.764 15.727 112.036 16.1516 112.308 16.3149L112.342 16.3476H112.376C112.988 16.2823 113.6 16.119 114.212 15.8903L114.28 15.8576C111.186 19.9407 104.796 29.054 106.597 32.7777C107.073 33.7577 108.059 34.313 109.555 34.4109C109.623 34.4109 109.691 34.4109 109.793 34.4109C114.144 34.4109 118.053 26.3755 118.325 21.1493C118.427 18.0788 117.441 16.2823 115.503 15.9883ZM114.212 18.2421C114.722 17.4582 115.095 16.8702 115.333 16.4456C117.475 16.9029 117.713 19.0914 117.543 20.8553C117.033 25.9836 112.614 33.3004 110.031 33.3004C109.079 33.3004 108.467 33.039 108.127 32.4511C106.631 29.8706 111.73 21.9985 114.212 18.2421ZM143.446 17.7522C143.31 17.7522 143.208 17.7848 143.14 17.8828C143.106 17.9482 143.038 17.9808 143.004 18.0461C142.698 18.4055 142.29 18.8301 141.814 19.2874C141.338 19.7447 140.828 20.2347 140.251 20.692C139.673 21.1493 139.129 21.6066 138.619 21.9659C138.211 22.2598 137.769 22.5212 137.293 22.7171C137.259 22.4558 137.293 21.8352 137.803 20.8226C138.143 20.1693 138.585 19.5487 139.061 18.9934C139.571 18.3728 140.081 17.8175 140.625 17.2622C141.168 16.7069 141.61 16.2823 141.95 15.9556L142.426 15.4983C142.63 15.335 142.766 15.1064 142.766 14.8451C142.766 14.4204 140.998 13.8978 140.862 13.8978H140.794C140.591 13.8978 140.421 13.9631 140.251 14.0611C140.081 14.1918 139.911 14.2898 139.775 14.4531C139.605 14.5837 139.469 14.7144 139.299 14.8451L137.021 16.6416C136.409 17.1316 135.797 17.6215 135.152 18.1768C134.914 18.3728 134.71 18.5688 134.472 18.7648C134.676 18.5034 134.88 18.2095 135.084 17.9155C135.627 17.1969 136.171 16.4783 136.783 15.7597C137.123 15.3677 137.769 14.7797 138.211 14.3878C138.857 13.7998 138.891 13.7671 138.891 13.7018C138.891 13.4078 138.551 13.1792 138.279 13.0159C138.007 12.8199 137.667 12.6892 137.327 12.6239C136.885 12.6239 135.152 14.3551 135.084 14.4531C134.71 14.8124 134.302 15.237 133.826 15.727C133.35 16.1843 132.874 16.6743 132.432 17.1316C131.99 17.5889 131.616 17.9808 131.31 18.3075C131.208 18.4381 131.106 18.5361 131.004 18.6668C130.902 18.7648 130.8 18.8954 130.664 19.0261C130.257 19.4834 129.815 19.9407 129.373 20.398C128.931 20.8879 128.489 21.3126 128.081 21.7045C127.809 21.9985 127.469 22.2272 127.129 22.4558C126.993 22.5538 126.789 22.6191 126.619 22.6191C126.517 22.6191 126.347 22.6191 126.347 22.2272C126.347 21.8025 126.449 21.3779 126.551 20.9859C126.653 20.5613 126.823 20.1693 126.993 19.7774C127.401 18.8954 127.945 18.0462 128.557 17.2949C128.829 16.9682 129.305 16.4456 129.747 15.923C130.936 14.5837 130.936 14.5511 130.936 14.4857C130.936 14.3878 130.936 14.1918 129.849 14.1918C129.645 14.1918 128.931 14.1918 128.727 14.3551C128.353 14.7797 127.979 15.2044 127.639 15.6617C127.333 16.0863 126.993 16.5109 126.789 16.7396C126.653 16.9356 126.381 17.1969 126.007 17.5889C125.633 17.9808 125.191 18.4055 124.716 18.8954C124.24 19.3527 123.764 19.81 123.254 20.2673C122.846 20.6593 122.37 21.0186 121.894 21.3452C121.656 21.5412 121.35 21.7045 121.01 21.7372C120.908 21.7372 120.84 21.7372 120.84 21.5412C120.874 21.2472 120.976 20.9533 121.146 20.692C121.35 20.3326 121.588 19.9407 121.86 19.614C122.132 19.2547 122.336 18.9934 122.438 18.7974C122.846 18.2748 123.254 17.7522 123.73 17.2295C123.9 17.0336 124.24 16.6743 124.614 16.2823C125.498 15.3677 125.905 14.9104 125.939 14.7797C125.973 14.7144 125.939 14.6491 125.905 14.5837C125.837 14.4857 125.735 14.4204 125.599 14.4204C125.226 14.3551 124.852 14.3224 124.478 14.2898C124.138 14.2571 123.764 14.3551 123.492 14.5837C122.982 14.943 122.506 15.3677 122.098 15.7923L122.064 15.825V15.8903L122.098 16.021H122.2C122.268 16.021 122.336 15.9883 122.37 15.9556C122.438 15.923 122.472 15.923 122.54 15.8903C122.506 15.9556 122.472 16.021 122.438 16.0863C122.37 16.217 122.268 16.3476 122.166 16.4783C122.064 16.6089 121.962 16.7396 121.86 16.8702C121.588 17.2295 121.316 17.6215 121.044 17.9808C120.772 18.3401 120.534 18.7321 120.297 19.1241C120.092 19.4834 119.855 19.8427 119.651 20.2347C119.447 20.6266 119.277 21.0186 119.107 21.4106C119.073 21.5086 119.073 21.6066 119.073 21.7045C119.073 22.1292 120.364 23.6317 120.874 23.6317C121.214 23.6317 121.52 23.4684 121.758 23.2071C122.404 22.4885 123.084 21.8025 123.73 21.1493C124.172 20.692 124.648 20.2347 125.09 19.7774C124.988 20.006 124.886 20.2673 124.784 20.496C124.58 20.9859 124.478 21.4759 124.444 21.9985C124.478 22.5212 124.75 23.0111 125.191 23.3051C125.599 23.6317 126.109 23.8277 126.619 23.8604C126.891 23.8604 127.197 23.7951 127.435 23.6644C127.673 23.5337 127.843 23.3704 128.013 23.1744C128.659 22.4558 129.339 21.6719 129.985 20.9206C130.528 20.2673 131.106 19.6467 131.65 18.9934L132.772 17.8502C133.146 17.4582 133.554 17.0662 133.928 16.7069C134.03 16.6416 134.166 16.5436 134.336 16.3803C134.404 16.3476 134.438 16.2823 134.506 16.2496C134.438 16.3476 133.078 18.3401 133.078 18.3401C132.636 18.9934 132.194 19.6467 131.786 20.3C131.378 20.9533 131.038 21.5412 130.766 22.0639C130.529 22.5212 130.358 22.9785 130.29 23.5011C130.29 23.5991 130.325 23.6644 130.426 23.6971C130.494 23.7297 130.562 23.7297 130.631 23.7297C131.106 23.6971 131.582 23.5664 131.99 23.3378C132.194 23.1091 132.364 22.8478 132.568 22.5538C132.738 22.2925 132.942 22.0312 133.078 21.8025C133.69 20.9533 134.37 20.1693 135.118 19.418C135.831 18.6668 136.647 17.9808 137.497 17.3929C137.701 17.2622 137.905 17.0989 138.109 17.0009C138.381 16.8376 138.653 16.6416 138.959 16.4783C139.061 16.4129 139.129 16.3803 139.197 16.3149C138.959 16.7069 138.721 17.0662 138.449 17.4582C138.007 18.0462 137.565 18.6668 137.089 19.3201C136.647 19.9407 136.239 20.5613 135.865 21.1819C135.492 21.8025 135.288 22.4558 135.186 23.1418C135.186 23.6644 136.885 23.991 137.123 23.991C137.327 23.991 137.531 23.9584 137.701 23.8604C138.415 23.4358 139.061 22.9458 139.673 22.4232C140.387 21.8025 141.1 21.1166 141.814 20.4306C142.392 19.8427 142.936 19.2221 143.48 18.6014C143.548 18.5034 143.582 18.3728 143.582 18.2748C143.752 17.7522 143.514 17.7522 143.446 17.7522ZM69.8843 17.8175V20.5286C69.8843 22.2272 69.7143 23.3378 68.0827 23.5991V24.3177H76.0371V23.5991C74.4734 23.3051 74.3374 22.1945 74.3374 20.5286V11.9379H73.5896C71.9239 13.3098 69.6803 13.8651 68.0487 13.9958V14.7144C69.7483 15.0084 69.8843 16.1516 69.8843 17.8175ZM68.8985 8.50819C69.9183 9.03081 70.7341 9.84742 71.278 10.7947L71.482 11.154H71.8559L72.0599 10.7947C72.6038 9.81476 73.4536 9.03081 74.4394 8.50819L74.8133 8.3122C74.8133 8.14888 74.8133 8.11622 74.8133 7.95289L74.4394 7.75691C73.4536 7.23428 72.6038 6.41767 72.0599 5.47041L71.8559 5.1111H71.482L71.278 5.47041C70.7341 6.41767 69.8843 7.23428 68.8985 7.75691L68.5246 7.95289V8.3122L68.8985 8.50819ZM99.3566 24.579C102.212 24.7423 105.747 24.089 106.291 21.4759C106.937 18.4708 103.946 17.4582 102.008 16.4129C100.104 15.4003 98.8467 14.9104 99.0166 13.8651C99.0846 13.1138 99.7985 12.7872 100.784 12.9179C102.246 13.0812 103.13 14.0284 103.606 16.1843H104.286L103.946 12.0686H103.47C103.232 13.0812 102.552 12.1666 100.75 11.9379C98.3028 11.6766 95.5493 12.2646 95.2094 14.8451C94.9034 17.4255 97.4189 18.6014 99.2546 19.4834C101.192 20.4306 102.45 20.8879 102.246 22.2598C102.144 23.1091 100.954 23.6644 99.4245 23.5664C98.3028 23.5011 97.045 23.1744 96.875 22.4558C96.7051 21.9005 97.045 21.3452 97.6229 21.1819C97.7589 21.1493 97.9288 21.1166 98.0648 21.1493C98.0308 20.0713 97.4529 19.0914 96.0252 18.8954C94.3255 18.6668 93.0338 20.1367 93.4757 21.7699C93.9176 23.5664 97.045 24.4483 99.3566 24.579ZM67.8787 41.3684C64.5813 42.0217 63.5615 43.8182 63.9695 45.7781C64.3774 47.738 66.519 48.4566 68.8305 48.4566C70.2242 48.4566 71.7879 48.1299 72.7397 46.6927C73.1477 47.9666 74.9153 48.4566 76.411 48.4566C77.9747 48.4566 78.8246 47.9666 79.3345 47.4113C79.2665 47.15 79.2325 47.1173 79.0965 46.8234C78.4506 47.1173 77.8388 47.0847 77.5328 46.758C77.2609 46.3987 77.0909 45.3535 76.9209 44.4062C76.9209 44.4062 76.785 43.3283 76.377 40.6498C75.8671 37.2854 74.0315 35.8482 69.5784 35.8482C67.9807 35.8482 65.5671 36.2728 64.8873 38.004C64.5134 38.9513 64.8193 39.7026 65.5332 40.0292C66.485 40.4865 67.6407 40.0945 68.1166 39.1473C67.0289 38.298 67.8447 36.6321 69.5784 36.7628C70.9721 36.7628 71.482 38.1673 71.7199 39.5392C72.0939 41.4011 70.4962 40.8785 67.8787 41.3684ZM72.0939 41.4664C72.1959 42.1197 72.3318 43.1323 72.3998 44.0796C72.4678 45.3535 72.1279 46.4967 70.8021 46.8234C69.7823 47.0847 68.5246 46.3334 68.3206 45.1248C68.1166 43.9162 68.8985 42.7403 70.1563 42.4137C71.584 42.0217 71.8899 41.8911 72.0939 41.4664ZM86.779 44.4389V29.5113H86.0312C84.3655 30.8832 82.1559 31.4385 80.4902 31.6018V32.3531C82.0879 32.6144 82.2579 33.7577 82.2579 35.4235V44.4389C82.2579 46.1374 82.0879 47.248 80.4902 47.5093V48.2279H88.5467V47.5093C87.051 47.3133 86.779 46.1048 86.779 44.4389ZM102.824 46.758C102.552 46.3987 102.382 45.3535 102.212 44.4062C102.212 44.4062 102.076 43.3283 101.668 40.6498C101.158 37.2854 99.3226 35.8482 94.8694 35.8482C93.2717 35.8482 90.8582 36.2728 90.1784 38.004C89.8044 38.9513 90.1104 39.7026 90.8242 40.0292C91.776 40.4865 92.9318 40.0945 93.4077 39.1473C92.3199 38.298 93.1358 36.6321 94.8694 36.7628C96.2632 36.7628 96.7731 38.1673 97.011 39.5392C97.317 41.4011 95.7193 40.8458 93.1018 41.3684C89.8044 42.0217 88.7846 43.8182 89.1925 45.7781C89.6005 47.738 91.742 48.4566 94.0536 48.4566C95.4473 48.4566 97.011 48.1299 97.9628 46.6927C98.3708 47.9666 100.138 48.4566 101.634 48.4566C103.198 48.4566 104.048 47.9666 104.558 47.4113C104.49 47.15 104.456 47.1173 104.32 46.8234C103.742 47.1173 103.13 47.1173 102.824 46.758ZM96.0592 46.8234C95.0394 47.0847 93.7816 46.3334 93.5777 45.1248C93.3737 43.9162 94.1556 42.7403 95.4133 42.4137C96.841 42.0544 97.147 41.8911 97.3509 41.4664C97.4529 42.1197 97.5889 43.1323 97.6569 44.0796C97.7589 45.3535 97.4189 46.5294 96.0592 46.8234ZM117.101 44.0142C115.945 45.2228 114.212 45.8434 112.512 45.6148C110.031 45.3861 108.433 43.9489 108.263 40.9111C108.161 38.494 109.181 36.9261 110.642 36.7954C113.022 36.5995 113.566 39.2126 112.104 40.3885C113.124 41.7604 114.586 42.087 115.605 41.5971C116.591 41.1398 116.965 40.0292 116.795 38.9839C116.557 37.4487 115.198 35.8482 111.118 35.8482C106.937 35.8482 103.572 38.4613 103.98 42.773C104.252 45.9741 107.073 48.4566 111.254 48.4566C114.688 48.4566 116.693 46.3987 117.611 44.4062C117.407 44.2755 117.237 44.1449 117.101 44.0142ZM130.834 44.0142C128.387 46.562 123.016 46.1374 122.336 42.675L130.631 41.3358C130.8 41.3031 130.936 41.1724 130.936 41.0091C130.936 37.6774 128.455 35.8482 124.852 35.8482C120.67 35.8482 117.305 38.3633 117.713 42.675C117.985 45.8761 120.772 48.4892 124.988 48.4892C128.421 48.4892 130.426 46.4314 131.344 44.4389C131.174 44.2756 131.004 44.1449 130.834 44.0142ZM124.342 36.7954C126.177 36.6321 126.823 38.2 126.755 40.5845C126.755 40.7478 126.619 40.9111 126.449 40.9111L122.166 41.5971C121.86 39.1146 122.608 36.9588 124.342 36.7954ZM83.3457 24.579C84.6034 24.579 85.8612 24.1217 86.813 23.3378C87.3909 24.2197 88.4447 24.579 89.9064 24.579C91.4701 24.579 92.4559 23.9584 93.1018 22.5865L92.6259 22.3252C92.3539 22.7825 91.98 22.9785 91.5041 22.8805C90.8242 22.7171 90.8242 21.7699 90.8242 20.496V5.60107H90.0764C88.3767 7.03829 86.0312 7.52826 84.5354 7.69158V8.44286C86.2011 8.57352 86.3031 9.84742 86.3031 11.5133V13.3425C85.5213 12.5912 84.4675 12.1013 83.3457 11.9379C79.1305 11.3826 76.1051 14.4857 76.1051 18.2421C76.1051 21.9985 79.1645 24.579 83.3457 24.579ZM82.3939 12.9832C84.0935 12.7219 85.4193 14.6164 85.9972 17.7848C86.5751 20.9859 85.9972 23.2071 84.3315 23.5011C82.6318 23.7624 81.3061 21.8679 80.7282 18.6994C80.1163 15.4983 80.7282 13.2772 82.3939 12.9832ZM79.3345 51.625C80.6942 52.5396 81.476 54.6301 80.0143 55.806C78.0767 57.1126 75.8671 56.5573 73.1817 55.7407C69.5444 54.5648 62.2698 51.821 58.8025 50.3838C56.117 49.2079 53.0916 48.9139 50.2021 49.5672C48.2645 49.9591 45.5111 51.1677 44.5592 51.5923L44.5932 51.6903C46.3269 51.429 49.2163 51.0697 51.1879 51.429C59.1424 52.8009 65.2612 58.8111 73.6916 58.6805C76.751 58.5825 79.5724 57.5046 81.2381 55.4141C82.0879 54.2055 82.5978 52.8662 81.68 51.821C81.1021 51.2984 80.0823 51.3637 79.3345 51.625ZM41.1599 52.8989C38.4404 51.4944 37.2167 47.4766 39.4942 45.4188C42.8596 43.1323 46.5988 46.7907 43.7094 49.6978C43.7434 49.7305 43.7434 49.7631 43.7434 49.7958L46.0549 48.8485C47.1767 48.3912 48.2645 47.9666 49.2163 47.542C50.712 46.8887 52.0378 45.9414 53.1596 44.7982C54.1454 43.7856 54.7233 42.479 54.7912 41.0745C54.7912 41.0418 54.7912 41.0418 54.8252 41.0418C60.944 41.0091 64.0374 38.9839 64.0374 35.2602C64.0374 31.5038 60.8761 29.446 54.6553 29.446H54.1454H48.6044C47.2787 29.4133 45.987 29.642 44.7632 30.0993C43.7434 30.4586 42.8256 31.0792 42.1457 31.8631C41.5338 32.5817 41.1939 33.4637 41.1939 34.4109C41.1939 35.5869 41.5678 36.4688 42.2817 37.0894C42.9955 37.6774 43.9134 38.004 44.8312 38.004C45.579 38.004 46.2929 37.808 46.9048 37.3834C47.3467 37.0568 47.6526 36.6321 47.8226 36.1422L47.4827 35.8482C47.3127 35.9462 47.0747 36.0115 46.8708 36.0115C46.2929 36.0115 45.783 35.7175 45.4771 35.2602C45.0691 34.7049 44.8992 34.019 44.9332 33.333C44.8992 32.4838 45.2051 31.6671 45.817 31.0465C46.3609 30.4912 47.1087 30.1646 47.9246 30.1646C48.4005 30.1646 48.8424 30.3279 49.1823 30.6546C49.5563 31.0465 49.7602 31.5692 49.7262 32.1244V42.0544C49.7602 43.361 49.4543 44.6675 48.8084 45.8108C48.3325 46.562 47.6866 47.2153 46.9048 47.6726C47.9246 45.2881 46.7688 42.5443 44.2873 41.5644C43.8454 41.4011 43.4035 41.2704 42.9276 41.2378C36.8088 40.4865 33.3074 46.3987 35.8229 51.2004C38.6444 56.4267 46.5988 56.6553 49.8282 52.4416L49.7262 52.311C47.1767 53.6829 43.9814 54.3361 41.1599 52.8989ZM54.8252 39.1799V30.5566C57.9186 30.6546 59.1424 32.4511 59.1424 35.2602C59.1424 38.0693 57.9186 39.8659 54.8592 39.9639L54.8252 39.1799ZM42.1457 13.2445C42.8596 13.8651 43.7774 14.1591 44.7292 14.1591C45.4771 14.1591 46.2249 13.9631 46.8368 13.5385C47.2787 13.2772 47.5846 12.8199 47.6866 12.3299L47.3807 12.0686C47.1767 12.1339 47.0068 12.1666 46.8028 12.1666C46.2249 12.1666 45.715 11.8726 45.4431 11.4153C45.0691 10.8273 44.8652 10.1741 44.8992 9.48811C44.8652 8.63884 45.1711 7.78957 45.783 7.16895C46.3269 6.61366 47.1087 6.28702 47.8906 6.28702C48.3665 6.28702 48.8084 6.45034 49.1483 6.77698C49.5223 7.16895 49.7262 7.72424 49.6922 8.24687V9.39012V19.908C49.6922 20.496 49.6582 21.1166 49.5903 21.7045C49.4203 22.7825 48.8764 23.5337 47.6526 23.5337V24.2524H48.6384H55.845H56.8648V23.5337C55.4711 23.5337 54.9952 22.5538 54.8592 21.2472C54.8592 21.0513 54.8252 20.8553 54.8252 20.6593C54.8252 20.594 54.8252 20.5613 54.8252 20.496C54.8252 20.4633 54.8252 20.4306 54.8252 20.398V16.3803L56.015 15.0084L58.8025 20.8226C59.4823 22.1945 59.5503 23.5011 57.9186 23.5011V24.2197H60.4341H66.553H67.0968V23.5011C65.6691 23.5011 64.8193 22.3578 64.1394 21.0513L59.3464 11.1867L60.3322 10.0761C60.5361 9.88009 60.7061 9.65144 60.944 9.42279C61.7599 8.50819 63.5615 6.35235 65.1932 6.35235V5.60107H59.4143V6.35235C61.08 6.35235 61.046 7.88757 59.8223 9.29213L58.3605 10.958C58.3266 10.9907 58.2926 11.0233 58.2586 11.056L54.7573 14.9104V9.03082C54.8252 7.52826 55.2672 6.35235 56.7969 6.35235V5.60107H48.5025C47.1767 5.5684 45.851 5.79705 44.6272 6.25435C43.6074 6.61366 42.6896 7.23428 41.9757 8.01822C41.3639 8.73684 41.0239 9.61877 41.0239 10.566C41.0579 11.7419 41.3979 12.6565 42.1457 13.2445ZM53.9074 59.7584L53.7714 59.5298C53.3975 58.8765 52.8196 58.3212 52.1398 57.9619L51.9018 57.8312V57.6026L52.1398 57.4719C52.8196 57.1126 53.3975 56.5573 53.7714 55.904L53.9074 55.6754H54.1454L54.2813 55.9367C54.6553 56.59 55.2332 57.1453 55.913 57.5046L56.185 57.6352V57.8639L55.947 57.9945C55.2672 58.3538 54.6893 58.9091 54.3153 59.5624L54.1794 59.7911H53.9074V59.7584ZM39.3243 28.4007L39.2223 28.2374C38.9503 27.7801 38.5424 27.3881 38.0665 27.1268L37.8965 27.0288V26.8655L38.0665 26.7348C38.5424 26.4735 38.9503 26.0816 39.2223 25.6243L39.3243 25.4609H39.4942L39.5962 25.6243C39.8682 26.0816 40.2761 26.4735 40.752 26.7348L40.922 26.8328V26.9962L40.752 27.0942C40.2761 27.3555 39.8682 27.7474 39.5962 28.2047L39.4942 28.4007H39.3243ZM89.0566 54.2382L88.9546 54.1075C88.7166 53.7155 88.3767 53.3889 87.9688 53.1602L87.8328 53.0622V52.8989L88.0028 52.8009C88.4107 52.5723 88.7506 52.2456 88.9886 51.8537L89.0906 51.6903H89.2605L89.3625 51.8537C89.6005 52.2456 89.9404 52.5723 90.3483 52.8009L90.5183 52.8989V53.0622L90.3823 53.1602C89.9744 53.3889 89.6345 53.7155 89.3965 54.1075L89.3285 54.2382H89.0566Z" fill="white"/>
</g>
<defs>
<clipPath id="clip0_608_383">
<rect width="110" height="60" fill="white" transform="translate(35)"/>
</clipPath>
</defs>
</svg>
