<svg width="180" height="60" viewBox="0 0 180 60" fill="none" xmlns="http://www.w3.org/2000/svg">
<g clip-path="url(#clip0_608_382)">
<path d="M65.5315 24.9795C64.4364 24.2733 63.1706 23.9199 61.8888 23.9627C60.6596 23.9121 59.4468 24.274 58.4238 24.9966L58.1653 25.2188V24.3643H54.9346V46.632H58.6338V39.2237C59.7004 39.8817 60.9157 40.2212 62.1503 40.2062C63.3849 40.1911 64.5926 39.822 65.6446 39.1382C66.6601 38.4067 67.4717 37.4005 67.9949 36.2245C68.5608 34.9207 68.8371 33.4973 68.8026 32.0631C68.8257 30.6164 68.5327 29.1835 67.9465 27.8762C67.4061 26.6958 66.571 25.6942 65.5315 24.9795ZM64.5461 34.4301C64.3362 35.1027 63.9462 35.6964 63.4234 36.139C62.8649 36.5786 62.1805 36.8018 61.4849 36.7713C60.787 36.8106 60.0965 36.6032 59.5223 36.1817C58.9993 35.7663 58.6146 35.1858 58.4238 34.5241C58.1985 33.7259 58.0896 32.8961 58.1007 32.0631C58.0895 31.233 58.1984 30.406 58.4238 29.6108C58.6027 28.9654 58.9633 28.3931 59.4576 27.9702C59.9954 27.5558 60.6507 27.3478 61.3153 27.3806C62.0372 27.3494 62.7482 27.575 63.3346 28.0215C63.8719 28.4585 64.2763 29.0527 64.4976 29.7304C64.7609 30.4763 64.8924 31.267 64.8853 32.0631C64.9032 32.867 64.7884 33.668 64.5461 34.4301Z" fill="white"/>
<path d="M79.0031 24.322C78.5683 24.3544 78.1379 24.4346 77.7188 24.5612C77.3156 24.6859 76.9299 24.867 76.5719 25.0995C76.1129 25.3757 75.7095 25.7444 75.3846 26.1847C75.2333 26.3921 75.0983 26.6121 74.9808 26.8427V24.3561H71.75V39.7368H75.4654V31.8927C75.4592 31.3528 75.5384 30.8156 75.6996 30.3033C75.8405 29.8465 76.0708 29.4262 76.3756 29.0699C76.6804 28.7136 77.0528 28.4292 77.4685 28.2355C77.9235 28.0119 78.4136 27.8786 78.9142 27.8424C79.3893 27.796 79.8684 27.8423 80.3277 27.9791V24.3561C79.8883 24.2978 79.4446 24.2864 79.0031 24.322Z" fill="white"/>
<path d="M86.8382 18.7845H83.1632V22.211H86.8382V18.7845Z" fill="white"/>
<path d="M86.8381 24.356H83.1631V39.7793H86.8381V24.356Z" fill="white"/>
<path d="M104.179 28.03C104 27.3287 103.711 26.6643 103.323 26.0647C102.892 25.4088 102.315 24.8748 101.643 24.5095C100.774 24.0641 99.8136 23.8527 98.8483 23.8943C97.597 23.8442 96.3599 24.1892 95.2945 24.8855C94.8614 25.1855 94.4676 25.5446 94.1233 25.9536V24.3557H90.8926V39.7364H94.616V31.9521C94.5879 31.167 94.6918 30.383 94.923 29.6364C95.0856 29.1341 95.363 28.682 95.7307 28.3205C96.0157 28.0347 96.3622 27.8265 96.7403 27.7138C97.0678 27.6094 97.4078 27.5547 97.7499 27.5515C98.398 27.5096 99.04 27.7058 99.5672 28.1069C99.9628 28.484 100.258 28.9642 100.423 29.4997C100.607 30.0301 100.718 30.5853 100.754 31.1488C100.754 31.6957 100.811 32.14 100.811 32.4989V39.7791H104.534V31.1232C104.534 30.8669 104.518 30.4567 104.486 29.8928C104.44 29.2629 104.337 28.6391 104.179 28.03Z" fill="white"/>
<path d="M112.595 20.0664H108.92V24.3388H106.433V27.3808H108.92V33.2596C108.92 34.191 108.92 34.9685 108.92 35.7376C108.947 36.4933 109.144 37.2314 109.494 37.8909C109.874 38.6304 110.485 39.2073 111.222 39.5229C112.046 39.8771 112.926 40.0627 113.815 40.0698C114.809 40.0902 115.802 40.0015 116.779 39.8049V36.5493C115.999 36.6707 115.209 36.7107 114.421 36.669C114.115 36.6713 113.813 36.5947 113.541 36.4458C113.27 36.2969 113.036 36.0802 112.862 35.8145C112.676 35.4623 112.581 35.0643 112.587 34.6609C112.587 34.1824 112.587 33.6441 112.587 33.046V27.3808H116.795V24.3559H112.587L112.595 20.0664Z" fill="white"/>
<path d="M129.695 25.065C128.529 24.2892 127.169 23.9049 125.793 23.9627C124.455 23.9336 123.134 24.2911 121.973 24.9966C120.866 25.6887 119.965 26.6952 119.372 27.9019C118.717 29.2631 118.393 30.7754 118.427 32.3024C118.4 33.7354 118.731 35.1505 119.388 36.4039C120.019 37.5851 120.944 38.5604 122.062 39.2237C123.277 39.9043 124.638 40.2399 126.012 40.1978C127.383 40.2069 128.728 39.8007 129.888 39.0272C131.065 38.2564 131.977 37.1062 132.489 35.746L128.822 34.6266C128.578 35.2241 128.166 35.7281 127.643 36.0707C127.083 36.4187 126.442 36.5934 125.793 36.5748C125.303 36.6085 124.812 36.5193 124.36 36.3144C123.908 36.1095 123.508 35.7947 123.193 35.3957C122.74 34.7324 122.461 33.9541 122.385 33.1398H132.618C132.799 31.4939 132.614 29.8261 132.077 28.2693C131.616 26.9658 130.784 25.8461 129.695 25.065ZM125.955 27.2952C126.392 27.2546 126.831 27.3276 127.235 27.5078C127.639 27.688 127.996 27.9699 128.273 28.3291C128.621 28.9148 128.831 29.5798 128.887 30.2688H122.49C122.597 29.6311 122.837 29.0268 123.193 28.5C123.53 28.0821 123.956 27.7549 124.437 27.5454C124.917 27.336 125.437 27.2502 125.955 27.2952Z" fill="white"/>
<path d="M145.5 25.2189C145.42 25.1505 145.339 25.0651 145.25 24.9967C144.217 24.2682 142.993 23.9061 141.753 23.9628C140.465 23.9316 139.197 24.2968 138.102 25.0138C137.059 25.7263 136.22 26.7283 135.679 27.9105C135.09 29.2167 134.796 30.6504 134.823 32.0975C134.792 33.5313 135.068 34.9539 135.63 36.2588C136.156 37.4354 136.971 38.4415 137.989 39.1726C139.053 39.89 140.298 40.2477 141.559 40.1979C142.788 40.2381 144.001 39.8964 145.048 39.2153V40.7704C145.081 41.2861 144.934 41.7966 144.636 42.206C144.323 42.5944 143.919 42.889 143.465 43.0604C142.969 43.2575 142.444 43.356 141.914 43.351C141.417 43.3549 140.927 43.2318 140.485 42.9921C140.055 42.7654 139.704 42.4004 139.483 41.9496L136.083 43.6586C136.453 44.3332 136.941 44.9275 137.52 45.4103C138.12 45.9189 138.797 46.3149 139.523 46.5809C140.283 46.8643 141.084 47.006 141.89 46.9996C142.899 47.0097 143.903 46.86 144.87 46.5553C145.732 46.2881 146.527 45.8211 147.197 45.1881C147.839 44.5676 148.292 43.7583 148.497 42.8639C148.581 42.5336 148.637 42.1962 148.666 41.8556C148.699 41.5138 148.715 41.155 148.715 40.779V24.3559H145.484L145.5 25.2189ZM144.119 36.1648C143.544 36.5839 142.854 36.7911 142.157 36.7544C141.459 36.7834 140.772 36.5604 140.21 36.1221C139.692 35.6749 139.303 35.0827 139.087 34.4131C138.837 33.6526 138.714 32.8515 138.724 32.0462C138.716 31.2452 138.845 30.4492 139.103 29.6964C139.328 29.018 139.735 28.424 140.275 27.9874C140.861 27.5409 141.572 27.3153 142.294 27.3466C142.956 27.3136 143.609 27.5217 144.143 27.9361C144.643 28.3541 145.005 28.9283 145.177 29.5767C145.407 30.371 145.516 31.1987 145.5 32.0291C145.516 32.8623 145.407 33.6928 145.177 34.49C145.004 35.1541 144.633 35.7414 144.119 36.1648Z" fill="white"/>
<path d="M162.325 24.3555L158.521 34.8485L154.684 24.3555H150.88L156.76 39.6592L154.361 46.6318H157.761L166 24.3555H162.325Z" fill="white"/>
<path d="M29.2042 26.9474L26.0575 32.7161C25.1961 29.7814 25.0325 26.6671 25.5814 23.6495C26.1304 20.6319 27.3747 17.8042 29.2042 15.4173C29.2042 15.4173 33.3095 17.7542 37.6162 25.654C41.9229 33.5539 42.0965 39.0433 42.0965 39.0433C42.0965 39.0433 37.4078 32.2458 31.4131 30.9598L29.2042 26.9474Z" fill="#CD99F6"/>
<path d="M42.0963 39.0433C42.0963 39.0433 41.9851 35.4792 39.6928 29.975C36.9019 29.3542 33.9959 29.7101 31.4128 30.9891C37.4075 32.2458 42.0963 39.0433 42.0963 39.0433Z" fill="url(#paint0_linear_608_382)"/>
<path d="M23.8418 36.7651H30.1421C28.1704 39.0215 25.7029 40.7284 22.9585 41.7347C20.2141 42.741 17.2774 43.0154 14.4087 42.5338C14.4087 42.5338 14.2698 37.6029 18.5765 29.703C22.8832 21.8032 27.301 18.9078 27.301 18.9078C27.301 18.9078 24.0849 26.6019 26.0507 32.716L23.8418 36.7651Z" fill="#6CCADA"/>
<path d="M27.3006 18.9078C27.3006 18.9078 24.4457 20.789 21.049 25.6465C21.942 28.5092 23.6867 30.9893 26.0225 32.716C24.0845 26.6019 27.3006 18.9078 27.3006 18.9078Z" fill="url(#paint1_linear_608_382)"/>
<path d="M34.553 36.7724L31.4133 30.9963C34.2465 31.6757 36.8776 33.084 39.0731 35.0966C41.2687 37.1091 42.961 39.6637 44 42.5338C44 42.5338 40.0406 45.1205 31.4133 45.1205C22.786 45.1205 18.2153 42.5338 18.2153 42.5338C18.2153 42.5338 26.1272 41.6299 30.1491 36.7724H34.553Z" fill="#4998E1"/>
<path d="M18.2153 42.534C18.2153 42.534 21.1883 44.2095 26.8426 44.8635C28.745 42.6202 29.9056 39.7828 30.1491 36.78C26.1272 41.6301 18.2153 42.534 18.2153 42.534Z" fill="url(#paint2_linear_608_382)"/>
<path d="M30.1422 36.7725L18.528 39.8663L17.6944 41.5491L17.3679 42.7763C19.7704 42.7421 22.1413 42.1923 24.337 41.1603C26.5328 40.1283 28.5077 38.6356 30.1422 36.7725Z" fill="#6CCADA"/>
<path d="M25.3701 29.2623L26.0647 32.7015L29.2114 26.9327L29.4615 27.3884L31.08 24.831V17.622L28.0444 17.1075C25.8462 20.7078 24.9007 25.0051 25.3701 29.2623Z" fill="#CD99F6"/>
</g>
<defs>
<linearGradient id="paint0_linear_608_382" x1="40.3527" y1="34.4063" x2="31.7483" y2="33.2284" gradientUnits="userSpaceOnUse">
<stop stop-color="#8F72DA" stop-opacity="0"/>
<stop offset="1" stop-color="#8F72DA"/>
</linearGradient>
<linearGradient id="paint1_linear_608_382" x1="24.0845" y1="21.6929" x2="26.1047" y2="31.4163" gradientUnits="userSpaceOnUse">
<stop stop-color="#45A6C8" stop-opacity="0"/>
<stop offset="1" stop-color="#45A6C8"/>
</linearGradient>
<linearGradient id="paint2_linear_608_382" x1="23.3139" y1="42.872" x2="30.8242" y2="35.8216" gradientUnits="userSpaceOnUse">
<stop stop-color="#3B75A7" stop-opacity="0"/>
<stop offset="1" stop-color="#3B75A7"/>
</linearGradient>
<clipPath id="clip0_608_382">
<rect width="152" height="35" fill="white" transform="translate(14 12)"/>
</clipPath>
</defs>
</svg>
