<svg width="180" height="60" viewBox="0 0 180 60" fill="none" xmlns="http://www.w3.org/2000/svg">
<path d="M46.4865 32.6905C46.5078 32.4878 46.6087 32.3019 46.767 32.1735C46.9069 32.0613 47.0805 31.9992 47.2599 31.9972H49.4159C49.6085 31.9968 49.7942 32.0683 49.9369 32.1976C50.0102 32.2615 50.0668 32.3424 50.1017 32.4332C50.1366 32.524 50.1488 32.622 50.1373 32.7186C50.078 33.4718 49.8938 34.2098 49.5922 34.9026C49.2649 35.6565 48.7782 36.3305 48.1656 36.8783C47.4619 37.505 46.6461 37.9931 45.7611 38.3169C44.6129 38.7228 43.3999 38.9143 42.1825 38.882C41.0748 38.9026 39.9729 38.7178 38.9325 38.337C38.0348 38.0021 37.2161 37.485 36.528 36.8182C35.869 36.1493 35.356 35.3511 35.0212 34.4738C34.6487 33.5287 34.4282 32.5305 34.368 31.5163C34.3319 30.8391 34.3159 30.0937 34.3159 29.2802C34.3159 28.4667 34.3159 27.7173 34.368 27.04C34.4279 26.0272 34.6484 25.0302 35.0212 24.0866C35.3716 23.2115 35.8996 22.4187 36.5721 21.7582C37.2602 21.0914 38.0788 20.5743 38.9766 20.2394C40.0031 19.8639 41.0896 19.6792 42.1825 19.6944C43.3874 19.6639 44.5877 19.8527 45.7251 20.2514C46.61 20.5753 47.4258 21.0634 48.1295 21.6901C48.745 22.2464 49.2318 22.9302 49.5562 23.6938C49.8545 24.382 50.0386 25.1143 50.1012 25.8618C50.1131 25.9585 50.1011 26.0565 50.0661 26.1474C50.0312 26.2382 49.9744 26.3191 49.9008 26.3828C49.7582 26.5121 49.5724 26.5836 49.3799 26.5832H47.2599C47.077 26.5803 46.8999 26.5185 46.755 26.4069C46.6725 26.3462 46.6038 26.2688 46.5534 26.1797C46.5029 26.0906 46.472 25.9918 46.4624 25.8899C46.4024 25.5254 46.2761 25.175 46.0898 24.856C45.8825 24.506 45.6105 24.1986 45.2883 23.9503C44.9047 23.6578 44.4717 23.4365 44.0099 23.2971C43.4191 23.1097 42.8022 23.0177 42.1825 23.0246C41.5638 23.0108 40.9485 23.1183 40.3711 23.3412C39.8883 23.5366 39.4496 23.8269 39.0808 24.1948C38.7272 24.5602 38.4542 24.9957 38.2793 25.4731C38.089 25.9767 37.9768 26.5065 37.9467 27.044C37.9106 27.7213 37.8905 28.4667 37.8905 29.2842C37.8905 30.1017 37.8905 30.8431 37.9467 31.5203C37.9739 32.0621 38.0862 32.5963 38.2793 33.1033C38.4562 33.5762 38.7291 34.0073 39.0808 34.3696C39.4485 34.7388 39.8875 35.0292 40.3711 35.2232C40.9485 35.446 41.5638 35.5536 42.1825 35.5398C42.8018 35.5492 43.4187 35.46 44.0099 35.2753C44.4755 35.1331 44.9133 34.9122 45.3043 34.6221C45.6287 34.3762 45.9011 34.0683 46.1058 33.7164C46.2973 33.402 46.4266 33.0537 46.4865 32.6905Z" fill="white"/>
<path d="M85.3222 29.4686L90.3836 20.6803L90.7443 20.2515C90.8476 20.1461 90.9732 20.0651 91.1119 20.0145C91.2506 19.9639 91.3988 19.9449 91.5458 19.959H93.3571C93.5468 19.9631 93.7274 20.0406 93.8612 20.1751C93.9949 20.3096 94.0714 20.4907 94.0745 20.6803V37.8842C94.0751 37.979 94.0566 38.0729 94.0201 38.1603C93.9836 38.2478 93.9298 38.327 93.8621 38.3932C93.7966 38.4608 93.7181 38.5145 93.6313 38.551C93.5445 38.5875 93.4513 38.6061 93.3571 38.6056H91.1971C91.0068 38.6035 90.825 38.5267 90.6908 38.3917C90.5566 38.2568 90.4808 38.0745 90.4798 37.8842V27.4649L87.0174 33.4761C86.9128 33.6386 86.7875 33.7867 86.6447 33.9169C86.4772 34.0685 86.2573 34.149 86.0315 34.1413H84.645C84.4203 34.1496 84.2014 34.069 84.0358 33.9169C83.893 33.7867 83.7677 33.6386 83.6631 33.4761L80.2007 27.4649V37.8842C80.1976 38.0746 80.1206 38.2563 79.986 38.3909C79.8514 38.5255 79.6697 38.6025 79.4794 38.6056H77.3234C77.1324 38.6045 76.9495 38.5282 76.8145 38.3931C76.6794 38.2581 76.6031 38.0752 76.6021 37.8842V20.6803C76.6051 20.49 76.6821 20.3083 76.8167 20.1737C76.9514 20.0391 77.133 19.9621 77.3234 19.959H79.1348C79.2817 19.9452 79.4298 19.9643 79.5685 20.0149C79.7071 20.0655 79.8327 20.1463 79.9362 20.2515C80.1045 20.4479 80.2248 20.5922 80.2929 20.6803L85.3222 29.4686Z" fill="white"/>
<path d="M110.36 35.2753C110.55 35.2774 110.731 35.3537 110.865 35.4877C110.999 35.6218 111.076 35.8031 111.078 35.9927V37.8842C111.077 38.0745 111.001 38.2567 110.867 38.3917C110.733 38.5266 110.551 38.6034 110.36 38.6055H98.6868C98.4965 38.6034 98.3147 38.5266 98.1805 38.3917C98.0463 38.2567 97.9705 38.0745 97.9695 37.8842V20.6803C97.9725 20.4906 98.049 20.3095 98.1827 20.175C98.3165 20.0405 98.4972 19.963 98.6868 19.9589H110.148C110.338 19.963 110.518 20.0405 110.652 20.175C110.786 20.3095 110.862 20.4906 110.865 20.6803V22.5718C110.863 22.7614 110.787 22.9426 110.653 23.0767C110.519 23.2108 110.338 23.287 110.148 23.2891H101.544V27.525H109.559C109.749 27.526 109.932 27.6018 110.066 27.736C110.201 27.8702 110.278 28.052 110.28 28.2423V30.1338C110.279 30.3248 110.203 30.5076 110.068 30.6427C109.933 30.7777 109.75 30.8541 109.559 30.8551H101.544V35.2753H110.36Z" fill="white"/>
<path d="M121.678 19.959C122.84 19.9363 123.997 20.1125 125.1 20.4799C126.001 20.7899 126.822 21.2949 127.505 21.9587C128.164 22.6129 128.673 23.4035 128.995 24.275C129.358 25.2498 129.57 26.274 129.625 27.3126C129.693 28.6248 129.693 29.9397 129.625 31.2519C129.57 32.2905 129.358 33.3147 128.995 34.2896C128.68 35.1561 128.184 35.9457 127.541 36.6059C126.864 37.2673 126.05 37.7709 125.156 38.0806C124.081 38.4488 122.95 38.6251 121.814 38.6016H115.118C114.927 38.5985 114.746 38.5215 114.611 38.3869C114.476 38.2522 114.399 38.0706 114.396 37.8802V20.6803C114.401 20.4906 114.479 20.3101 114.613 20.1759C114.747 20.0417 114.928 19.964 115.118 19.959H121.678ZM126.046 27.3126C126.018 26.7643 125.906 26.2236 125.713 25.7096C125.53 25.2377 125.249 24.8101 124.888 24.4553C124.503 24.0753 124.041 23.7827 123.533 23.5977C122.9 23.3789 122.232 23.2744 121.562 23.2892H117.995V35.2754H121.694C122.338 35.2882 122.978 35.1851 123.585 34.9708C124.085 34.7879 124.54 34.501 124.92 34.1293C125.276 33.7661 125.55 33.33 125.721 32.8509C125.912 32.3363 126.024 31.7959 126.054 31.2479C126.123 29.937 126.121 28.6232 126.046 27.3126Z" fill="white"/>
<path d="M145.574 19.9592C145.764 19.9633 145.945 20.0407 146.078 20.1752C146.212 20.3097 146.289 20.4908 146.292 20.6805C146.294 20.7636 146.276 20.846 146.24 20.921L139.928 32.0256V37.8844C139.927 38.0754 139.851 38.2583 139.716 38.3933C139.58 38.5284 139.398 38.6047 139.207 38.6058H137.079C136.888 38.6047 136.705 38.5284 136.57 38.3933C136.435 38.2583 136.358 38.0754 136.357 37.8844V32.0256L130.046 20.921C130.01 20.846 129.992 20.7636 129.994 20.6805C129.997 20.4908 130.073 20.3097 130.207 20.1752C130.341 20.0407 130.521 19.9633 130.711 19.9592H132.715C132.859 19.9483 133.005 19.9665 133.142 20.0126C133.28 20.0587 133.407 20.1318 133.516 20.2277C133.645 20.3424 133.753 20.4779 133.837 20.6284L138.149 28.1664L142.465 20.6284C142.547 20.4769 142.655 20.3412 142.785 20.2277C142.894 20.1318 143.021 20.0587 143.159 20.0126C143.297 19.9665 143.442 19.9483 143.587 19.9592H145.574Z" fill="white"/>
<path d="M24.1489 12.0606V6.89903H25.7078C25.958 6.89388 26.2062 6.94525 26.4338 7.04933C26.6613 7.15341 26.8625 7.30751 27.0223 7.50015C27.3797 7.93422 27.5639 8.48524 27.5392 9.04702V9.91663C27.5633 10.4771 27.3791 11.0267 27.0223 11.4595C26.8625 11.6521 26.6613 11.8062 26.4338 11.9103C26.2062 12.0144 25.958 12.0658 25.7078 12.0606H24.1489ZM25.1588 7.70052V11.2551H25.6517C25.7839 11.259 25.9145 11.2267 26.0297 11.1618C26.1448 11.0968 26.24 11.0016 26.3049 10.8864C26.4773 10.5915 26.5634 10.2541 26.5534 9.91262V9.039C26.5696 8.70072 26.4905 8.36468 26.325 8.0692C26.2593 7.95465 26.164 7.85992 26.0491 7.79503C25.9341 7.73014 25.8037 7.69749 25.6717 7.70052H25.1588Z" fill="white"/>
<path d="M30.9618 9.79605H29.2427V11.2548H31.2824V12.0562H28.2328V6.89868H31.2744V7.70017H29.2427V8.99056H30.9618V9.79605Z" fill="white"/>
<path d="M35.2537 6.89868V10.4292C35.2678 10.6645 35.2319 10.9001 35.1483 11.1204C35.0648 11.3408 34.9354 11.5409 34.7688 11.7076C34.419 12.0154 33.9639 12.1761 33.4985 12.1564C33.0335 12.1761 32.5792 12.0137 32.2321 11.7036C32.0687 11.5361 31.9425 11.336 31.8617 11.1164C31.7809 10.8968 31.7473 10.6627 31.7632 10.4292V6.89868H32.7731V10.4292C32.7574 10.6704 32.8253 10.9096 32.9655 11.1065C33.0347 11.1822 33.1198 11.2416 33.2148 11.2804C33.3097 11.3192 33.4121 11.3364 33.5145 11.3309C33.6172 11.338 33.7202 11.3227 33.8164 11.2861C33.9126 11.2494 33.9996 11.1922 34.0715 11.1185C34.2087 10.9163 34.2711 10.6725 34.2478 10.4292V6.89868H35.2537Z" fill="white"/>
<path d="M39.0126 7.70017H37.8504V12.0603H36.8445V7.70017H35.6864V6.89868H39.0126V7.70017Z" fill="white"/>
<path d="M41.7372 10.7139C41.7469 10.5409 41.6911 10.3707 41.5809 10.237C41.4227 10.0857 41.2361 9.96719 41.0319 9.88834C40.5947 9.75536 40.1867 9.54048 39.8297 9.25516C39.6937 9.12765 39.5873 8.97185 39.518 8.79874C39.4488 8.62564 39.4184 8.43945 39.4289 8.25331C39.4224 8.0579 39.4606 7.86359 39.5404 7.68513C39.6203 7.50667 39.7398 7.34876 39.8898 7.2234C40.227 6.94545 40.6555 6.80264 41.092 6.82265C41.312 6.81268 41.5317 6.8469 41.7382 6.92331C41.9447 6.99971 42.1338 7.11674 42.2942 7.26748C42.4453 7.41126 42.5636 7.58592 42.6411 7.77956C42.7185 7.97319 42.7533 8.18126 42.7431 8.38956H41.7452C41.7539 8.18397 41.6916 7.98166 41.5689 7.8165C41.5056 7.74832 41.4276 7.69553 41.3408 7.66219C41.2539 7.62884 41.1606 7.61583 41.068 7.62414C40.9811 7.61884 40.8941 7.6326 40.8131 7.66444C40.7322 7.69628 40.6591 7.74544 40.5991 7.80848C40.4855 7.93294 40.4251 8.09691 40.4308 8.26533C40.4309 8.34146 40.4474 8.41667 40.4792 8.48583C40.511 8.55499 40.5574 8.61647 40.6151 8.66607C40.8147 8.8187 41.0345 8.94279 41.2683 9.03475C41.6808 9.15591 42.0595 9.3713 42.3744 9.66392C42.5017 9.80214 42.5999 9.96453 42.6633 10.1415C42.7266 10.3184 42.7538 10.5062 42.7431 10.6938C42.7528 10.891 42.7179 11.0879 42.6409 11.2697C42.5638 11.4515 42.4467 11.6136 42.2983 11.7438C41.9576 12.0135 41.5299 12.149 41.096 12.1245C40.6327 12.1324 40.1809 11.9794 39.8177 11.6917C39.6372 11.5436 39.4955 11.3539 39.4047 11.1389C39.314 10.9238 39.2769 10.69 39.2967 10.4574V10.4333H40.2985C40.2759 10.6802 40.3475 10.9264 40.4989 11.1226C40.5805 11.1976 40.6768 11.2548 40.7816 11.2907C40.8865 11.3265 40.9976 11.3403 41.108 11.331C41.1949 11.338 41.2822 11.3266 41.3644 11.2976C41.4466 11.2686 41.5217 11.2226 41.5849 11.1627C41.6878 11.0361 41.7418 10.8769 41.7372 10.7139Z" fill="white"/>
<path d="M46.6147 10.3973V10.4174C46.6558 10.8822 46.5118 11.3445 46.2139 11.7037C46.0539 11.8545 45.8646 11.9707 45.6578 12.0451C45.451 12.1196 45.2311 12.1507 45.0117 12.1365C44.7745 12.1469 44.5378 12.1073 44.3169 12.0203C44.096 11.9333 43.8958 11.8009 43.7293 11.6316C43.5613 11.4431 43.4323 11.2231 43.3497 10.9844C43.2672 10.7458 43.2328 10.4931 43.2484 10.241V8.71019C43.2174 8.20273 43.384 7.70296 43.7133 7.31561C43.8723 7.14943 44.0651 7.0194 44.2788 6.93435C44.4925 6.8493 44.7219 6.81122 44.9516 6.82269C45.1772 6.80698 45.4037 6.83803 45.6167 6.91388C45.8298 6.98973 46.0249 7.10876 46.1899 7.26351C46.4951 7.62494 46.65 8.08967 46.6227 8.56192V8.58596H45.6449C45.6784 8.33325 45.6307 8.07643 45.5086 7.8526C45.442 7.77129 45.3562 7.70783 45.259 7.66795C45.1618 7.62807 45.0561 7.61303 44.9516 7.62418C44.8493 7.61915 44.7474 7.6409 44.656 7.68729C44.5647 7.73367 44.487 7.80308 44.4306 7.88867C44.2952 8.13312 44.2326 8.41125 44.2503 8.69016V10.249C44.2319 10.5295 44.299 10.809 44.4427 11.0505C44.5066 11.1393 44.5919 11.2104 44.6907 11.2573C44.7895 11.3043 44.8985 11.3255 45.0077 11.319C45.1035 11.3293 45.2004 11.3152 45.2894 11.2781C45.3784 11.241 45.4565 11.182 45.5166 11.1066C45.6288 10.8839 45.6721 10.6328 45.6409 10.3853L46.6147 10.3973Z" fill="white"/>
<path d="M50.8543 12.0603H49.8484V9.92028H48.2455V12.0603H47.2356V6.89868H48.2455V9.11479H49.8484V6.89868H50.8543V12.0603Z" fill="white"/>
<path d="M52.646 11.2548H54.5335V12.0562H51.6361V6.89868H52.646V11.2548Z" fill="white"/>
<path d="M57.4102 10.9582H56.0477L55.8072 12.0603H54.7693L56.208 6.89868H57.2579L58.7086 12.0603H57.7067L57.4102 10.9582ZM56.252 10.1567H57.2058L56.757 8.32533H56.7329L56.252 10.1567Z" fill="white"/>
<path d="M62.7366 12.0603H61.7347L60.1558 8.75813V12.0522H59.1259V6.89868H60.1357L61.7147 10.1968H61.7347V6.89868H62.7366V12.0603Z" fill="white"/>
<path d="M63.5259 12.0606V6.899H65.0848C65.3349 6.89413 65.583 6.94564 65.8105 7.0497C66.0381 7.15376 66.2393 7.3077 66.3992 7.50011C66.7567 7.93418 66.9408 8.4852 66.9162 9.04698V9.91659C66.9402 10.4771 66.7561 11.0266 66.3992 11.4595C66.2393 11.6519 66.0381 11.8058 65.8105 11.9099C65.583 12.0139 65.3349 12.0654 65.0848 12.0606H63.5259ZM64.5358 7.70048V11.2551H65.0247C65.1563 11.2591 65.2865 11.2269 65.401 11.1618C65.5155 11.0968 65.6099 11.0015 65.6739 10.8864C65.8393 10.5894 65.9184 10.2521 65.9023 9.91259V9.03897C65.9185 8.70068 65.8394 8.36465 65.6739 8.06917C65.6092 7.95463 65.5147 7.85983 65.4003 7.79489C65.286 7.72994 65.1561 7.69731 65.0247 7.70048H64.5358Z" fill="white"/>
<path d="M83.5791 43.3425V50.1031C83.6075 50.5533 83.5392 51.0043 83.3788 51.426C83.2185 51.8476 82.9697 52.23 82.6494 52.5476C81.9616 53.106 81.1027 53.4108 80.2169 53.4108C79.331 53.4108 78.4721 53.106 77.7843 52.5476C77.4661 52.2295 77.2189 51.8475 77.0594 51.4268C76.8998 51.006 76.8314 50.5562 76.8586 50.1071V43.3425H78.7902V50.1031C78.7528 50.5767 78.8849 51.0483 79.1629 51.4335C79.2952 51.5794 79.4586 51.6937 79.6411 51.7679C79.8235 51.8421 80.0203 51.8744 80.2169 51.8623C80.4136 51.877 80.6111 51.8487 80.7959 51.7795C80.9806 51.7103 81.1481 51.6019 81.2868 51.4616C81.5681 51.0704 81.699 50.5909 81.6555 50.1111V45.2421C81.6555 44.7383 81.8557 44.2551 82.2119 43.8989C82.5681 43.5427 83.0513 43.3425 83.555 43.3425H83.5791Z" fill="white"/>
<path d="M91.9031 53.2489H89.9755L86.9499 46.8971H86.9098V53.2168H84.9702V43.3425H86.9098L89.9354 49.6703H89.9755V43.3425H91.9031V53.2489Z" fill="white"/>
<path d="M95.4414 53.2489H93.5138V43.3425H95.4414V53.2489Z" fill="white"/>
<path d="M103.721 49.7022C103.751 50.1957 103.682 50.6903 103.52 51.1573C103.358 51.6244 103.104 52.0546 102.775 52.4232C102.09 53.0546 101.192 53.4052 100.26 53.4052C99.3285 53.4052 98.4308 53.0546 97.7456 52.4232C97.0856 51.6759 96.7484 50.6975 96.8079 49.7022V46.897C96.7513 45.9008 97.088 44.9223 97.7456 44.1719C98.0702 43.8404 98.461 43.581 98.8926 43.4104C99.3241 43.2399 99.7867 43.1621 100.25 43.1821C100.716 43.1626 101.181 43.2405 101.615 43.411C102.049 43.5814 102.443 43.8406 102.771 44.1719C103.436 44.9189 103.777 45.8988 103.721 46.897V49.7022ZM101.797 46.897C101.834 46.334 101.694 45.7736 101.396 45.294C101.265 45.115 101.091 44.9718 100.89 44.8773C100.689 44.7828 100.468 44.7401 100.246 44.753C100.026 44.7406 99.807 44.7837 99.6081 44.8782C99.4093 44.9728 99.2373 45.1157 99.1081 45.294C98.8166 45.776 98.677 46.3345 98.7074 46.897V49.7022C98.674 50.2649 98.8138 50.8244 99.1081 51.3052C99.2473 51.4732 99.4218 51.6085 99.6192 51.7013C99.8166 51.7942 100.032 51.8423 100.25 51.8423C100.468 51.8423 100.684 51.7942 100.881 51.7013C101.079 51.6085 101.253 51.4732 101.392 51.3052C101.689 50.8252 101.829 50.2651 101.793 49.7022L101.797 46.897Z" fill="white"/>
<path d="M111.911 53.2489H109.988L106.962 46.8971H106.918V53.2168H104.979V43.3425H106.918L109.948 49.6703H109.988V43.3425H111.911V53.2489Z" fill="white"/>
<path d="M50.3535 48.0992H33.8429C33.2653 48.0992 32.6935 47.985 32.1602 47.7631C31.6269 47.5412 31.1428 47.2161 30.7357 46.8064C30.3286 46.3967 30.0066 45.9105 29.7881 45.3758C29.5696 44.8412 29.4591 44.2686 29.4628 43.691V13.8637H24.1489V43.691C24.1484 44.9644 24.3988 46.2254 24.8857 47.402C25.3726 48.5786 26.0866 49.6477 26.9868 50.5483C27.887 51.4489 28.9559 52.1633 30.1323 52.6507C31.3086 53.1381 32.5695 53.389 33.8429 53.389H50.4737C50.8288 53.3891 51.1803 53.3181 51.5075 53.1801C51.8346 53.0421 52.1308 52.8399 52.3784 52.5855C52.6261 52.3311 52.8203 52.0296 52.9495 51.6989C53.0787 51.3681 53.1403 51.0149 53.1307 50.6599C53.0855 49.958 52.7718 49.3005 52.2547 48.8237C51.7376 48.3469 51.0568 48.0874 50.3535 48.0992Z" fill="#E92C2C"/>
<path d="M50.3532 51.8662C50.9774 51.8662 51.4833 51.3603 51.4833 50.7361C51.4833 50.112 50.9774 49.606 50.3532 49.606C49.7291 49.606 49.2231 50.112 49.2231 50.7361C49.2231 51.3603 49.7291 51.8662 50.3532 51.8662Z" fill="white"/>
<path d="M44.7751 51.8662C45.3993 51.8662 45.9052 51.3603 45.9052 50.7361C45.9052 50.112 45.3993 49.606 44.7751 49.606C44.151 49.606 43.645 50.112 43.645 50.7361C43.645 51.3603 44.151 51.8662 44.7751 51.8662Z" fill="white"/>
<path d="M50.3532 51.8662C50.9774 51.8662 51.4833 51.3603 51.4833 50.7361C51.4833 50.112 50.9774 49.606 50.3532 49.606C49.7291 49.606 49.2231 50.112 49.2231 50.7361C49.2231 51.3603 49.7291 51.8662 50.3532 51.8662Z" fill="white"/>
<path d="M39.197 51.8662C39.8211 51.8662 40.3271 51.3603 40.3271 50.7361C40.3271 50.112 39.8211 49.606 39.197 49.606C38.5729 49.606 38.0669 50.112 38.0669 50.7361C38.0669 51.3603 38.5729 51.8662 39.197 51.8662Z" fill="white"/>
<path d="M33.6184 51.8662C34.2425 51.8662 34.7485 51.3603 34.7485 50.7361C34.7485 50.112 34.2425 49.606 33.6184 49.606C32.9942 49.606 32.4883 50.112 32.4883 50.7361C32.4883 51.3603 32.9942 51.8662 33.6184 51.8662Z" fill="white"/>
<path d="M28.9054 49.602C29.5295 49.602 30.0355 49.0961 30.0355 48.4719C30.0355 47.8478 29.5295 47.3418 28.9054 47.3418C28.2812 47.3418 27.7753 47.8478 27.7753 48.4719C27.7753 49.0961 28.2812 49.602 28.9054 49.602Z" fill="white"/>
<path d="M39.6059 50.736L40.8082 52.347L39.1972 51.1929L37.5862 52.347L38.7403 50.736L37.5862 49.125L39.1972 50.2792L40.8082 49.125L39.6059 50.736Z" fill="white"/>
<path d="M26.89 45.4384C27.5141 45.4384 28.0201 44.9325 28.0201 44.3083C28.0201 43.6842 27.5141 43.1783 26.89 43.1783C26.2658 43.1783 25.7599 43.6842 25.7599 44.3083C25.7599 44.9325 26.2658 45.4384 26.89 45.4384Z" fill="white"/>
<path d="M26.89 39.8598C27.5141 39.8598 28.0201 39.3538 28.0201 38.7297C28.0201 38.1056 27.5141 37.5996 26.89 37.5996C26.2658 37.5996 25.7599 38.1056 25.7599 38.7297C25.7599 39.3538 26.2658 39.8598 26.89 39.8598Z" fill="white"/>
<path d="M26.89 34.2816C27.5141 34.2816 28.0201 33.7756 28.0201 33.1515C28.0201 32.5273 27.5141 32.0214 26.89 32.0214C26.2658 32.0214 25.7599 32.5273 25.7599 33.1515C25.7599 33.7756 26.2658 34.2816 26.89 34.2816Z" fill="white"/>
<path d="M26.89 28.7032C27.5141 28.7032 28.0201 28.1972 28.0201 27.5731C28.0201 26.949 27.5141 26.443 26.89 26.443C26.2658 26.443 25.7599 26.949 25.7599 27.5731C25.7599 28.1972 26.2658 28.7032 26.89 28.7032Z" fill="white"/>
<path d="M26.89 23.1288C27.5141 23.1288 28.0201 22.6228 28.0201 21.9987C28.0201 21.3746 27.5141 20.8686 26.89 20.8686C26.2658 20.8686 25.7599 21.3746 25.7599 21.9987C25.7599 22.6228 26.2658 23.1288 26.89 23.1288Z" fill="white"/>
<path d="M26.89 17.5505C27.5141 17.5505 28.0201 17.0446 28.0201 16.4204C28.0201 15.7963 27.5141 15.2903 26.89 15.2903C26.2658 15.2903 25.7599 15.7963 25.7599 16.4204C25.7599 17.0446 26.2658 17.5505 26.89 17.5505Z" fill="white"/>
<path d="M145.173 6.82257H72.9875C72.2828 6.82257 71.607 7.1025 71.1088 7.60077C70.6105 8.09904 70.3306 8.77484 70.3306 9.4795C70.3306 10.1842 70.6105 10.86 71.1088 11.3582C71.607 11.8565 72.2828 12.1364 72.9875 12.1364H145.173C146.338 12.1364 147.455 12.597 148.281 13.4176C149.106 14.2383 149.574 15.3523 149.582 16.5165V43.6909C149.582 44.8601 149.117 45.9813 148.29 46.808C147.464 47.6347 146.342 48.0991 145.173 48.0991H114.853V53.413H145.173C146.449 53.413 147.713 53.1614 148.891 52.6726C150.07 52.1838 151.141 51.4675 152.042 50.5645C152.944 49.6615 153.658 48.5896 154.145 47.4102C154.632 46.2308 154.881 44.9669 154.879 43.6909V16.5165C154.876 13.9444 153.852 11.4788 152.032 9.66114C150.212 7.84351 147.745 6.82257 145.173 6.82257V6.82257Z" fill="#E92C2C"/>
<path d="M150.211 12.874C150.835 12.874 151.341 12.368 151.341 11.7439C151.341 11.1197 150.835 10.6138 150.211 10.6138C149.586 10.6138 149.08 11.1197 149.08 11.7439C149.08 12.368 149.586 12.874 150.211 12.874Z" fill="white"/>
<path d="M152.226 17.2061C152.85 17.2061 153.356 16.7002 153.356 16.076C153.356 15.4519 152.85 14.9459 152.226 14.9459C151.602 14.9459 151.096 15.4519 151.096 16.076C151.096 16.7002 151.602 17.2061 152.226 17.2061Z" fill="white"/>
<path d="M152.226 22.7845C152.85 22.7845 153.356 22.2785 153.356 21.6544C153.356 21.0303 152.85 20.5243 152.226 20.5243C151.602 20.5243 151.096 21.0303 151.096 21.6544C151.096 22.2785 151.602 22.7845 152.226 22.7845Z" fill="white"/>
<path d="M152.226 28.3627C152.85 28.3627 153.356 27.8568 153.356 27.2326C153.356 26.6085 152.85 26.1025 152.226 26.1025C151.602 26.1025 151.096 26.6085 151.096 27.2326C151.096 27.8568 151.602 28.3627 152.226 28.3627Z" fill="white"/>
<path d="M152.226 33.941C152.85 33.941 153.356 33.435 153.356 32.8109C153.356 32.1867 152.85 31.6808 152.226 31.6808C151.602 31.6808 151.096 32.1867 151.096 32.8109C151.096 33.435 151.602 33.941 152.226 33.941Z" fill="white"/>
<path d="M152.226 39.5193C152.85 39.5193 153.356 39.0134 153.356 38.3893C153.356 37.7651 152.85 37.2592 152.226 37.2592C151.602 37.2592 151.096 37.7651 151.096 38.3893C151.096 39.0134 151.602 39.5193 152.226 39.5193Z" fill="white"/>
<path d="M152.226 45.0937C152.85 45.0937 153.356 44.5878 153.356 43.9637C153.356 43.3395 152.85 42.8336 152.226 42.8336C151.602 42.8336 151.096 43.3395 151.096 43.9637C151.096 44.5878 151.602 45.0937 152.226 45.0937Z" fill="white"/>
<path d="M150.035 49.634C150.659 49.634 151.165 49.128 151.165 48.5039C151.165 47.8798 150.659 47.3738 150.035 47.3738C149.411 47.3738 148.905 47.8798 148.905 48.5039C148.905 49.128 149.411 49.634 150.035 49.634Z" fill="white"/>
<path d="M112.585 9.4795L114.208 11.6555L112.028 10.0926L109.852 11.6555L111.415 9.4795L109.852 7.30347L112.028 8.86236L114.208 7.30347L112.585 9.4795Z" fill="white"/>
<path d="M152.932 38.4174L155 41.1905L152.227 39.2028L149.45 41.1905L151.441 38.4174L149.45 35.6442L152.227 37.6319L155 35.6442L152.932 38.4174Z" fill="white"/>
<path d="M112.028 10.6218C112.652 10.6218 113.158 10.1158 113.158 9.49167C113.158 8.86753 112.652 8.36157 112.028 8.36157C111.404 8.36157 110.898 8.86753 110.898 9.49167C110.898 10.1158 111.404 10.6218 112.028 10.6218Z" fill="white"/>
<path d="M106.454 10.6218C107.078 10.6218 107.584 10.1158 107.584 9.49167C107.584 8.86753 107.078 8.36157 106.454 8.36157C105.83 8.36157 105.324 8.86753 105.324 9.49167C105.324 10.1158 105.83 10.6218 106.454 10.6218Z" fill="white"/>
<path d="M100.875 10.6218C101.499 10.6218 102.005 10.1158 102.005 9.49167C102.005 8.86753 101.499 8.36157 100.875 8.36157C100.251 8.36157 99.745 8.86753 99.745 9.49167C99.745 10.1158 100.251 10.6218 100.875 10.6218Z" fill="white"/>
<path d="M95.297 10.6218C95.9211 10.6218 96.4271 10.1158 96.4271 9.49167C96.4271 8.86753 95.9211 8.36157 95.297 8.36157C94.6728 8.36157 94.1669 8.86753 94.1669 9.49167C94.1669 10.1158 94.6728 10.6218 95.297 10.6218Z" fill="white"/>
<path d="M89.7183 10.6218C90.3425 10.6218 90.8484 10.1158 90.8484 9.49167C90.8484 8.86753 90.3425 8.36157 89.7183 8.36157C89.0942 8.36157 88.5883 8.86753 88.5883 9.49167C88.5883 10.1158 89.0942 10.6218 89.7183 10.6218Z" fill="white"/>
<path d="M84.1402 10.6218C84.7644 10.6218 85.2703 10.1158 85.2703 9.49167C85.2703 8.86753 84.7644 8.36157 84.1402 8.36157C83.5161 8.36157 83.0101 8.86753 83.0101 9.49167C83.0101 10.1158 83.5161 10.6218 84.1402 10.6218Z" fill="white"/>
<path d="M78.5616 10.6218C79.1857 10.6218 79.6917 10.1158 79.6917 9.49167C79.6917 8.86753 79.1857 8.36157 78.5616 8.36157C77.9375 8.36157 77.4315 8.86753 77.4315 9.49167C77.4315 10.1158 77.9375 10.6218 78.5616 10.6218Z" fill="white"/>
<path d="M72.9881 10.6218C73.6123 10.6218 74.1182 10.1158 74.1182 9.49167C74.1182 8.86753 73.6123 8.36157 72.9881 8.36157C72.364 8.36157 71.858 8.86753 71.858 9.49167C71.858 10.1158 72.364 10.6218 72.9881 10.6218Z" fill="white"/>
<path d="M145.498 10.6218C146.122 10.6218 146.628 10.1158 146.628 9.49167C146.628 8.86753 146.122 8.36157 145.498 8.36157C144.874 8.36157 144.368 8.86753 144.368 9.49167C144.368 10.1158 144.874 10.6218 145.498 10.6218Z" fill="white"/>
<path d="M139.919 10.6218C140.543 10.6218 141.049 10.1158 141.049 9.49167C141.049 8.86753 140.543 8.36157 139.919 8.36157C139.295 8.36157 138.789 8.86753 138.789 9.49167C138.789 10.1158 139.295 10.6218 139.919 10.6218Z" fill="white"/>
<path d="M134.341 10.6218C134.965 10.6218 135.471 10.1158 135.471 9.49167C135.471 8.86753 134.965 8.36157 134.341 8.36157C133.717 8.36157 133.211 8.86753 133.211 9.49167C133.211 10.1158 133.717 10.6218 134.341 10.6218Z" fill="white"/>
<path d="M128.763 10.6218C129.387 10.6218 129.893 10.1158 129.893 9.49167C129.893 8.86753 129.387 8.36157 128.763 8.36157C128.139 8.36157 127.633 8.86753 127.633 9.49167C127.633 10.1158 128.139 10.6218 128.763 10.6218Z" fill="white"/>
<path d="M123.184 10.6218C123.809 10.6218 124.315 10.1158 124.315 9.49167C124.315 8.86753 123.809 8.36157 123.184 8.36157C122.56 8.36157 122.054 8.86753 122.054 9.49167C122.054 10.1158 122.56 10.6218 123.184 10.6218Z" fill="white"/>
<path d="M117.606 10.6218C118.23 10.6218 118.736 10.1158 118.736 9.49167C118.736 8.86753 118.23 8.36157 117.606 8.36157C116.982 8.36157 116.476 8.86753 116.476 9.49167C116.476 10.1158 116.982 10.6218 117.606 10.6218Z" fill="white"/>
<path d="M145.498 51.8662C146.122 51.8662 146.628 51.3603 146.628 50.7361C146.628 50.112 146.122 49.606 145.498 49.606C144.874 49.606 144.368 50.112 144.368 50.7361C144.368 51.3603 144.874 51.8662 145.498 51.8662Z" fill="white"/>
<path d="M139.919 51.8662C140.543 51.8662 141.049 51.3603 141.049 50.7361C141.049 50.112 140.543 49.606 139.919 49.606C139.295 49.606 138.789 50.112 138.789 50.7361C138.789 51.3603 139.295 51.8662 139.919 51.8662Z" fill="white"/>
<path d="M134.341 51.8662C134.965 51.8662 135.471 51.3603 135.471 50.7361C135.471 50.112 134.965 49.606 134.341 49.606C133.717 49.606 133.211 50.112 133.211 50.7361C133.211 51.3603 133.717 51.8662 134.341 51.8662Z" fill="white"/>
<path d="M128.763 51.8662C129.387 51.8662 129.893 51.3603 129.893 50.7361C129.893 50.112 129.387 49.606 128.763 49.606C128.139 49.606 127.633 50.112 127.633 50.7361C127.633 51.3603 128.139 51.8662 128.763 51.8662Z" fill="white"/>
<path d="M123.184 51.8662C123.809 51.8662 124.315 51.3603 124.315 50.7361C124.315 50.112 123.809 49.606 123.184 49.606C122.56 49.606 122.054 50.112 122.054 50.7361C122.054 51.3603 122.56 51.8662 123.184 51.8662Z" fill="white"/>
<path d="M117.606 51.8662C118.23 51.8662 118.736 51.3603 118.736 50.7361C118.736 50.112 118.23 49.606 117.606 49.606C116.982 49.606 116.476 50.112 116.476 50.7361C116.476 51.3603 116.982 51.8662 117.606 51.8662Z" fill="white"/>
<path d="M75.5157 39.1505C75.1505 38.9386 74.7358 38.8267 74.3135 38.8259C74.0787 38.8282 73.8454 38.8633 73.6202 38.9301C73.8518 38.2346 73.9735 37.5071 73.9809 36.7741V24.3511C73.946 22.408 73.1805 20.5495 71.8369 19.1454C68.8193 16.1639 64.5073 15.9916 63.2089 15.9996C62.2511 15.9996 57.6827 16.0757 54.5729 19.1454C53.2301 20.5432 52.4595 22.3933 52.4129 24.331V36.7741C52.4157 37.489 52.5251 38.1994 52.7375 38.882C52.5821 38.8484 52.4236 38.8309 52.2646 38.8299C51.8429 38.8307 51.4286 38.9412 51.0624 39.1505C50.5133 39.4718 50.1138 39.9976 49.9516 40.6127C49.7893 41.2279 49.8775 41.8823 50.1968 42.4326C52.0562 45.6385 56.0316 47.9468 60.7323 48.556V53.3929H61.9346V47.4699C57.1777 47.1293 53.0621 44.9974 51.2347 41.8315C51.0753 41.5551 51.0322 41.2268 51.1148 40.9187C51.1975 40.6105 51.3992 40.3479 51.6755 40.1884C51.9519 40.029 52.2802 39.9859 52.5884 40.0686C52.8965 40.1512 53.1592 40.3529 53.3186 40.6293C54.8695 43.3142 58.8649 45.1176 63.261 45.1176H63.3372C67.7453 45.1176 71.7327 43.3142 73.2836 40.6293C73.3892 40.4464 73.5411 40.2945 73.724 40.189C73.9069 40.0835 74.1144 40.028 74.3255 40.0281C74.5365 40.0279 74.7438 40.0832 74.9267 40.1884C75.2024 40.3484 75.4034 40.6114 75.4853 40.9195C75.5672 41.2276 75.5234 41.5557 75.3635 41.8315C73.5281 45.0134 69.3804 47.1534 64.5915 47.4739V53.3929H65.7937V48.584C70.5265 47.9909 74.5299 45.6987 76.4054 42.4526C76.5656 42.1779 76.6698 41.874 76.7118 41.5587C76.7537 41.2434 76.7328 40.923 76.65 40.6158C76.5673 40.3087 76.4244 40.021 76.2297 39.7695C76.035 39.518 75.7923 39.3076 75.5157 39.1505ZM53.8035 24.331C53.8486 22.768 54.4694 21.2766 55.5467 20.1433C58.2557 17.4663 62.3273 17.3861 63.1929 17.4022C64.0585 17.4182 68.126 17.4663 70.8391 20.1433C71.9164 21.2766 72.5372 22.768 72.5823 24.331V36.7741C72.5372 38.3372 71.9164 39.8285 70.8391 40.9619C68.2703 43.4946 64.5394 43.6909 63.3772 43.6909H63.0406C61.9346 43.6909 58.1195 43.4946 55.5427 40.9498C54.4695 39.8189 53.8504 38.3324 53.8035 36.7741V24.331Z" fill="white"/>
<path d="M66.0264 24.4876H66.1827C67.4347 24.4898 68.6846 24.5876 69.9217 24.7801V24.3313C69.8719 23.4857 69.5371 22.6819 68.9719 22.051C68.7256 21.8113 68.4572 21.5953 68.1704 21.4058C68.2425 22.1472 68.2466 22.7083 68.2466 22.7563C68.2466 22.9689 68.1621 23.1728 68.0118 23.3231C67.8615 23.4734 67.6576 23.5578 67.4451 23.5578C67.2325 23.5578 67.0286 23.4734 66.8783 23.3231C66.728 23.1728 66.6436 22.9689 66.6436 22.7563C66.6339 22.0269 66.5669 21.2993 66.4432 20.5803C66.1117 20.4702 65.7746 20.3779 65.4333 20.3038C65.5255 21.3618 65.5215 22.4438 65.5175 22.7644C65.5175 22.9769 65.433 23.1808 65.2827 23.3311C65.1324 23.4814 64.9286 23.5659 64.716 23.5659C64.5034 23.5659 64.2996 23.4814 64.1493 23.3311C63.999 23.1808 63.9145 22.9769 63.9145 22.7644C63.9354 21.867 63.9046 20.9692 63.8223 20.0754C63.5138 20.0754 63.2934 20.0754 63.2132 20.0754H63.1571C63.077 20.0754 62.8566 20.0754 62.548 20.0754C62.4638 20.9571 62.4277 21.8427 62.4398 22.7283C62.4398 22.9409 62.3553 23.1447 62.205 23.295C62.0547 23.4453 61.8509 23.5298 61.6383 23.5298C61.4257 23.5298 61.2219 23.4453 61.0716 23.295C60.9213 23.1447 60.8368 22.9409 60.8368 22.7283C60.8368 22.4077 60.8368 21.3257 60.921 20.2677C60.5785 20.3424 60.2401 20.4347 59.9071 20.5442C59.7834 21.2632 59.7164 21.9908 59.7067 22.7203C59.7067 22.9329 59.6223 23.1367 59.472 23.287C59.3217 23.4373 59.1178 23.5218 58.9052 23.5218C58.6927 23.5218 58.4888 23.4373 58.3385 23.287C58.1882 23.1367 58.1037 22.9329 58.1037 22.7203C58.1037 22.6722 58.1037 22.1112 58.1799 21.3698C57.9034 21.5733 57.6459 21.8013 57.4105 22.051C56.8435 22.6872 56.5088 23.4966 56.4607 24.3473V24.7961C57.7026 24.5976 58.958 24.4945 60.2157 24.4876H60.3679C60.5805 24.4876 60.7844 24.572 60.9347 24.7223C61.085 24.8726 61.1694 25.0765 61.1694 25.289C61.1694 25.5016 61.085 25.7055 60.9347 25.8558C60.7844 26.0061 60.5805 26.0905 60.3679 26.0905H60.2157C58.9616 26.0933 57.7098 26.1978 56.4727 26.4031V27.445C57.7109 27.2498 58.9622 27.1494 60.2157 27.1445H60.3679C60.5805 27.1445 60.7844 27.2289 60.9347 27.3792C61.085 27.5295 61.1694 27.7334 61.1694 27.946C61.1694 28.1585 61.085 28.3624 60.9347 28.5127C60.7844 28.663 60.5805 28.7475 60.3679 28.7475H60.2157C58.9615 28.7512 57.7097 28.857 56.4727 29.064V30.0298C57.4445 29.8669 58.4289 29.7904 59.4142 29.8014C59.6267 29.8014 59.8306 29.8859 59.9809 30.0362C60.1312 30.1865 60.2157 30.3903 60.2157 30.6029C60.2157 30.8155 60.1312 31.0193 59.9809 31.1696C59.8306 31.3199 59.6267 31.4044 59.4142 31.4044H59.2699C58.3292 31.3929 57.3897 31.4734 56.4647 31.6448V32.7589C57.7058 32.5673 58.9598 32.4709 60.2157 32.4704H60.3679C60.5805 32.4704 60.7844 32.5548 60.9347 32.7051C61.085 32.8554 61.1694 33.0593 61.1694 33.2719C61.1694 33.4844 61.085 33.6883 60.9347 33.8386C60.7844 33.9889 60.5805 34.0733 60.3679 34.0733H60.2157C58.9617 34.0781 57.7101 34.1826 56.4727 34.3859V35.4278C57.7105 35.2273 58.9618 35.1214 60.2157 35.1113H60.3679C60.5805 35.1113 60.7844 35.1957 60.9347 35.346C61.085 35.4963 61.1694 35.7002 61.1694 35.9127C61.1694 36.1253 61.085 36.3292 60.9347 36.4795C60.7844 36.6298 60.5805 36.7142 60.3679 36.7142H60.2157C58.967 36.7194 57.7208 36.8239 56.4887 37.0268C56.5848 37.7849 56.9059 38.4968 57.4105 39.0706C57.6562 39.3146 57.9246 39.5347 58.2119 39.7278C58.1198 38.8903 58.1158 38.225 58.1158 38.1769C58.1158 37.9644 58.2002 37.7605 58.3505 37.6102C58.5008 37.4599 58.7047 37.3755 58.9173 37.3755C59.1298 37.3755 59.3337 37.4599 59.484 37.6102C59.6343 37.7605 59.7187 37.9644 59.7187 38.1769C59.7285 38.9746 59.809 39.7699 59.9592 40.5534C60.2842 40.659 60.6146 40.7473 60.949 40.8178C60.87 39.9359 60.8366 39.0504 60.8488 38.1649C60.8488 37.9524 60.9333 37.7485 61.0836 37.5982C61.2339 37.4479 61.4378 37.3634 61.6503 37.3634C61.8629 37.3634 62.0667 37.4479 62.2171 37.5982C62.3674 37.7485 62.4518 37.9524 62.4518 38.1649C62.438 39.1165 62.4821 40.068 62.5841 41.0142C62.7924 41.0142 62.9527 41.0142 63.0489 41.0142H63.3455C63.4416 41.0142 63.6059 41.0142 63.8103 41.0142C63.9157 40.0683 63.9612 39.1166 63.9466 38.1649C63.9466 37.9524 64.031 37.7485 64.1813 37.5982C64.3316 37.4479 64.5355 37.3634 64.7481 37.3634C64.9606 37.3634 65.1645 37.4479 65.3148 37.5982C65.4651 37.7485 65.5495 37.9524 65.5495 38.1649C65.5599 39.0504 65.5251 39.9359 65.4454 40.8178C65.78 40.7483 66.1105 40.66 66.4352 40.5534C66.5854 39.7699 66.6659 38.9746 66.6756 38.1769C66.6756 37.9644 66.7601 37.7605 66.9104 37.6102C67.0607 37.4599 67.2646 37.3755 67.4771 37.3755C67.6897 37.3755 67.8936 37.4599 68.0439 37.6102C68.1942 37.7605 68.2786 37.9644 68.2786 38.1769C68.2786 38.225 68.2786 38.8903 68.1824 39.7278C68.4706 39.5356 68.739 39.3155 68.9839 39.0706C69.4965 38.4959 69.8222 37.7789 69.9176 37.0148C68.6856 36.8117 67.4394 36.7072 66.1907 36.7022H66.0465C65.8339 36.7022 65.63 36.6178 65.4797 36.4675C65.3294 36.3172 65.245 36.1133 65.245 35.9007C65.245 35.6882 65.3294 35.4843 65.4797 35.334C65.63 35.1837 65.8339 35.0992 66.0465 35.0992H66.2028C67.4547 35.1014 68.7046 35.1992 69.9417 35.3918V34.3499C68.7043 34.1463 67.4527 34.0418 66.1988 34.0373H66.0585C65.8459 34.0373 65.6421 33.9528 65.4918 33.8025C65.3414 33.6522 65.257 33.4484 65.257 33.2358C65.257 33.0232 65.3414 32.8194 65.4918 32.669C65.6421 32.5187 65.8459 32.4343 66.0585 32.4343H66.2148C67.4667 32.4365 68.7167 32.5343 69.9537 32.7268V31.6328C69.0288 31.4609 68.0892 31.3804 67.1485 31.3924H67.0042C66.7917 31.3924 66.5878 31.3079 66.4375 31.1576C66.2872 31.0073 66.2028 30.8034 66.2028 30.5909C66.2028 30.3783 66.2872 30.1745 66.4375 30.0241C66.5878 29.8738 66.7917 29.7894 67.0042 29.7894C67.9892 29.7743 68.9736 29.8467 69.9457 30.0058V29.052C68.7087 28.8448 67.4569 28.7389 66.2028 28.7354H66.0585C65.8459 28.7354 65.6421 28.651 65.4918 28.5007C65.3414 28.3504 65.257 28.1465 65.257 27.934C65.257 27.7214 65.3414 27.5175 65.4918 27.3672C65.6421 27.2169 65.8459 27.1325 66.0585 27.1325H66.2148C67.4667 27.1347 68.7167 27.2325 69.9537 27.425V26.3831C68.7166 26.1776 67.4648 26.073 66.2108 26.0705H66.0705C65.8579 26.0705 65.6541 25.9861 65.5038 25.8357C65.3535 25.6854 65.269 25.4816 65.269 25.269C65.269 25.0564 65.3535 24.8526 65.5038 24.7023C65.6541 24.552 65.8579 24.4675 66.0705 24.4675L66.0264 24.4876ZM63.1892 31.9855C62.8223 31.9661 62.4769 31.8067 62.2241 31.5401C61.9712 31.2736 61.8303 30.9202 61.8303 30.5528C61.8303 30.1854 61.9712 29.8321 62.2241 29.5655C62.4769 29.299 62.8223 29.1396 63.1892 29.1202C63.3837 29.1099 63.5783 29.1393 63.761 29.2066C63.9438 29.274 64.1109 29.3779 64.2523 29.5119C64.3936 29.6459 64.5061 29.8074 64.5831 29.9863C64.66 30.1653 64.6996 30.358 64.6996 30.5528C64.6996 30.7476 64.66 30.9403 64.5831 31.1193C64.5061 31.2983 64.3936 31.4597 64.2523 31.5937C64.1109 31.7278 63.9438 31.8316 63.761 31.899C63.5783 31.9663 63.3837 31.9958 63.1892 31.9855Z" fill="white"/>
</svg>
