<svg width="180" height="60" viewBox="0 0 180 60" fill="none" xmlns="http://www.w3.org/2000/svg">
<rect x="12" y="10" width="156" height="40" rx="10" fill="#933FFF"/>
<path d="M34.2251 38.5835C34.0884 38.9766 33.7178 39.24 33.3016 39.24H31.0023C30.6018 39.24 30.2419 38.9959 30.0938 38.6238L26.5331 29.6775C26.2775 29.0354 26.7505 28.3381 27.4415 28.3381H28.3609C28.7732 28.3381 29.1412 28.5968 29.2809 28.9847L32.0962 36.8043L32.2172 37.2855C32.2198 37.2959 32.2292 37.3032 32.2399 37.3032C32.2504 37.3032 32.2595 37.2963 32.2624 37.2863L32.401 36.8043L35.1133 28.9951C35.2499 28.6018 35.6206 28.3381 36.037 28.3381L37.9465 28.3381C38.3622 28.3381 38.7324 28.601 38.8696 28.9934L41.599 36.8043L41.7376 37.2863C41.7405 37.2963 41.7496 37.3032 41.7601 37.3032C41.7708 37.3032 41.7802 37.2959 41.7828 37.2855L41.9038 36.8043L44.7191 28.9847C44.8588 28.5968 45.2268 28.3381 45.6391 28.3381H46.5585C47.2495 28.3381 47.7225 29.0354 47.4669 29.6775L43.9062 38.6238C43.7581 38.9959 43.3982 39.24 42.9977 39.24H40.6984C40.2822 39.24 39.9116 38.9766 39.7749 38.5835L37.1345 30.9939L37.0138 30.5706C37.0109 30.5606 37.0018 30.5537 36.9914 30.5537C36.9807 30.5537 36.9713 30.5611 36.9688 30.5715L36.8655 30.9939L34.2251 38.5835Z" fill="white"/>
<path d="M34.5925 32.9094L37.0001 24.6022L39.4078 32.9094C39.5698 33.4685 40.0818 33.8532 40.6639 33.8532H42.7907C43.3544 33.8532 43.8546 33.492 44.032 32.957L47.6155 22.1494C47.8962 21.3029 47.266 20.43 46.3742 20.43H45.4832C44.9057 20.43 44.3965 20.8089 44.2306 21.3621L41.6367 30.0102L39.1221 21.3723C38.9596 20.8139 38.448 20.43 37.8665 20.43L36.1175 20.43C35.5353 20.43 35.0231 20.815 34.8613 21.3743L32.363 30.0085L29.7697 21.3621C29.6037 20.8089 29.0946 20.43 28.517 20.43H27.6261C26.7343 20.43 26.1041 21.3029 26.3847 22.1494L29.9682 32.957C30.1456 33.492 30.6459 33.8532 31.2096 33.8532H33.3364C33.9184 33.8532 34.4304 33.4685 34.5925 32.9094Z" fill="white" stroke="#933FFF" stroke-width="0.66"/>
<path d="M61.502 35H58.898L56.14 26.74H58.324L60.228 33.152L60.312 33.488H60.34L60.438 33.152L62.44 26.74H64.862L66.864 33.152L66.962 33.488H66.99L67.074 33.152L68.978 26.74H71.162L68.39 35H65.786L63.728 28.546L63.672 28.322H63.63L63.574 28.546L61.502 35ZM75.927 26.516C77.1124 26.516 78.0364 26.6887 78.699 27.034C79.3617 27.37 79.8144 27.8227 80.057 28.392C80.309 28.952 80.435 29.624 80.435 30.408V35H78.391V33.922L78.475 33.054H78.447C78.139 33.7353 77.663 34.2673 77.019 34.65C76.375 35.0327 75.6284 35.224 74.779 35.224C73.491 35.224 72.581 34.9533 72.049 34.412C71.5264 33.8707 71.265 33.222 71.265 32.466C71.265 31.6727 71.559 31.0287 72.147 30.534C72.7444 30.03 73.729 29.778 75.101 29.778C75.7357 29.778 76.3517 29.8293 76.949 29.932C77.5464 30.0347 78.027 30.1513 78.391 30.282V29.96C78.3724 28.5973 77.5324 27.916 75.871 27.916C75.115 27.916 74.555 28.0607 74.191 28.35C73.827 28.63 73.6217 28.9893 73.575 29.428H71.573C71.6757 28.616 72.049 27.93 72.693 27.37C73.337 26.8007 74.415 26.516 75.927 26.516ZM75.325 33.698C76.1744 33.698 76.851 33.488 77.355 33.068C77.859 32.6387 78.181 32.1393 78.321 31.57C77.9757 31.4207 77.5464 31.304 77.033 31.22C76.5197 31.1267 76.0344 31.08 75.577 31.08C74.737 31.08 74.1444 31.206 73.799 31.458C73.463 31.7007 73.295 32.0133 73.295 32.396C73.295 32.7693 73.4537 33.082 73.771 33.334C74.0884 33.5767 74.6064 33.698 75.325 33.698ZM83.3545 25.564C82.5051 25.564 82.0805 25.228 82.0805 24.556C82.0805 24.22 82.1878 23.968 82.4025 23.8C82.6171 23.632 82.9345 23.548 83.3545 23.548C84.2038 23.548 84.6285 23.884 84.6285 24.556C84.6285 25.228 84.2038 25.564 83.3545 25.564ZM84.3625 35H82.3185V26.74H84.3625V35ZM88.4301 35H86.3861V24.29H88.4301V35ZM97.3978 24.29H99.4418V35H97.3978V34.272L97.4398 33.32H97.3978C97.0804 33.936 96.6278 34.4073 96.0398 34.734C95.4518 35.0607 94.7751 35.224 94.0098 35.224C93.1138 35.224 92.3531 35.0467 91.7278 34.692C91.1118 34.328 90.6451 33.824 90.3278 33.18C90.0198 32.536 89.8658 31.794 89.8658 30.954V30.772C89.8658 29.932 90.0244 29.1947 90.3418 28.56C90.6591 27.916 91.1258 27.4167 91.7418 27.062C92.3671 26.698 93.1231 26.516 94.0098 26.516C94.7844 26.516 95.4611 26.6793 96.0398 27.006C96.6278 27.3327 97.0851 27.804 97.4118 28.42H97.4398L97.3978 27.44V24.29ZM94.5978 33.642C95.1951 33.642 95.7038 33.516 96.1238 33.264C96.5531 33.0027 96.8704 32.6713 97.0758 32.27C97.2904 31.8687 97.3978 31.444 97.3978 30.996V30.744C97.3978 30.3053 97.2904 29.8853 97.0758 29.484C96.8704 29.0733 96.5578 28.742 96.1378 28.49C95.7178 28.2287 95.2044 28.098 94.5978 28.098C93.9818 28.098 93.4731 28.2287 93.0718 28.49C92.6704 28.7513 92.3764 29.092 92.1898 29.512C92.0124 29.9227 91.9238 30.3613 91.9238 30.828V30.94C91.9238 31.724 92.1384 32.3727 92.5678 32.886C93.0064 33.39 93.6831 33.642 94.5978 33.642ZM110.845 35H108.241L105.483 26.74H107.667L109.571 33.152L109.655 33.488H109.683L109.781 33.152L111.783 26.74H114.205L116.207 33.152L116.305 33.488H116.333L116.417 33.152L118.321 26.74H120.505L117.733 35H115.129L113.071 28.546L113.015 28.322H112.973L112.917 28.546L110.845 35ZM125.618 35.224C124.078 35.224 122.87 34.8507 121.992 34.104C121.115 33.348 120.676 32.284 120.676 30.912V30.814C120.676 29.4513 121.115 28.3967 121.992 27.65C122.87 26.894 124.078 26.516 125.618 26.516C127.158 26.516 128.367 26.894 129.244 27.65C130.122 28.3967 130.56 29.4513 130.56 30.814V30.912C130.56 32.284 130.122 33.348 129.244 34.104C128.367 34.8507 127.158 35.224 125.618 35.224ZM125.618 33.628C126.514 33.628 127.219 33.3993 127.732 32.942C128.246 32.4847 128.502 31.7987 128.502 30.884V30.842C128.502 29.9367 128.246 29.2553 127.732 28.798C127.219 28.3407 126.514 28.112 125.618 28.112C124.722 28.112 124.018 28.3407 123.504 28.798C122.991 29.2553 122.734 29.9367 122.734 30.842V30.884C122.734 31.7987 122.991 32.4847 123.504 32.942C124.018 33.3993 124.722 33.628 125.618 33.628ZM137.422 26.516C137.786 26.516 138.094 26.5487 138.346 26.614V28.378C138.047 28.3127 137.693 28.28 137.282 28.28C136.629 28.28 136.055 28.4153 135.56 28.686C135.075 28.9473 134.697 29.316 134.426 29.792C134.165 30.2587 134.034 30.7907 134.034 31.388V35H131.99V26.74H134.034V27.818L133.964 28.742H133.978C134.295 28.0513 134.748 27.51 135.336 27.118C135.933 26.7167 136.629 26.516 137.422 26.516ZM141.438 35H139.394V24.29H141.438V35ZM150.405 24.29H152.449V35H150.405V34.272L150.447 33.32H150.405C150.088 33.936 149.635 34.4073 149.047 34.734C148.459 35.0607 147.783 35.224 147.017 35.224C146.121 35.224 145.361 35.0467 144.735 34.692C144.119 34.328 143.653 33.824 143.335 33.18C143.027 32.536 142.873 31.794 142.873 30.954V30.772C142.873 29.932 143.032 29.1947 143.349 28.56C143.667 27.916 144.133 27.4167 144.749 27.062C145.375 26.698 146.131 26.516 147.017 26.516C147.792 26.516 148.469 26.6793 149.047 27.006C149.635 27.3327 150.093 27.804 150.419 28.42H150.447L150.405 27.44V24.29ZM147.605 33.642C148.203 33.642 148.711 33.516 149.131 33.264C149.561 33.0027 149.878 32.6713 150.083 32.27C150.298 31.8687 150.405 31.444 150.405 30.996V30.744C150.405 30.3053 150.298 29.8853 150.083 29.484C149.878 29.0733 149.565 28.742 149.145 28.49C148.725 28.2287 148.212 28.098 147.605 28.098C146.989 28.098 146.481 28.2287 146.079 28.49C145.678 28.7513 145.384 29.092 145.197 29.512C145.02 29.9227 144.931 30.3613 144.931 30.828V30.94C144.931 31.724 145.146 32.3727 145.575 32.886C146.014 33.39 146.691 33.642 147.605 33.642Z" fill="white"/>
</svg>
