<svg width="180" height="60" viewBox="0 0 180 60" fill="none" xmlns="http://www.w3.org/2000/svg">
<g clip-path="url(#clip0_608_396)">
<path fill-rule="evenodd" clip-rule="evenodd" d="M105.399 40.7564L100.559 36.5856C98.3593 39.6588 94.8393 41.6344 90.8793 41.6344C84.2793 41.6344 78.7793 36.3661 78.7793 29.7808C78.7793 23.1954 84.2793 17.9271 90.8793 17.9271C94.8393 17.9271 98.3593 19.9027 100.559 22.9759L105.179 18.8052C101.879 14.4149 96.5993 11.7808 90.8793 11.7808C80.7593 11.7808 72.3993 19.9027 72.3993 29.7808C72.3993 39.6588 80.7593 47.7808 90.8793 47.7808C96.8193 47.7808 102.099 44.9271 105.399 40.7564Z" fill="white"/>
<path d="M54.7989 38.7809H50.1789V22.0979H54.7989V38.7809ZM49.9589 17.7077C49.9589 17.0492 50.1789 16.6101 50.6189 16.1711C51.0589 15.7321 51.7189 15.5126 52.3789 15.5126C53.2589 15.5126 53.9189 15.7321 54.3589 16.1711C54.7989 16.6101 55.0189 17.0492 55.0189 17.7077C55.0189 18.3662 54.7989 19.0248 54.3589 19.4638C53.9189 19.9028 53.2589 20.1223 52.3789 20.1223C51.7189 20.1223 51.0589 19.9028 50.6189 19.4638C50.1789 19.0248 49.9589 18.3662 49.9589 17.7077ZM64.9189 27.1467L67.5589 22.0979H72.3989L67.5589 30.2199L72.6189 38.7809H67.7789L64.9189 33.5126L61.8389 38.7809H56.9989L62.0589 30.2199L57.2189 22.0979H62.0589L64.9189 27.1467Z" fill="white"/>
<path d="M48.1988 18.8053H43.3588V38.7809H38.9588V18.8053H34.9988V14.8541H48.1988V18.8053Z" fill="white"/>
<path d="M123.659 22.0978L123.879 23.8539C125.199 22.5369 126.959 21.6588 129.159 21.6588C131.359 21.6588 132.899 22.5369 133.779 24.293C135.099 22.5369 136.859 21.6588 139.279 21.6588C141.259 21.6588 142.579 22.3174 143.679 23.4149C144.559 24.293 144.999 26.0491 144.999 28.0247V38.7808H140.159V28.0247C140.159 27.1466 139.939 26.4881 139.499 26.0491C139.279 25.61 138.399 25.3905 137.519 25.3905C135.979 25.3905 135.099 26.0491 134.439 27.3661V38.7808H129.599V28.0247C129.599 27.1466 129.599 26.4881 129.159 26.0491C128.719 25.61 128.059 25.3905 126.959 25.3905C125.639 25.3905 124.759 25.8295 124.099 26.9271V38.7808H119.259V22.0978H123.659Z" fill="white"/>
<path fill-rule="evenodd" clip-rule="evenodd" d="M113.539 30.0003C113.539 32.6344 111.559 34.8295 108.919 34.8295C106.499 34.8295 104.299 32.6344 104.299 30.0003C104.299 27.3661 106.499 25.171 108.919 25.171C111.559 25.171 113.539 27.3661 113.539 30.0003ZM108.919 21.2198C104.299 21.2198 100.339 25.171 100.339 30.0003C100.339 34.8295 104.299 38.7808 108.919 38.7808C113.759 38.7808 117.499 34.8295 117.499 30.0003C117.499 25.171 113.759 21.2198 108.919 21.2198Z" fill="white"/>
</g>
<defs>
<clipPath id="clip0_608_396">
<rect width="110" height="36" fill="white" transform="translate(35 12)"/>
</clipPath>
</defs>
</svg>
